<svg
  xmlns="http://www.w3.org/2000/svg"
  version="1.1"
  width="17"
  height="14"
  viewBox="0 0 17 14">
 <path fill="#fbc659" d="m9.0539,13.85289c-3.65462,-0.40321 -6.85847,-1.6332 -7.50749,-2.88219c-0.08001,-0.15399 -0.14548,-0.4591 -0.14548,-0.67804c0,-0.32318 0.06214,-0.45219 0.33035,-0.68591c0.29638,-0.25825 0.78864,-0.51156 1.33198,-0.68541c0.16804,-0.05378 0.13902,-0.10722 -0.22807,-0.41992c-0.45235,-0.38532 -0.56049,-0.80759 -0.26858,-1.04869c0.25925,-0.21411 0.17621,-0.27701 -0.58948,-0.44655c-1.14763,-0.25409 -2.03513,-0.79712 -1.97417,-1.20792c0.0584,-0.39356 3.16335,-2.90264 5.33394,-4.3103c2.11719,-1.37303 2.70793,-1.5477 4.98405,-1.4737c1.19351,0.0388 1.72497,0.10034 2.21117,0.25606c1.09175,0.34966 1.67579,0.88941 1.43893,1.32986c-0.0557,0.10359 -0.38663,0.35839 -0.73537,0.56622c-1.16313,0.69317 -2.70761,1.78208 -2.65282,1.87033c0.0298,0.04793 0.30858,0.08716 0.61955,0.08716c0.31099,0 1.36881,0.09204 2.35073,0.20454c1.61636,0.18519 1.85478,0.23818 2.51938,0.55992c0.75736,0.36665 0.9742,0.59795 0.91946,0.98082c-0.03626,0.25358 -0.56589,0.56839 -1.93228,1.14853c-0.48781,0.20712 -0.88693,0.40524 -0.88693,0.44028c0,0.03505 0.19385,0.12125 0.4308,0.19158c0.66712,0.19805 1.71953,0.69616 1.97451,0.93455c0.28341,0.26496 0.29533,0.61949 0.02967,0.88384c-0.11024,0.10972 -0.56057,0.37967 -1.00073,0.59991c-0.44015,0.22024 -0.82559,0.46607 -0.85653,0.5463c-0.03088,0.08023 -0.32182,0.27247 -0.64642,0.42722l-0.59018,0.28136l0.40546,0.08955c1.18576,0.26186 1.76333,0.48777 2.01847,0.78951c0.32647,0.38612 0.32727,0.50485 0.0056,0.88487c-0.67861,0.80267 -3.60733,1.12839 -6.88981,0.76623l0.00029,-0.00001z"/>
</svg>