<svg xmlns="http://www.w3.org/2000/svg" xmlns:xlink="http://www.w3.org/1999/xlink" viewBox="0 0 221.41 124.93"><defs><style>.a{fill:none;}.b{clip-path:url(#a);}.c{fill:#231f20;}.d{fill:#fff;}.e{fill:#f15843;}.f{fill:#00b8ad;}.g{fill:#b10069;}.h{fill:#f58220;}.i{fill:#c110a0;}.j{fill:#00a0d2;}.k{fill:#702082;}.l{fill:#ffb81c;}</style><clipPath id="a" transform="translate(-6.43 -7.55)"><rect class="a" x="-192" y="-332.89" width="595.28" height="841.89"/></clipPath></defs><title>new-logo</title><g class="b"><path class="c" d="M118.22,61.6" transform="translate(-6.43 -7.55)"/></g><rect class="d" x="0.71" width="98.69" height="98.8"/><g class="b"><path class="c" d="M115.09,62.22c1.6,5.43,6.11,7.95,11.59,7.95,2.34,0,5.2-.51,7-1.94a6.55,6.55,0,0,0,2.4-5c0-3.94-3.25-5.55-6.68-6.4l-6.51-1.6c-2.63-.63-5-1.26-7.08-3.14a9.74,9.74,0,0,1-3.2-7.26c0-7.55,6.51-10.8,13.3-10.8,6.57,0,11.82,3.26,13.93,9.6l-4.45,1.2c-.86-4.29-5.42-6.92-9.59-6.92-3.71,0-8.39,1.94-8.39,6.23s3.43,5.37,7.08,6.23l5.88,1.43a16,16,0,0,1,7.14,3,9.66,9.66,0,0,1,3.65,7.77,11,11,0,0,1-4.4,8.92c-2.86,2.17-6.68,2.86-10.22,2.86-8,0-13.24-3.54-15.87-11.14Z" transform="translate(-6.43 -7.55)"/></g><path class="c" d="M151.06,73.77H146.6v-29h4.45Zm.23-34.18h-4.91v-5h4.91Z" transform="translate(-6.43 -7.55)"/><g class="b"><path class="c" d="M167.67,60.33a6.09,6.09,0,0,0,6.45-6.46,6.32,6.32,0,0,0-6.45-6.34,6.24,6.24,0,0,0-6.51,6.4c0,3.94,2.57,6.4,6.51,6.4m.57,20.92A20.57,20.57,0,0,0,175.72,80c1.6-.74,2.51-1.66,2.51-3.43,0-2.8-3.14-3.32-6.17-3.49-1.71-.11-6.68-.06-9.82-.46-1.71.8-3.14,1.89-3.14,3.94,0,4,6.17,4.69,9.14,4.69M167.67,44a14,14,0,0,1,5.88,1.26c.74-4.11,2.74-5,6.68-5l1.14.06.06,3.6H181c-2.63,0-4.68.29-5.14,3.32a10.7,10.7,0,0,1,2.8,7.14,9.49,9.49,0,0,1-3.71,7.26,12.05,12.05,0,0,1-7.36,2.23c-1.31,0-2.86-.46-3.94-.46-1.37,0-3.08,1.2-3.08,2.69a2.47,2.47,0,0,0,2.17,2.46,45.48,45.48,0,0,0,6.85.46c2.51.11,6.22.17,8.51,1a6.85,6.85,0,0,1,4.45,6.4c0,7.37-8.74,8.35-14.33,8.35-2.68,0-6-.11-8.51-1.14-2.8-1.14-5-3.2-5-6.4,0-3,1.65-4.92,4.39-5.89-1.65-1.09-2.8-2.4-2.8-4.57,0-2.86,1.66-4.12,4-5.2a9.4,9.4,0,0,1-3.77-7.66c0-6.29,5.31-9.89,11.13-9.89" transform="translate(-6.43 -7.55)"/><path class="c" d="M203.23,73.77V56.85a17.94,17.94,0,0,0-.63-5.77,5.35,5.35,0,0,0-5.2-3.43,8,8,0,0,0-5.88,3.09c-2,2.4-2.23,5.09-2.23,8.12V73.77h-4.45V34.56h4.45V50.1h.17c1.83-3.89,4.51-6.12,9-6.12A8.92,8.92,0,0,1,206.15,48c1.77,2.86,1.54,5.6,1.54,8.8V73.77Z" transform="translate(-6.43 -7.55)"/><path class="c" d="M227.84,74l-4.28.34c-6.34,0-8.22-3.71-8.22-9.49V48H210.2V44.5h5.14V37.3l4.45-.46V44.5h6.45V48h-6.45V65.59c0,3.37,1,5.14,4.63,5.14l3.43-.29Z" transform="translate(-6.43 -7.55)"/><path class="e" d="M96.54,50.23c-3.71,0-5.14,2.74-5.42,6.06H101.4c-.17-3.14-1.2-6.06-4.85-6.06" transform="translate(-6.43 -7.55)"/><path class="f" d="M96.72,68.92c2.57,0,5.14-1.89,5.14-4.57l4,.29V61.26H91.18l-.06,1.43c0,3.43,1.94,6.23,5.6,6.23" transform="translate(-6.43 -7.55)"/><path class="e" d="M96.2,44.75a13.51,13.51,0,0,1,9.62,4V7.55H56.48V57H82.36c1.14-7,6-12.21,13.84-12.21" transform="translate(-6.43 -7.55)"/><path class="f" d="M96.43,74.92c-8.68,0-14.33-6.06-14.33-14.69A20.34,20.34,0,0,1,82.36,57H56.48v49.4h49.34v-35a13.34,13.34,0,0,1-9.39,3.56" transform="translate(-6.43 -7.55)"/></g><rect class="g" x="0.71" y="49.4" width="49.34" height="49.4"/><rect class="h" x="0.71" width="49.34" height="49.4"/><polygon class="d" points="41.94 59.03 41.94 66.8 17.05 66.8 17.05 27.59 26.18 27.59 26.18 59.03 41.94 59.03"/><path class="d" d="M60.24,74.35H51.85v-29h8.39Zm0-31.67H51.85V34.57h8.39Z" transform="translate(-6.43 -7.55)"/><g class="b"><path class="d" d="M75.88,74.35H67.49V52.58H64.12V46.06h3.37c0-2.51-.11-5.54,1.31-7.72,1.77-2.63,5.08-3.83,8.16-3.83a29.8,29.8,0,0,1,4.79.4v6.46a19.69,19.69,0,0,0-3.2-.17c-2.68,0-2.68,1.77-2.68,4.23v.63H81v6.52H75.88Z" transform="translate(-6.43 -7.55)"/><path class="c" d="M118.22,61.6" transform="translate(-6.43 -7.55)"/></g><rect class="d" x="0.71" width="98.69" height="98.8"/><g class="b"><path class="c" d="M115.09,62.22c1.6,5.43,6.11,7.95,11.59,7.95,2.34,0,5.2-.51,7-1.94a6.55,6.55,0,0,0,2.4-5c0-3.94-3.25-5.55-6.68-6.4l-6.51-1.6c-2.63-.63-5-1.26-7.08-3.14a9.74,9.74,0,0,1-3.2-7.26c0-7.55,6.51-10.8,13.3-10.8,6.57,0,11.82,3.26,13.93,9.6l-4.45,1.2c-.86-4.29-5.42-6.92-9.59-6.92-3.71,0-8.39,1.94-8.39,6.23s3.43,5.37,7.08,6.23l5.88,1.43a16,16,0,0,1,7.14,3,9.66,9.66,0,0,1,3.65,7.77,11,11,0,0,1-4.4,8.92c-2.86,2.17-6.68,2.86-10.22,2.86-8,0-13.24-3.54-15.87-11.14Z" transform="translate(-6.43 -7.55)"/></g><path class="c" d="M151.06,73.77H146.6v-29h4.45Zm.23-34.18h-4.91v-5h4.91Z" transform="translate(-6.43 -7.55)"/><g class="b"><path class="c" d="M167.67,60.33a6.09,6.09,0,0,0,6.45-6.46,6.32,6.32,0,0,0-6.45-6.34,6.24,6.24,0,0,0-6.51,6.4c0,3.94,2.57,6.4,6.51,6.4m.57,20.92A20.57,20.57,0,0,0,175.72,80c1.6-.74,2.51-1.66,2.51-3.43,0-2.8-3.14-3.32-6.17-3.49-1.71-.11-6.68-.06-9.82-.46-1.71.8-3.14,1.89-3.14,3.94,0,4,6.17,4.69,9.14,4.69M167.67,44a14,14,0,0,1,5.88,1.26c.74-4.11,2.74-5,6.68-5l1.14.06.06,3.6H181c-2.63,0-4.68.29-5.14,3.32a10.7,10.7,0,0,1,2.8,7.14,9.49,9.49,0,0,1-3.71,7.26,12.05,12.05,0,0,1-7.36,2.23c-1.31,0-2.86-.46-3.94-.46-1.37,0-3.08,1.2-3.08,2.69a2.47,2.47,0,0,0,2.17,2.46,45.48,45.48,0,0,0,6.85.46c2.51.11,6.22.17,8.51,1a6.85,6.85,0,0,1,4.45,6.4c0,7.37-8.74,8.35-14.33,8.35-2.68,0-6-.11-8.51-1.14-2.8-1.14-5-3.2-5-6.4,0-3,1.65-4.92,4.39-5.89-1.65-1.09-2.8-2.4-2.8-4.57,0-2.86,1.66-4.12,4-5.2a9.4,9.4,0,0,1-3.77-7.66c0-6.29,5.31-9.89,11.13-9.89" transform="translate(-6.43 -7.55)"/><path class="c" d="M203.23,73.77V56.85a17.94,17.94,0,0,0-.63-5.77,5.35,5.35,0,0,0-5.2-3.43,8,8,0,0,0-5.88,3.09c-2,2.4-2.23,5.09-2.23,8.12V73.77h-4.45V34.56h4.45V50.1h.17c1.83-3.89,4.51-6.12,9-6.12A8.92,8.92,0,0,1,206.15,48c1.77,2.86,1.54,5.6,1.54,8.8V73.77Z" transform="translate(-6.43 -7.55)"/><path class="c" d="M227.84,74l-4.28.34c-6.34,0-8.22-3.71-8.22-9.49V48H210.2V44.5h5.14V37.3l4.45-.46V44.5h6.45V48h-6.45V65.59c0,3.37,1,5.14,4.63,5.14l3.43-.29Z" transform="translate(-6.43 -7.55)"/><path class="i" d="M96.54,50.23c-3.71,0-5.14,2.74-5.42,6.06H101.4c-.17-3.14-1.2-6.06-4.85-6.06" transform="translate(-6.43 -7.55)"/><path class="j" d="M96.72,68.92c2.57,0,5.14-1.89,5.14-4.57l4,.29V61.26H91.18l-.06,1.43c0,3.43,1.94,6.23,5.6,6.23" transform="translate(-6.43 -7.55)"/><path class="i" d="M96.2,44.75a13.51,13.51,0,0,1,9.62,4V7.55H56.48V57H82.36c1.14-7,6-12.21,13.84-12.21" transform="translate(-6.43 -7.55)"/><path class="j" d="M96.43,74.92c-8.68,0-14.33-6.06-14.33-14.69A20.34,20.34,0,0,1,82.36,57H56.48v49.4h49.34v-35a13.34,13.34,0,0,1-9.39,3.56" transform="translate(-6.43 -7.55)"/></g><rect class="k" x="0.71" y="49.4" width="49.34" height="49.4"/><rect class="l" x="0.71" width="49.34" height="49.4"/><polygon class="d" points="41.94 59.03 41.94 66.8 17.05 66.8 17.05 27.59 26.18 27.59 26.18 59.03 41.94 59.03"/><path class="d" d="M60.24,74.35H51.85v-29h8.39Zm0-31.67H51.85V34.57h8.39Z" transform="translate(-6.43 -7.55)"/><g class="b"><path class="d" d="M75.88,74.35H67.49V52.58H64.12V46.06h3.37c0-2.51-.11-5.54,1.31-7.72,1.77-2.63,5.08-3.83,8.16-3.83a29.8,29.8,0,0,1,4.79.4v6.46a19.69,19.69,0,0,0-3.2-.17c-2.68,0-2.68,1.77-2.68,4.23v.63H81v6.52H75.88Z" transform="translate(-6.43 -7.55)"/><path class="c" d="M105,119.92h2.55l1.6,6.11c.24,1.05.53,2.69.53,2.69h0s.31-1.53.57-2.62l1.34-6.18H114l1.34,6.16c.26,1.08.57,2.63.57,2.63h0s.36-1.63.6-2.7l1.55-6.09h2.46l-3.51,12.31h-2.32l-1.5-6.59c-.21-.9-.43-2.19-.43-2.19h0s-.19,1.29-.4,2.19l-1.51,6.59h-2.31Zm20.59,11.33a2.41,2.41,0,0,0,.28,1h2.26v-.09c-.21-.15-.31-.55-.31-1.22v-4.49c0-2.07-1.07-3.25-3.72-3.25s-3.74,1.36-3.8,2.91h2.08c.07-.84.6-1.24,1.71-1.24s1.48.41,1.48,1.05-.67.79-2.13,1c-2,.28-3.55.9-3.55,2.84,0,1.76,1.28,2.7,3.08,2.7a2.7,2.7,0,0,0,2.6-1.19Zm0-2.13a1.85,1.85,0,0,1-2.08,1.69c-.83,0-1.38-.29-1.38-1.12s.6-1.1,1.82-1.38a6.49,6.49,0,0,0,1.63-.51Zm3.18-4.17H130v5.18c0,1.67,1.26,2.12,2.39,2.12.93,0,1.46,0,1.46,0v-1.72l-.69,0a.77.77,0,0,1-.88-.88v-4.68h1.52v-1.55h-1.52v-2.75H130v2.75h-1.22Zm6,4.43c.14,1.88,1.57,3.11,4.13,3.11,2.2,0,3.72-1.07,3.72-2.84,0-2.07-1.63-2.48-3.12-2.79-1.26-.26-2.42-.33-2.42-1.08s.6-1,1.51-1,1.6.35,1.7,1.29h2.12c-.17-1.77-1.46-2.93-3.79-2.93-2,0-3.6.91-3.6,2.82s1.55,2.36,3.13,2.67c1.21.24,2.32.33,2.32,1.17,0,.62-.58,1-1.62,1a1.7,1.7,0,0,1-1.93-1.46Zm8.71-1.55a4.61,4.61,0,1,0,4.61-4.66,4.49,4.49,0,0,0-4.61,4.66m6.85,0c0,1.72-.81,2.87-2.24,2.87s-2.24-1.15-2.24-2.87.79-2.89,2.24-2.89,2.24,1.17,2.24,2.89m5.9-4.42h-2.29v8.83h2.34v-5a1.84,1.84,0,0,1,1.79-2,1.47,1.47,0,0,1,1.53,1.62v5.42h2.34v-5.77a3,3,0,0,0-3-3.3,2.87,2.87,0,0,0-2.62,1.45h-.05ZM48.75,119.92V122h3.7v10.21h2.49V122h3.7v-2.1Zm7.92,7.9a4.61,4.61,0,1,0,4.61-4.66,4.49,4.49,0,0,0-4.61,4.66m6.85,0c0,1.72-.81,2.87-2.24,2.87S59,129.54,59,127.82s.79-2.89,2.24-2.89,2.24,1.17,2.24,2.89m5.29,4.41h2.12l1.21-4.34.41-1.53h0s.21.82.4,1.53l1.17,4.34h2.13l2.63-8.83H76.64l-1.12,4.1c-.19.72-.4,1.65-.4,1.65h0s-.23-.93-.41-1.67l-1.15-4.08h-2l-1.1,4.08c-.19.72-.38,1.67-.38,1.67h0s-.21-.93-.4-1.65l-1.07-4.1H66.23Zm10.41-4.43a4.37,4.37,0,0,0,4.58,4.68,3.79,3.79,0,0,0,4-2.89H85.49a1.64,1.64,0,0,1-1.7,1.08,2.19,2.19,0,0,1-2.26-2.2h6.4c0-3.15-1.52-5.32-4.36-5.32a4.37,4.37,0,0,0-4.36,4.65m2.34-.95a2,2,0,0,1,2-1.89,1.86,1.86,0,0,1,1.88,1.89Zm10-3.46H89.31v8.83h2.34v-4.3a2.23,2.23,0,0,1,2.63-2.51h0v-2a1.56,1.56,0,0,0-.55-.07,2.32,2.32,0,0,0-2.17,1.51h-.05Zm3.38,6c.14,1.88,1.57,3.12,4.13,3.12,2.2,0,3.72-1.07,3.72-2.84,0-2.07-1.64-2.48-3.12-2.79-1.26-.26-2.42-.33-2.42-1.08s.6-1,1.51-1,1.6.34,1.7,1.29h2.12c-.17-1.77-1.46-2.92-3.79-2.92-2,0-3.6.91-3.6,2.82s1.55,2.36,3.13,2.67c1.21.24,2.32.33,2.32,1.17,0,.62-.58,1-1.62,1a1.7,1.7,0,0,1-1.93-1.46ZM10,132.22h2.31l1.51-6.59c.21-.9.4-2.19.4-2.19h0s.22,1.29.43,2.19l1.5,6.59h2.32L22,119.92H19.56L18,126c-.24,1.07-.6,2.7-.6,2.7h0s-.31-1.55-.57-2.63l-1.34-6.16H13.05l-1.34,6.18c-.26,1.09-.57,2.62-.57,2.62h0s-.29-1.63-.53-2.69L9,119.92H6.43Zm13-12.3h2.34V122H23Zm0,3.48h2.34v8.83H23Zm4.26,8.83h2.34v-12.3H27.24Zm4.26,0h2.34v-12.3H31.5Zm4.25-12.3h2.34V122H35.75Zm0,3.48h2.34v8.83H35.75Zm3.66,6c.14,1.88,1.57,3.11,4.13,3.11,2.2,0,3.72-1.07,3.72-2.84,0-2.07-1.64-2.48-3.12-2.79-1.26-.26-2.43-.33-2.43-1.08s.6-1,1.51-1,1.6.35,1.71,1.29h2.12c-.17-1.77-1.46-2.93-3.79-2.93-2,0-3.6.91-3.6,2.82s1.55,2.36,3.13,2.67c1.21.24,2.32.33,2.32,1.17,0,.62-.59,1-1.62,1a1.7,1.7,0,0,1-1.93-1.46Zm133,2.86h4.11V119.92h-4.11Zm12.3,0h4.11V119.92h-4.11Zm-6.15,0h4.11v-6.16h-4.11Zm32.15,0h4.11V119.92h-4.11Zm12.3,0h4.11V119.92H223Zm-6.15,0H221v-6.16h-4.11Zm-19.15,0h4.11V119.92h-4.11Zm-6.15-6.16h4.11v-6.16h-4.11Zm12.3,0H208v-6.16h-4.11Z" transform="translate(-6.43 -7.55)"/></g></svg>