<svg
  width="73"
  height="16"
  xmlns="http://www.w3.org/2000/svg"
  version="1.1"
  viewBox="0 0 73 16">
  <path
     fill="#ccafe0"
     d="M 5.31156 15.8637 C 2.98689 15.3652 1.02799 14.0871 0.279988 12.5807 C 0.028611 12.0745 7.55906e-05 11.9258 5.76967e-16 11.1226 C -7.55906e-05 10.3025 0.0251339 10.1776 0.303836 9.61958 C 0.895144 8.43565 1.97227 7.56076 4.18247 6.46961 C 5.06654 6.03326 6.20051 5.52684 6.70235 5.34452 C 7.20424 5.16235 7.9956 4.86482 8.46097 4.68382 C 10.0809 4.05328 12.708 3.49429 15.5889 3.16713 C 17.8443 2.91126 23.6767 2.94225 28.4385 3.23516 C 33.2111 3.52959 40.5867 3.55945 44.3886 3.29828 C 50.1236 2.90563 56.7379 1.8604 62.7998 0.389027 C 64.3593 0.0118299 64.4378 0.00120945 66.0432 7.34321e-16 C 67.8182 -0.00136063 68.392 0.0907087 69.6019 0.571276 C 71.6844 1.39824 73 3.16271 73 5.12852 C 73 6.03504 72.7075 6.64887 71.8998 7.43743 C 71.5161 7.81199 71.1559 8.11851 71.0994 8.11851 C 71.0428 8.11851 70.8561 8.22584 70.6844 8.35624 C 70.2925 8.65444 68.719 9.29061 67.918 9.47385 C 67.585 9.55019 66.9527 9.70137 66.5133 9.8072 C 58.4206 11.7817 49.8198 12.9047 40.4876 13.2054 C 36.6069 13.3309 33.8296 13.2553 27.8274 12.8588 C 25.8626 12.7292 23.0254 12.5969 21.5225 12.564 C 18.357 12.4963 17.2102 12.6071 15.3802 13.1616 C 14.1839 13.5237 13.8742 13.665 12.4565 14.4944 C 10.4736 15.6543 9.23479 16.0085 7.1918 15.9998 C 6.48325 15.9964 5.65274 15.9352 5.31156 15.8626 L 5.31156 15.8637 Z" />
</svg>
