<svg
  width="82"
  height="19"
  xmlns="http://www.w3.org/2000/svg"
  version="1.1"
  viewBox="0 0 82 19">
    <path
       d="M 73.226256,18.111622 C 71.621375,17.248824 71.58953,17.244356 64.29363,16.858352 60.26653,16.64529 53.972819,16.271954 50.307605,16.028717 46.642394,15.78548 41.47423,15.468799 38.8228,15.324983 36.171369,15.181166 33.555386,14.995126 33.009503,14.911561 32.463621,14.827995 29.209592,14.626973 25.778329,14.464843 22.347065,14.302714 17.051294,14.037037 14.009947,13.874452 10.968599,13.711868 7.1790637,13.555282 5.5887545,13.526483 3.1496732,13.482315 2.5728989,13.381403 1.9022736,12.881492 0.49242068,11.830531 -0.03031402,10.592083 0.00134858,8.3778719 0.05132328,4.8830971 1.9117347,1.2818817 4.1753147,0.29828717 5.3395224,-0.20759643 5.8516648,-0.18947633 32.584141,1.3034257 47.556923,2.1395955 62.74239,2.9589752 66.32962,3.1242694 c 3.587228,0.1652939 7.415498,0.4889363 8.507264,0.7192051 2.598007,0.547957 5.339663,1.9125222 6.255683,3.1135517 2.007719,2.6324027 0.516611,8.5269348 -2.829775,11.1864578 -1.449122,1.15168 -2.851547,1.142808 -5.036536,-0.03187 z"
       fill="#6cf47b" />
</svg>