<svg
   width="159"
   height="98"
   version="1.1"
   xmlns="http://www.w3.org/2000/svg"
   xmlns:svg="http://www.w3.org/2000/svg">
  <path
     fill="#ebdff3"
     d="M 142.30522,97.542009 C 138.63183,96.53639 135.93993,93.73765 122.55923,77.011767 109.01424,60.082016 99.863468,47.75127 93.61765,38.011124 c -2.58992,-4.038198 -4.907073,-7.342001 -5.149304,-7.342001 -0.416882,0 -21.106015,18.3834 -30.395828,27.007791 C 34.725241,79.352466 20.85891,91.832731 18.995338,92.845267 16.271924,94.326539 10.094362,94.487206 6.9177826,93.162747 5.6497889,92.632668 3.5744881,91.017411 2.3061166,89.572346 0.33051968,87.321827 0,86.408088 0,83.187477 0,77.911559 0.00982678,77.905134 22.459503,57.384303 c 4.70589,-4.30095 8.716573,-7.984668 8.912504,-8.185135 C 31.88126,48.676007 54.145209,28.491777 61.334361,22.034532 64.658758,19.049688 71.205619,13.164093 75.8832,8.9566109 80.560593,4.7502614 85.153626,1.0172975 86.089814,0.66088811 c 3.008466,-1.14455435 9.505965,-0.7480063 12.641727,0.76939839 2.516629,1.2177638 3.565799,2.5396158 7.499989,9.4470415 9.28129,16.297778 23.76785,36.628234 41.86601,58.759257 5.08188,6.213733 9.61441,12.00034 10.07131,12.855609 0.45689,0.857537 0.83115,3.15912 0.83115,5.114571 0,3.903572 -2.00199,7.100221 -5.62061,8.969765 -2.71699,1.405454 -7.84293,1.853214 -11.07417,0.967217 z" />
</svg>
