<svg
  width="130"
  height="19"
  xmlns="http://www.w3.org/2000/svg"
  version="1.1"
  viewBox="0 0 130 19">
    <path
      d="M 11.196346,18.742945 C 7.0464624,18.271785 3.5131256,17.164175 2.0432802,15.873698 -0.85068932,13.332887 -0.640399,8.5445689 2.4825469,5.8715778 3.6484184,4.8736854 5.5837263,4.1490634 7.0830086,4.1490634 c 0.4891104,0 1.8499723,0.2603801 3.0241364,0.5786226 1.776103,0.4813896 2.793765,0.5761061 6.056017,0.5636494 7.060122,-0.02696 54.813531,-2.3442942 75.025064,-3.6407496 16.104794,-1.03303167 21.923794,-1.37942097 26.271844,-1.56389117 3.88262,-0.164724 4.13975,-0.1437454 6.15566,0.5022181 1.15709,0.3707679 2.64217,1.03070807 3.30017,1.46653427 4.33168,2.8690383 4.04394,9.355473 -0.50742,11.439057 -1.72158,0.788121 3.23225,0.506193 -51.558465,2.934244 -22.64476,1.003504 -44.230804,2.003575 -47.968987,2.222379 -7.395252,0.432862 -12.421685,0.462286 -15.684682,0.09182 z"
      fill="#fde3ac" />
</svg>
