<svg
  width="248"
  height="23"
  xmlns="http://www.w3.org/2000/svg"
  version="1.1"
  viewBox="0 0 248 23">
    <path
      d="M 11.610245,22.768789 C 4.679378,21.752107 -0.0374877,18.184554 2.2450199e-4,13.987655 0.0274851,10.954104 2.4291771,8.66567 6.7797034,7.5278795 8.9120772,6.9702018 13.384699,6.7609981 45.014247,5.7394886 51.063594,5.5441192 59.0045,5.2715391 62.660692,5.1337571 68.561469,4.9113882 100.56969,3.8131584 168.05591,1.5175588 179.8222,1.1173182 193.31086,0.61158128 198.03066,0.39369958 c 10.25272,-0.47329586 24.16922,-0.52938323 28.88702,-0.1164226 7.53814,0.6598307 12.96957,1.66945302 15.74094,2.92601592 8.05789,3.6535232 6.77123,11.2461641 -2.32479,13.7184961 -2.08975,0.567995 -7.97454,0.556327 -10.75713,-0.02134 -3.95596,-0.821283 -9.38526,-0.973451 -19.45943,-0.545407 -15.70063,0.667115 -191.51285,6.676238 -194.411567,6.644835 -1.49653,-0.01629 -3.339479,-0.120218 -4.095458,-0.231098 z"
      fill="#6cf47b" />
</svg>
