<svg
   width="121"
   height="21"
   xmlns="http://www.w3.org/2000/svg"
   version="1.1"
   viewBox="0 0 121 21">
   <path
      d="M 2.1779022,20.960868 C 1.5129757,20.853113 0.62451068,19.933359 0.50384791,19.227855 0.47201752,19.041693 0.3966472,18.780586 0.33637813,18.647611 0.22342392,18.39841 0.12263347,17.540222 0.01834763,15.939803 -0.15029189,13.351773 0.86611126,9.5319626 2.1405099,7.9643561 2.7986109,7.1548436 3.0109713,7.0222641 3.7908011,6.9340531 5.512648,6.7392837 7.9544641,6.664726 14.187457,6.616579 17.869585,6.588076 21.886449,6.521843 23.113826,6.4692942 24.3412,6.4167452 27.572158,6.3266063 30.293731,6.2689935 c 2.72157,-0.057613 5.47225,-0.1450645 6.112622,-0.1943021 0.640371,-0.049238 2.670637,-0.135287 4.511693,-0.1912247 1.841077,-0.055938 4.176969,-0.1455706 5.190876,-0.1991323 1.013931,-0.0536 3.167653,-0.1610352 4.786101,-0.2388261 1.618419,-0.077791 2.972689,-0.1599838 3.009461,-0.182616 0.03666,-0.02245 1.157631,-0.088114 2.49083,-0.1454928 1.333156,-0.057379 3.428174,-0.1706959 4.655558,-0.2518368 5.091996,-0.3366786 6.976377,-0.4539414 8.586769,-0.5343966 0.933881,-0.046627 2.440189,-0.1502842 3.347387,-0.2302955 0.907195,-0.080011 2.173388,-0.1699948 2.813753,-0.1999893 0.640365,-0.030123 1.513598,-0.097034 1.940528,-0.1489596 0.426892,-0.051926 1.818405,-0.1602563 3.092197,-0.2406962 1.273793,-0.080451 2.345453,-0.1644282 2.38149,-0.1866085 0.03592,-0.022193 0.871283,-0.087222 1.856108,-0.1445308 0.984832,-0.057309 2.161747,-0.1479897 2.61537,-0.2015122 0.453615,-0.053522 1.709842,-0.1599446 2.791665,-0.236493 1.08183,-0.076544 2.001022,-0.1601355 2.042587,-0.1857594 0.0417,-0.025637 0.72828,-0.095063 1.525943,-0.1543119 0.7977,-0.059253 1.952445,-0.1680588 2.566125,-0.2417946 0.61368,-0.07374 1.574242,-0.1629169 2.13456,-0.1981819 0.56031,-0.035275 1.234912,-0.103812 1.499056,-0.1523252 0.26411,-0.048513 1.37059,-0.1528395 2.45873,-0.231838 1.08814,-0.078995 2.01057,-0.163431 2.04987,-0.187637 0.0394,-0.024193 0.6575,-0.090992 1.37379,-0.1484104 0.71629,-0.057422 1.69532,-0.1653436 2.17557,-0.2398313 0.48026,-0.0744877 1.30987,-0.16209103 1.8435,-0.194672 0.53363,-0.0325755 1.45052,-0.12163742 2.03752,-0.19789746 0.58699,-0.07626 1.52575,-0.18205101 2.08606,-0.2350906 0.56031,-0.0530357 1.63002,-0.16553845 2.37712,-0.24999828 1.77965,-0.20120073 2.52908,-0.16336871 2.99664,0.15127353 0.71792,0.48312796 1.06988,1.36365021 1.27457,3.18895231 0.3689,3.2897131 -0.53518,7.3901702 -2.07876,9.4278722 -0.69557,0.918272 -1.1641,1.180311 -2.33798,1.307655 -0.40021,0.04343 -1.18615,0.128353 -1.74646,0.188732 -0.56031,0.06038 -1.21524,0.154062 -1.45539,0.208131 -0.23996,0.05407 -1.19188,0.159477 -2.11497,0.23419 -0.92309,0.07472 -1.70968,0.155231 -1.74805,0.178838 -0.0384,0.02381 -0.6803,0.09213 -1.42649,0.152193 -0.74625,0.06011 -1.59692,0.15079 -1.89039,0.201508 -0.29333,0.05072 -1.33379,0.157062 -2.31173,0.236255 -0.97793,0.07919 -1.81034,0.163918 -1.8498,0.188226 -0.0394,0.02449 -0.72384,0.09189 -1.52084,0.150167 -0.796951,0.05828 -1.711006,0.145531 -2.031211,0.193873 -0.320198,0.04834 -1.21524,0.13404 -1.989023,0.190524 -0.773775,0.05645 -1.95264,0.167151 -2.61969,0.245994 -1.780035,0.210429 -4.144462,0.424191 -6.433627,0.581651 -1.11042,0.07639 -2.052788,0.159711 -2.094158,0.185226 -0.04133,0.02567 -1.17972,0.114446 -2.529705,0.19773 -1.349985,0.08328 -2.483505,0.169294 -2.518912,0.191107 -0.03518,0.02162 -0.870195,0.08698 -1.855028,0.144831 -0.984832,0.05785 -2.336415,0.166567 -3.003458,0.24167 -0.667049,0.07506 -1.955059,0.164035 -2.862257,0.197691 -0.907195,0.03375 -2.282542,0.120679 -3.056321,0.193406 -0.77378,0.07273 -2.083644,0.158426 -2.91079,0.190406 -0.827149,0.03208 -1.853192,0.09953 -2.280089,0.150051 -0.426895,0.05052 -2.147877,0.159789 -3.824336,0.242799 -1.676497,0.08301 -3.077241,0.168866 -3.112844,0.190797 -0.03515,0.02173 -1.218128,0.08695 -2.627868,0.14448 -1.409742,0.05758 -2.977986,0.144558 -3.484933,0.193328 -0.506947,0.04881 -2.078773,0.135325 -3.492918,0.192238 -1.414182,0.05695 -3.290745,0.147362 -4.170238,0.200884 -0.879501,0.05356 -3.018927,0.139533 -4.754269,0.19103 -1.735362,0.05153 -4.028432,0.139182 -5.095714,0.19477 -1.067284,0.05559 -4.603871,0.163217 -7.859086,0.239099 -3.255213,0.07592 -7.337573,0.181564 -9.071908,0.234736 -3.69892,0.113434 -14.0494179,0.180278 -14.5807361,0.09415 z"
      fill="#ffb5eb" />
</svg>
