<svg
  width="160"
  height="14.239608"
  xmlns="http://www.w3.org/2000/svg"
  version="1.1">
  <style>
    #words { mix-blend-mode: multiply; }
  </style>
  <path
    id="stripe"
    fill="#ffb5eb"
    d="m146.35921,13.93179c-0.66354,-0.05479 -2.97988,-0.10954 -5.14746,-0.12163c-11.59455,-0.06467 -54.10078,-1.13123 -68.04292,-1.70732c-1.01743,-0.04202 -4.8177,-0.18627 -8.44505,-0.32051c-3.62735,-0.13423 -7.17427,-0.31677 -7.88204,-0.40563c-0.70778,-0.08886 -2.08413,-0.16147 -3.05857,-0.16135c-1.92715,0.00023 -7.71863,-0.22756 -12.06208,-0.47441c-1.50403,-0.08548 -4.18231,-0.23477 -5.95175,-0.33177c-1.76944,-0.09699 -4.52011,-0.25211 -6.1126,-0.3447c-1.5925,-0.09258 -3.586,-0.1924 -4.43002,-0.2218c-2.32379,-0.08097 -11.45928,-0.53248 -14.55123,-0.71916c-1.50402,-0.09081 -4.10992,-0.23898 -5.79089,-0.32927c-3.55719,-0.19106 -4.27784,-0.40859 -4.69973,-1.41863c-0.58226,-1.39397 0.24428,-3.5304 2.00886,-5.19249c1.5113,-1.42353 2.78458,-2.07345 4.26573,-2.17738c0.63785,-0.04477 5.61147,0.17747 11.0525,0.49385c10.21718,0.5941 25.81124,1.40805 32.57374,1.70022c2.12333,0.09174 5.16354,0.23723 6.75604,0.32333c5.7056,0.30847 28.68958,1.14198 44.39681,1.61003c3.09653,0.09227 8.05496,0.24145 11.01878,0.33151c5.24965,0.15953 11.16093,0.26983 34.66489,0.64678c8.8343,0.14169 11.53852,0.23194 11.94017,0.39852c1.81764,0.75379 1.41054,3.45536 -0.88801,5.89268c-1.1676,1.23812 -2.59345,2.1268 -3.81852,2.37998c-0.94075,0.19441 -6.06247,0.2924 -7.79665,0.14915z" />
  <text id="words" fill="#7f35b2" font-family="'Franklin Gothic Book'" font-weight="bold" font-size="14.75px" y="11.75" x="4" xml:space="preserve">relationship with money</text>
</svg>