<?xml version="1.0" standalone="no"?>
<!DOCTYPE svg PUBLIC "-//W3C//DTD SVG 1.1//EN" "http://www.w3.org/Graphics/SVG/1.1/DTD/svg11.dtd" >
<svg xmlns="http://www.w3.org/2000/svg" xmlns:xlink="http://www.w3.org/1999/xlink" version="1.1">
<metadata></metadata>
<defs>
<font id="franklingothicmed" horiz-adv-x="587" >
<font-face units-per-em="1000" ascent="774" descent="-226" />
<missing-glyph horiz-adv-x="250" />
<glyph unicode="&#xd;" horiz-adv-x="333" />
<glyph unicode=" "  horiz-adv-x="250" />
<glyph unicode="&#x09;" horiz-adv-x="250" />
<glyph unicode="&#xa0;" horiz-adv-x="250" />
<glyph unicode="!" horiz-adv-x="275" d="M199 122v-122h-122v122h122zM214 667l-49 -465h-51l-47 465h147z" />
<glyph unicode="&#x22;" horiz-adv-x="378" d="M145 399h-77l-16 268h109zM309 399h-76l-17 268h110z" />
<glyph unicode="#" d="M562 485l-17 -94h-97l-18 -102h97l-17 -94h-98l-34 -195h-91l35 195h-106l-35 -195h-92l35 196h-100l16 93h102l18 102h-101l17 94h101l32 182h91l-32 -182h105l32 182h91l-33 -182h99zM356 391h-105l-18 -102h105z" />
<glyph unicode="$" d="M321 -85h-66v90q-89 7 -149.5 53t-82.5 123l105 24q12 -50 46 -79.5t81 -31.5v193q-80 20 -119 39q-42 20 -65 58.5t-23 87.5q0 59 30.5 103.5t86.5 65.5q38 15 90 21v70h66v-70q73 -9 125.5 -50t66.5 -100l-99 -21q-15 41 -35.5 59t-57.5 22v-171l27 -7q67 -18 97 -32.5 t50 -39.5q41 -49 41 -119q0 -103 -82 -156q-50 -33 -133 -42v-90zM255 408v164q-47 -1 -73 -22.5t-26 -60.5q0 -35 23 -54t76 -27zM321 281v-187q50 3 79 28.5t29 67.5q0 37 -26 59t-82 32z" />
<glyph unicode="%" horiz-adv-x="771" d="M587 366q74 0 119 -64q34 -47 34 -124q0 -82 -44 -133t-115 -51q-67 0 -109.5 50.5t-42.5 129.5q0 83 45 137.5t113 54.5zM589 293q-33 0 -51 -29.5t-18 -84.5q0 -114 66 -114q31 0 48 31t17 88q0 109 -62 109zM630 667l-413 -667h-74l414 667h73zM188 673q67 0 107 -40 q50 -53 50 -149q0 -78 -45 -130t-113 -52t-111.5 53t-43.5 136q0 80 43.5 131t112.5 51zM190 602q-66 0 -66 -111q0 -117 63 -117q32 0 50 28t18 80q0 120 -65 120z" />
<glyph unicode="&#x26;" horiz-adv-x="717" d="M597 404l100 -17q-22 -146 -118 -252q32 -34 47.5 -43.5t41.5 -9.5q14 0 29 2v-93q-34 -1 -46 -1q-47 0 -76 13.5t-73 57.5q-101 -71 -219 -71q-108 0 -179.5 59.5t-71.5 149.5q0 88 68 145q32 26 105 60q-35 43 -46.5 68.5t-11.5 58.5q0 65 48.5 105.5t125.5 40.5 q79 0 128 -40t49 -104q0 -105 -130 -162l145 -165q68 86 84 198zM438 135l-175 196q-33 -14 -66 -45q-33 -30 -33 -80q0 -53 38 -86t99 -33q73 0 137 48zM314 443q85 37 85 88q0 27 -19.5 44t-49.5 17t-50.5 -17t-20.5 -42q0 -41 55 -90z" />
<glyph unicode="'" horiz-adv-x="214" d="M145 399h-77l-16 268h109z" />
<glyph unicode="(" horiz-adv-x="293" d="M266 -167h-66q-168 183 -168 426q0 137 63 259q51 99 105 149h66q-51 -76 -66 -102t-31 -69q-44 -118 -44 -241q0 -235 141 -422z" />
<glyph unicode=")" horiz-adv-x="293" d="M27 667h66q169 -186 169 -426q0 -137 -63 -259q-53 -100 -106 -149h-66q50 75 65.5 101.5t31.5 69.5q44 116 44 241q0 235 -141 422z" />
<glyph unicode="*" d="M340 673l-12 -166l152 57l24 -88l-155 -34l99 -122l-77 -52l-77 134l-78 -134l-76 52l99 122l-155 34l24 88l151 -57l-11 166h92z" />
<glyph unicode="+" d="M540 383v-93h-200v-207h-93v207h-201v93h201v208h93v-208h200z" />
<glyph unicode="," horiz-adv-x="241" d="M181 125v-112l-78 -156h-43l58 143h-58v125h121z" />
<glyph unicode="-" horiz-adv-x="241" d="M243 299v-91h-245v91h245z" />
<glyph unicode="." horiz-adv-x="241" d="M181 128v-128h-121v128h121z" />
<glyph unicode="/" horiz-adv-x="479" d="M450 667l-437 -834h-69l434 834h72z" />
<glyph unicode="0" d="M291 677q121 0 190.5 -93.5t69.5 -255.5q0 -127 -56 -221q-66 -117 -204 -117q-119 0 -187.5 91t-68.5 248q0 159 70 251q72 97 186 97zM294 588q-137 0 -137 -251q0 -130 32.5 -191.5t101.5 -61.5q136 0 136 245q0 109 -23 173q-17 45 -43 65.5t-67 20.5z" />
<glyph unicode="1" d="M578 0h-510v98h201v422q-98 -88 -182 -121v121q64 24 89.5 37t54.5 38q60 52 79 85h80v-582h188v-98z" />
<glyph unicode="2" d="M533 104v-104h-491v117l125 83q90 59 117 79t60 52q62 61 62 124q0 51 -33.5 84t-84.5 33q-113 0 -130 -139l-116 29q15 80 61 133q72 82 190 82q109 0 175.5 -61.5t66.5 -162.5q0 -108 -101 -191q-37 -31 -68.5 -50.5t-179.5 -107.5h347z" />
<glyph unicode="3" d="M210 294v95h61q59 0 93.5 26.5t34.5 71.5q0 44 -29.5 69.5t-81.5 25.5q-51 0 -82.5 -23t-51.5 -75l-110 20q20 79 87.5 126t160.5 47q100 0 163.5 -50t63.5 -129q0 -61 -34 -102.5t-90 -48.5q69 -13 107 -55t38 -106q0 -87 -70.5 -141.5t-182.5 -54.5q-124 0 -202 77 q-45 43 -60 100l113 28q34 -111 148 -111q57 0 93.5 29t36.5 75q0 25 -14 50t-36 39q-28 17 -74 17h-82z" />
<glyph unicode="4" d="M453 0h-123v151h-296v88l296 441h123v-426h100v-103h-100v-151zM339 555l-189 -301h180v184q0 28 9 117z" />
<glyph unicode="5" d="M106 667h414l-10 -103h-316l-19 -194q35 42 70.5 59.5t85.5 17.5q96 0 163 -65.5t67 -159.5q0 -89 -62 -156q-73 -76 -198 -76q-134 0 -209 78q-35 36 -53 104l115 18q34 -102 141 -102q61 0 98.5 37t37.5 98q0 57 -35.5 94.5t-90.5 37.5q-86 0 -130 -77l-107 21z" />
<glyph unicode="6" d="M531 515l-102 -20q-17 50 -44.5 72t-73.5 22q-52 0 -84.5 -28t-50.5 -89q-17 -54 -17 -115v-29q27 47 57 67q48 33 117 33q95 0 157.5 -60t62.5 -151q0 -99 -68 -163t-173 -64q-126 0 -199.5 90.5t-73.5 245.5q0 161 72.5 256t195.5 95q54 0 101.5 -18.5t76.5 -51.5 q30 -34 46 -92zM305 335q-54 0 -89.5 -37t-35.5 -93q0 -57 36 -92t94 -35q56 0 92 34.5t36 87.5q0 59 -37.5 97t-95.5 38z" />
<glyph unicode="7" d="M61 667h473v-85q-118 -155 -159.5 -269.5t-52.5 -312.5h-137q10 168 69 302t178 262h-381z" />
<glyph unicode="8" d="M169 329q-43 23 -64 40.5t-35 44.5q-18 36 -18 75q0 85 67 136.5t177 51.5q107 0 171.5 -47t64.5 -126q0 -50 -27 -83t-92 -62q54 -24 82 -46q63 -50 63 -129q0 -87 -74.5 -140.5t-196.5 -53.5q-118 0 -188.5 48.5t-70.5 130.5q0 56 33 94t108 66zM252 290 q-109 -43 -109 -115q0 -43 42 -70.5t109 -27.5q64 0 102.5 24.5t38.5 64.5q0 39 -36.5 63.5t-146.5 60.5zM330 394q50 23 71.5 47t21.5 59q0 41 -35.5 67.5t-90.5 26.5t-89.5 -24t-34.5 -62t31.5 -60.5t125.5 -53.5z" />
<glyph unicode="9" d="M59 121l101 28q19 -30 32 -42q32 -27 81 -27q74 0 115 69t42 196q-31 -55 -61 -75q-45 -31 -113 -31q-96 0 -158 60t-62 154q0 99 66.5 161.5t172.5 62.5q119 0 192 -79q79 -86 79 -246q0 -152 -66 -252q-74 -110 -210 -110q-77 0 -132.5 34.5t-78.5 96.5zM279 586 q-56 0 -92 -35.5t-36 -90.5q0 -53 36 -88.5t91 -35.5t93.5 36t38.5 88q0 55 -36.5 90.5t-94.5 35.5z" />
<glyph unicode=":" horiz-adv-x="241" d="M181 122v-122h-121v122h121zM181 461v-122h-121v122h121z" />
<glyph unicode=";" horiz-adv-x="241" d="M181 125v-112l-78 -156h-43l58 143h-58v125h121zM181 461v-122h-121v122h121z" />
<glyph unicode="&#x3c;" d="M500 596v-112l-313 -151l313 -152v-112l-433 216v96z" />
<glyph unicode="=" d="M540 451v-93h-494v93h494zM540 305v-93h-494v93h494z" />
<glyph unicode="&#x3e;" d="M87 69v113l313 151l-313 152v111l433 -216v-95z" />
<glyph unicode="?" horiz-adv-x="502" d="M313 122v-122h-115v122h115zM293 191h-95v66q0 33 12.5 51.5t59.5 54.5q69 54 69 114q0 44 -27 70.5t-71 26.5q-74 0 -100 -67q-11 -27 -18 -72l-106 19q7 99 73 161t164 62q93 0 154.5 -55.5t61.5 -138.5q0 -78 -61 -141q-13 -12 -85 -65q-20 -14 -25 -28.5t-6 -57.5z " />
<glyph unicode="@" horiz-adv-x="717" d="M536 508l-27 -227q-3 -24 -3 -46q0 -33 23 -33q40 0 73 54.5t33 120.5q0 104 -74 172t-187 68q-119 0 -200.5 -81.5t-81.5 -201.5q0 -77 36 -141.5t99 -100.5q62 -37 155 -37q61 0 106.5 11.5t113.5 45.5l29 -66q-122 -61 -248 -61q-114 0 -199 47q-80 46 -126 126.5 t-46 174.5q0 148 104 248.5t257 100.5q141 0 236 -86.5t95 -215.5q0 -100 -54.5 -173t-129.5 -73q-61 0 -83 51q-43 -53 -102 -53q-65 0 -108 53.5t-43 134.5q0 84 48 140t120 56q67 0 96 -42l4 34h84zM359 436q-39 0 -63.5 -33.5t-24.5 -86.5q0 -46 19.5 -75t49.5 -29 q41 0 72 38.5t31 90.5q0 41 -24 68t-60 27z" />
<glyph unicode="A" horiz-adv-x="603" d="M596 0h-129l-53 159h-256l-53 -159h-102l221 667h148zM382 255l-97 298l-97 -298h194z" />
<glyph unicode="B" horiz-adv-x="607" d="M73 0v667h260q56 0 87.5 -7.5t59.5 -26.5q69 -48 69 -139q0 -58 -31 -96t-90 -52q51 -10 79 -32q63 -46 63 -133q0 -81 -54 -132q-52 -49 -152 -49h-291zM187 100h155q49 0 77.5 26t28.5 70q0 43 -29 69.5t-76 26.5h-156v-192zM187 387h146q44 0 70.5 26t26.5 70 q0 40 -27 64.5t-72 24.5h-144v-185z" />
<glyph unicode="C" horiz-adv-x="579" d="M446 232l111 -13q-8 -54 -22 -86.5t-43 -64.5q-71 -78 -187 -78q-121 0 -186 83q-81 101 -81 261q0 156 73.5 249.5t197.5 93.5q102 0 165.5 -60.5t82.5 -175.5l-111 -12q-17 71 -41 104q-34 47 -95 47q-68 0 -105 -63.5t-37 -179.5q0 -117 38.5 -181.5t107.5 -64.5 q52 0 88 39t44 102z" />
<glyph unicode="D" horiz-adv-x="655" d="M70 0v667h245q126 0 206 -83q95 -98 95 -249q0 -174 -115 -269q-79 -66 -213 -66h-218zM193 98h100q88 0 140.5 65t52.5 174q0 103 -50 169t-129 66h-114v-474z" />
<glyph unicode="E" horiz-adv-x="537" d="M506 0h-433v667h429v-99h-309v-181h248v-97h-248v-187h313v-103z" />
<glyph unicode="F" horiz-adv-x="508" d="M196 0h-123v667h421v-103h-298v-183h235v-100h-235v-281z" />
<glyph unicode="G" horiz-adv-x="642" d="M579 341v-341h-53l-37 90q-62 -100 -180 -100q-134 0 -203 102q-68 100 -68 243q0 142 73 240q75 102 212 102q119 0 191 -85q39 -44 57 -119l-105 -18q-12 48 -30 71q-41 51 -110 51q-72 0 -114 -55q-47 -61 -47 -181q0 -252 158 -252q92 0 130 85q13 28 13 70h-138v97 h251z" />
<glyph unicode="H" horiz-adv-x="641" d="M568 0h-120v290h-255v-290h-120v667h120v-274h255v274h120v-667z" />
<glyph unicode="I" horiz-adv-x="267" d="M193 0h-120v667h120v-667z" />
<glyph unicode="J" horiz-adv-x="371" d="M305 667v-460q0 -100 -34 -147q-28 -38 -68 -54t-107 -16q-56 0 -96 10v97q67 -4 77 -4q66 0 90 30q15 20 15 84v460h123z" />
<glyph unicode="K" horiz-adv-x="614" d="M597 0h-134l-141 340l-129 -171v-169h-120v667h120v-351l33 50l222 301h121l-158 -219z" />
<glyph unicode="L" horiz-adv-x="498" d="M483 0h-410v667h127v-558h283v-109z" />
<glyph unicode="M" horiz-adv-x="801" d="M727 0h-123v584l-185 -584h-63l-185 584v-584h-98v667h188l139 -430l138 430h189v-667z" />
<glyph unicode="N" horiz-adv-x="650" d="M576 0h-110l-260 426l-18 36l-18 36v-498h-97v667h133l233 -393q0 -1 3 -6.5t8 -14.5t9 -16l22 -43v473h95v-667z" />
<glyph unicode="O" horiz-adv-x="643" d="M324 677q128 0 204.5 -95t76.5 -254q0 -151 -79 -244.5t-207 -93.5q-134 0 -207 99q-74 100 -74 247q0 150 80 245.5t206 95.5zM323 580q-85 0 -120 -69q-35 -67 -35 -179q0 -119 39 -182t113 -63q40 0 74 21t51 56q30 60 30 162q0 254 -152 254z" />
<glyph unicode="P" horiz-adv-x="599" d="M193 0h-120v667h273q85 0 140 -33q90 -57 90 -167q0 -89 -60.5 -146t-155.5 -57h-167v-264zM193 367h142q53 0 84 26.5t31 72.5q0 47 -30 74q-29 27 -96 27h-131v-200z" />
<glyph unicode="Q" horiz-adv-x="643" d="M577 -35v-101q-43 -5 -69 -5q-87 0 -122 43q-22 26 -26 87q-34 -2 -47 -2q-123 0 -196 91q-79 97 -79 251q0 160 77 254t208 94q141 0 217 -114q64 -93 64 -230q0 -158 -84 -255q-25 -29 -67 -56q-13 -9 -13 -20q0 -18 15.5 -29.5t40.5 -11.5q8 0 52 2q3 0 29 2zM323 580 q-155 0 -155 -250q0 -242 150 -242q81 0 121 69q15 25 25 74.5t10 97.5q0 251 -151 251z" />
<glyph unicode="R" horiz-adv-x="643" d="M593 0h-127l-104 274h-169v-274h-120v667h289q114 0 174 -52t60 -144q0 -125 -120 -177zM193 370h150q62 0 95 27t33 76q0 45 -31.5 71.5t-86.5 26.5h-160v-201z" />
<glyph unicode="S" horiz-adv-x="571" d="M3 161l116 25q13 -44 38 -64q43 -35 125 -35q61 0 96.5 25.5t35.5 68.5q0 59 -83 81l-128 33q-94 25 -126 68q-39 49 -39 115q0 89 65 144t171 55q111 0 184 -58q41 -34 56 -86l-114 -28q-26 75 -125 75q-52 0 -83 -22.5t-31 -59.5q0 -57 93 -81l114 -28q105 -28 141 -82 q32 -47 32 -108q0 -95 -72.5 -152t-193.5 -57q-125 0 -205 63q-44 36 -67 108z" />
<glyph unicode="T" horiz-adv-x="483" d="M306 0h-129v564h-177v103h483v-103h-177v-564z" />
<glyph unicode="U" horiz-adv-x="595" d="M531 667v-429q0 -75 -11.5 -113t-44.5 -71q-64 -64 -177 -64q-116 0 -178 65q-29 30 -41 69.5t-12 105.5v437h123v-429q0 -78 29 -108q33 -35 94 -35q68 0 99 41q24 32 24 102v429h95z" />
<glyph unicode="V" horiz-adv-x="540" d="M330 0h-122l-206 667h127l153 -511l156 511h100z" />
<glyph unicode="W" horiz-adv-x="883" d="M873 667l-178 -667h-126l-133 490l-121 -490h-123l-182 667h128l128 -486l120 486h122l133 -486l126 486h106z" />
<glyph unicode="X" horiz-adv-x="567" d="M561 0h-140l-148 263l-156 -263h-112l211 348l-181 319h139l124 -222l130 222h112l-185 -304z" />
<glyph unicode="Y" horiz-adv-x="544" d="M341 0h-127v281l-227 386h145l158 -275l151 275h116l-216 -386v-281z" />
<glyph unicode="Z" horiz-adv-x="533" d="M513 103v-103h-493v94l342 478h-318v95h459v-95l-337 -469h347z" />
<glyph unicode="[" horiz-adv-x="293" d="M235 587h-81v-674h81v-80h-168v834h168v-80z" />
<glyph unicode="\" horiz-adv-x="479" d="M30 667h71l435 -834h-70z" />
<glyph unicode="]" horiz-adv-x="293" d="M58 -87h81v674h-81v80h168v-834h-168v80z" />
<glyph unicode="^" horiz-adv-x="500" d="M130 343h-119l165 327h149l165 -327h-119l-121 237z" />
<glyph unicode="_" horiz-adv-x="500" d="M0 -52h500v-102h-500v102z" />
<glyph unicode="`" horiz-adv-x="500" d="M137 726l192 -107l-20 -52l-204 86z" />
<glyph unicode="a" horiz-adv-x="540" d="M489 0h-107q-13 48 -17 100q-25 -58 -65 -84t-102 -26q-72 0 -117.5 42t-45.5 109q0 118 142 153q68 17 188 17v37q0 76 -105 76q-51 0 -78 -18t-36 -58l-95 14q11 66 65 102q57 39 158 39q122 0 169 -54q19 -21 25 -46.5t6 -80.5v-222q0 -44 15 -100zM365 206v45 q-216 0 -216 -103q0 -34 23 -54t64 -20q58 0 93.5 36.5t35.5 95.5z" />
<glyph unicode="b" horiz-adv-x="538" d="M117 0h-50v667h111v-241q31 52 60.5 71t76.5 19q85 0 136.5 -71t51.5 -189q0 -116 -57 -194q-55 -72 -148 -72q-51 0 -84.5 20.5t-66.5 70.5zM178 284v-73q0 -62 26.5 -96t75.5 -34q52 0 79 44q26 43 27 135q-4 85 -29 122q-25 38 -74 38q-48 0 -76.5 -37t-28.5 -99z" />
<glyph unicode="c" horiz-adv-x="466" d="M351 181l96 -10q-15 -69 -46 -109q-55 -72 -156 -72q-94 0 -152 70.5t-58 185.5t61 186t159 71q96 0 147 -62q33 -39 45 -108l-96 -13q-12 92 -90 92q-51 0 -79.5 -45t-28.5 -125q0 -73 27 -114t74 -41q74 0 97 94z" />
<glyph unicode="d" horiz-adv-x="538" d="M472 0h-104v99q-23 -57 -58 -83t-87 -26q-83 0 -132 63q-25 33 -40.5 88t-15.5 112q0 128 69 206q46 54 125 54q92 0 132 -87v241h111v-667zM361 207v84q0 59 -26 90q-31 37 -76 37q-51 0 -78.5 -44.5t-27.5 -126.5q0 -166 103 -166q44 0 74.5 36.5t30.5 89.5z" />
<glyph unicode="e" horiz-adv-x="524" d="M380 158l101 -14q-51 -154 -219 -154q-103 0 -165 69.5t-62 185.5t64 187t168 71q107 0 164 -70t58 -200h-338v-14q1 -67 31.5 -104t86.5 -37q43 0 68.5 18.5t42.5 61.5zM151 305h223q-3 47 -25 77q-32 43 -86 43q-47 0 -76 -31t-36 -89z" />
<glyph unicode="f" horiz-adv-x="316" d="M191 0h-107v406h-73v87h73q-1 58 7 88t30 54t53 33.5t87 9.5q21 0 40 -1v-88q-14 2 -30 2q-53 0 -69 -21q-8 -10 -9.5 -22t-1.5 -55h110v-87h-110v-406z" />
<glyph unicode="g" horiz-adv-x="518" d="M517 587v-85h-34q-30 0 -44 -8t-28 -32q32 -27 45 -51.5t13 -55.5q0 -66 -55.5 -108.5t-143.5 -42.5q-37 0 -93 13q-34 -18 -34 -47q0 -23 18 -36.5t49 -13.5h147q72 0 116.5 -37.5t44.5 -97.5q0 -75 -69 -118.5t-188 -43.5q-239 0 -239 134q0 35 16 57t56 43 q-26 23 -36 40.5t-10 40.5q0 34 18 57.5t61 45.5q-38 25 -53.5 50.5t-15.5 62.5q0 60 43 98q52 51 162 51q43 0 94 -10q14 50 41.5 72t76.5 22h42zM266 433q-42 0 -67.5 -22.5t-25.5 -59.5t25 -59t66 -22q42 0 66.5 21t24.5 57q0 41 -23 63t-66 22zM340 15h-118 q-37 0 -80 12q-24 -23 -24 -43q0 -39 45 -62t122 -23q129 0 129 66q0 23 -20 36.5t-54 13.5z" />
<glyph unicode="h" horiz-adv-x="542" d="M476 0h-111v323q0 95 -76 95q-28 0 -52.5 -15t-37.5 -39q-21 -39 -21 -108v-256h-111v667h111v-260q23 56 58.5 81.5t88.5 25.5q89 0 127 -63q24 -43 24 -112v-339z" />
<glyph unicode="i" horiz-adv-x="245" d="M178 0h-111v493h111v-493zM178 551h-111v116h111v-116z" />
<glyph unicode="j" horiz-adv-x="245" d="M178 493v-507q0 -184 -170 -184q-27 0 -57 6v94q18 -2 37 -2q47 0 63 17.5t16 68.5v507h111zM178 551h-111v116h111v-116z" />
<glyph unicode="k" horiz-adv-x="532" d="M526 0h-117l-126 253l-109 -123v-130h-107v667h107v-414q6 8 13.5 17.5t8.5 10.5l195 212h120l-148 -163z" />
<glyph unicode="l" horiz-adv-x="245" d="M178 0h-111v667h111v-667z" />
<glyph unicode="m" horiz-adv-x="870" d="M804 0h-117v307q0 95 -85 95q-52 0 -80 -37.5t-28 -105.5v-259h-118v307q0 38 -11 59q-21 38 -69 38q-50 0 -82 -40.5t-32 -104.5v-259h-115v493h108v-105q29 56 54 77q44 38 110 38q107 0 142 -115q60 115 165 115q69 0 113.5 -43.5t44.5 -110.5v-349z" />
<glyph unicode="n" horiz-adv-x="541" d="M475 0h-111v308q0 45 -21 71.5t-56 26.5q-28 0 -52.5 -16.5t-38.5 -44.5q-18 -36 -18 -92v-253h-111v493h101v-114q31 67 66 95.5t85 28.5q43 0 81 -20.5t54 -52.5q21 -41 21 -112v-318z" />
<glyph unicode="o" horiz-adv-x="529" d="M266 503q123 0 187 -101q41 -66 41 -156q0 -113 -65 -184.5t-169 -71.5q-115 0 -176 91q-49 71 -49 167q0 113 64.5 184t166.5 71zM266 412q-54 0 -83.5 -43t-29.5 -122q0 -80 29 -123t82 -43q54 0 83 43.5t29 124.5q0 79 -28.5 121t-81.5 42z" />
<glyph unicode="p" horiz-adv-x="538" d="M180 -167h-113v660h107v-86q51 96 150 96q80 0 126 -65q53 -76 53 -188q0 -121 -58 -199q-45 -61 -129 -61q-90 0 -136 79v-236zM180 272v-70q0 -54 30 -89t77 -35q46 0 72 43.5t26 120.5q0 81 -26 125.5t-73 44.5q-46 0 -76 -39.5t-30 -100.5z" />
<glyph unicode="q" horiz-adv-x="542" d="M475 -167h-116v254q-40 -97 -137 -97q-83 0 -129 61q-58 75 -58 194q0 117 56 187.5t150 70.5q47 0 80 -18t65 -61l30 69h59v-660zM359 218v71q0 58 -25 90.5t-69 32.5q-53 0 -82.5 -43.5t-29.5 -122.5q0 -76 28.5 -121.5t75.5 -45.5q45 0 73.5 39t28.5 100z" />
<glyph unicode="r" horiz-adv-x="331" d="M178 0h-111v493h101v-118q17 64 57.5 100t92.5 32v-120h-7l-19 -1q-48 -2 -81 -47t-33 -111v-228z" />
<glyph unicode="s" horiz-adv-x="454" d="M7 113l104 20q16 -33 40 -46.5t69 -13.5q47 0 73.5 16t26.5 45q0 18 -14.5 31t-39.5 18l-90 18q-76 14 -112.5 49.5t-36.5 95.5q0 61 39 103q50 54 151 54q155 0 190 -114l-100 -21q-10 30 -31 43t-59 13q-40 0 -63.5 -14.5t-23.5 -38.5q0 -42 71 -56l106 -22 q124 -24 124 -143q0 -73 -58.5 -116.5t-156.5 -43.5q-95 0 -158 46q-35 27 -51 77z" />
<glyph unicode="t" horiz-adv-x="322" d="M295 87v-87q-49 -11 -78 -11q-66 0 -105 39q-19 19 -26.5 46t-7.5 77v255h-61v87h68l10 128l91 8v-136h100v-87h-100v-240q0 -47 17 -63.5t64 -16.5q16 0 28 1z" />
<glyph unicode="u" horiz-adv-x="539" d="M473 0h-104v107q-10 -31 -21 -48t-31 -33q-43 -36 -104 -36q-79 0 -121 60q-25 38 -25 98v345h114v-321q0 -35 10 -54q20 -33 60 -33q29 0 56.5 19.5t39.5 49.5q15 34 15 102v237h111v-493z" />
<glyph unicode="v" horiz-adv-x="444" d="M438 493l-167 -493h-93l-171 493h116l115 -334l113 334h87z" />
<glyph unicode="w" horiz-adv-x="697" d="M687 493l-145 -493h-100l-89 346l-88 -346h-103l-152 493h118l98 -332l84 332h101l87 -332l95 332h94z" />
<glyph unicode="x" horiz-adv-x="442" d="M442 0h-128l-104 180l-114 -180h-96l164 254l-142 239h128l81 -145l92 145h93l-139 -214z" />
<glyph unicode="y" horiz-adv-x="442" d="M435 493l-192 -562q-20 -57 -51.5 -83t-82.5 -26q-16 0 -64 4v88q20 -1 55 -1q49 0 65 28q6 10 13.5 31t7.5 27q0 4 -10 31l-169 463h116l120 -326l103 326h89z" />
<glyph unicode="z" horiz-adv-x="419" d="M395 87v-87h-372v87l243 319h-220v87h349v-79l-240 -327h240z" />
<glyph unicode="{" horiz-adv-x="293" d="M166 513v-149q0 -47 -13 -71t-48 -43q34 -19 47.5 -44.5t13.5 -71.5v-145q0 -51 18 -66t79 -14v-75q-35 -1 -44 -1q-76 0 -109.5 33t-33.5 108v155q0 41 -12.5 61t-43.5 27v71q56 13 56 82v163q0 71 34.5 102.5t112.5 31.5q18 0 40 -1v-75q-61 0 -79 -14.5t-18 -63.5z " />
<glyph unicode="|" horiz-adv-x="500" d="M193 667h113v-834h-113v834z" />
<glyph unicode="}" horiz-adv-x="293" d="M128 -13v149q0 47 13 71t48 43q-34 19 -47.5 44.5t-13.5 71.5v145q0 51 -18 66t-79 14v75q35 1 44 1q76 0 109.5 -33t33.5 -108v-155q0 -41 12.5 -61t43.5 -27v-71q-56 -13 -56 -82v-163q0 -71 -34.5 -102.5t-112.5 -31.5q-18 0 -40 1v75q61 0 79 14.5t18 63.5z" />
<glyph unicode="~" d="M114 241l-63 41q30 72 63.5 102t83.5 30q35 0 106 -28q65 -26 90 -26t41 12t36 44l65 -38q-35 -73 -68 -97q-39 -30 -88 -30q-28 0 -144 44q-27 10 -46 10q-24 0 -40.5 -14t-35.5 -50z" />
<glyph unicode="&#xa1;" horiz-adv-x="275" d="M77 378v122h122v-122h-122zM62 -167l50 465h50l47 -465h-147z" />
<glyph unicode="&#xa2;" d="M274 708h62v-126q144 -18 172 -164l-91 -17q-14 46 -32.5 67t-48.5 26v-301q55 3 81 89l91 -13q-27 -144 -172 -165v-137h-62v137q-68 11 -109 47q-80 68 -80 190q0 119 73 187q46 44 116 54v126zM274 193v301q-38 -9 -55.5 -45.5t-17.5 -109.5q0 -125 73 -146z" />
<glyph unicode="&#xa3;" d="M-12 0v111q54 1 79 7.5t45 26.5q40 37 40 90q0 22 -6 69h-77v87h67q-8 56 -8 83q0 90 56 146.5t145 56.5q79 0 131 -42q31 -25 60 -80l-94 -44q-26 75 -92 75q-40 0 -62.5 -27t-22.5 -76q0 -37 15 -92h121v-87h-121v-23q0 -60 -15.5 -94.5t-59.5 -75.5h128q90 0 124 21 q20 12 29 27.5t14 45.5l105 -53q-24 -64 -65 -101q-31 -29 -66 -40t-97 -11h-373z" />
<glyph unicode="&#xa4;" horiz-adv-x="667" d="M30 134l101 100q-46 65 -46 139q0 72 46 138l-102 102l62 62l101 -102q70 47 142 47t139 -45l100 99l62 -62l-100 -99q47 -72 47 -141q0 -70 -45 -137l100 -101l-61 -62l-101 100q-67 -46 -141 -46q-71 0 -142 46l-100 -100zM336 519q-62 0 -104.5 -42.5t-42.5 -103.5 t42.5 -103.5t102.5 -42.5t102.5 42.5t42.5 103.5q0 60 -42 103t-101 43z" />
<glyph unicode="&#xa5;" d="M53 423h109l-133 244h139l144 -276l137 276h109l-125 -244h102v-60h-133l-42 -82v-16h175v-60h-175v-205h-121v205h-186v60h186v16l-45 82h-141v60z" />
<glyph unicode="&#xa6;" horiz-adv-x="500" d="M193 667h113v-343h-113v343zM193 153h113v-320h-113v320z" />
<glyph unicode="&#xa7;" d="M60 -31l107 21q42 -82 136 -82q47 0 76.5 21t29.5 54q0 29 -20.5 48t-73.5 39l-105 39q-65 24 -88 55q-32 43 -32 97q0 81 77 129q-34 28 -47.5 53t-13.5 61q0 77 56.5 123t151.5 46q149 0 203 -121l-91 -26q-27 74 -120 74q-46 0 -71.5 -17t-25.5 -47q0 -25 18.5 -42 t59.5 -31l88 -30q74 -26 107.5 -63.5t33.5 -95.5q0 -36 -14 -64.5t-51 -66.5q40 -27 57.5 -58t17.5 -77q0 -85 -61 -133t-168 -48q-91 0 -145 32.5t-92 109.5zM291 205l92 -33q36 36 36 68q0 55 -87 85l-105 36q-36 -32 -36 -63q0 -57 100 -93z" />
<glyph unicode="&#xa8;" horiz-adv-x="500" d="M167 688q23 0 38.5 -15.5t15.5 -39.5q0 -23 -15.5 -38t-39.5 -15q-22 0 -37.5 15t-15.5 38t15.5 39t38.5 16zM330 688q23 0 38.5 -15.5t15.5 -39.5q0 -23 -15.5 -38t-39.5 -15q-23 0 -38 15t-15 38t15.5 39t38.5 16z" />
<glyph unicode="&#xa9;" horiz-adv-x="773" d="M467 277l81 -9q-8 -47 -25 -73q-47 -68 -138 -68q-77 0 -120 49q-52 61 -52 157q0 94 47.5 150t126.5 56q134 0 161 -145l-80 -8q-10 35 -15 46q-21 43 -65 43q-40 0 -61.5 -36.5t-21.5 -103.5t22.5 -104.5t62.5 -37.5q32 0 52.5 22t24.5 62zM392 681q140 0 240.5 -102.5 t100.5 -245.5t-101.5 -245t-243.5 -102q-143 0 -245 102t-102 245q0 146 102 247t249 101zM392 625q-122 0 -205.5 -84.5t-83.5 -207.5q0 -120 83.5 -205.5t201.5 -85.5q117 0 200 85.5t83 205.5t-82.5 206t-196.5 86z" />
<glyph unicode="&#xaa;" horiz-adv-x="357" d="M321 376h-76q-1 3 -3 7l-1 4l-6 31v1l-2 -2q-21 -22 -26 -27t-16 -9q-28 -11 -57 -11q-47 0 -76.5 26t-29.5 67q0 104 191 104h14v18q0 42 -60 42q-31 0 -46 -10t-21 -36l-69 10q16 89 146 89q76 0 107 -32q21 -22 21 -78v-132q0 -25 10 -62zM233 501v23q-123 0 -123 -57 q0 -41 48 -41q34 0 54.5 20.5t20.5 54.5z" />
<glyph unicode="&#xab;" horiz-adv-x="329" d="M286 390l-44 -141l44 -141h-44l-81 141l81 141h44zM161 390l-47 -141l47 -141h-47l-77 141l77 141h47z" />
<glyph unicode="&#xac;" d="M397 0v165h-320v102h433v-267h-113z" />
<glyph unicode="&#xad;" horiz-adv-x="241" d="M243 299v-91h-245v91h245z" />
<glyph unicode="&#xae;" horiz-adv-x="773" d="M562 133h-90l-65 162h-96v-162h-85v400h185q72 0 111.5 -31t39.5 -88q0 -74 -74 -105zM311 358h88q75 0 75 57q0 26 -18.5 40.5t-50.5 14.5h-94v-112zM392 681q140 0 240.5 -102.5t100.5 -245.5t-101.5 -245t-243.5 -102q-143 0 -245 102t-102 245q0 146 102 247t249 101 zM392 625q-122 0 -205.5 -84.5t-83.5 -207.5q0 -120 83.5 -205.5t201.5 -85.5q117 0 200 85.5t83 205.5t-82.5 206t-196.5 86z" />
<glyph unicode="&#xaf;" horiz-adv-x="500" d="M397 660v-63h-294v63h294z" />
<glyph unicode="&#xb0;" d="M293 680q56 0 95 -39t39 -95q0 -55 -39 -94t-94 -39q-56 0 -95 39.5t-39 95.5q0 54 39.5 93t93.5 39zM293 613q-27 0 -46.5 -19.5t-19.5 -46.5q0 -28 19.5 -47.5t47.5 -19.5q27 0 46.5 19.5t19.5 46.5q0 28 -19.5 47.5t-47.5 19.5z" />
<glyph unicode="&#xb1;" d="M540 383v-93h-200v-207h-93v207h-201v93h201v208h93v-208h200zM540 50v-93h-494v93h494z" />
<glyph unicode="&#xb2;" horiz-adv-x="387" d="M348 335v-68h-316v74l80 51q83 50 111 76q38 35 38 71q0 29 -20 47.5t-51 18.5q-68 0 -79 -84l-80 19q12 63 54.5 98t108.5 35q70 0 112.5 -37t42.5 -98q0 -66 -65 -116q-32 -24 -145 -87h209z" />
<glyph unicode="&#xb3;" horiz-adv-x="387" d="M138 440v63h42q35 0 56 14.5t21 39.5t-17.5 38.5t-49.5 13.5q-31 0 -50 -13t-32 -44l-75 13q13 50 55.5 79t104.5 29q64 0 105 -30.5t41 -78.5q0 -65 -63 -89q40 -16 58 -38.5t18 -57.5q0 -53 -45 -86t-117 -33q-64 0 -109 29.5t-61 81.5l78 18q22 -67 91 -67 q35 0 57 16.5t22 41.5q0 27 -20.5 43.5t-54.5 16.5h-55z" />
<glyph unicode="&#xb4;" horiz-adv-x="500" d="M361 726l32 -73l-203 -86l-21 52z" />
<glyph unicode="&#xb5;" d="M85 -167v660h111v-264q0 -73 19 -103q25 -45 78 -45q26 0 48.5 13t33.5 34q17 33 17 101v264h111v-493h-94v75q-12 -28 -31 -47q-21 -23 -37.5 -30.5t-44.5 -7.5q-35 0 -62 18.5t-38 50.5v-226h-111z" />
<glyph unicode="&#xb6;" d="M564 667v-56h-73v-774h-56v774h-55v-774h-57v506h-64q-67 0 -97 4.5t-57 18.5q-71 36 -71 135q0 37 16.5 72.5t45.5 59.5q24 20 59.5 27t106.5 7h302zM323 399v212h-52q-51 0 -74 -5t-37 -19q-28 -28 -28 -89q0 -30 13.5 -54t35.5 -34q25 -11 79 -11h63z" />
<glyph unicode="&#xb7;" horiz-adv-x="121" d="M121 318v-128h-121v128h121z" />
<glyph unicode="&#xb8;" horiz-adv-x="500" d="M251 0l-13 -45q42 -2 64 -14q41 -22 41 -65q0 -34 -27.5 -57t-66.5 -23q-35 0 -100 29l16 39q42 -24 76 -24q16 0 27.5 10t11.5 24q0 19 -20 30.5t-55 11.5q-12 0 -22 -1l28 85h40z" />
<glyph unicode="&#xb9;" horiz-adv-x="387" d="M363 266h-302v65h114v239q-58 -47 -115 -70v79l18 6q82 27 124 90h56v-344h105v-65z" />
<glyph unicode="&#xba;" horiz-adv-x="349" d="M175 680q66 0 106.5 -42.5t40.5 -112.5q0 -68 -42 -111t-109 -43q-64 0 -104.5 43.5t-40.5 111.5t42 111t107 43zM175 619q-65 0 -65 -93q0 -45 16.5 -69.5t46.5 -24.5q65 0 65 95q0 92 -63 92z" />
<glyph unicode="&#xbb;" horiz-adv-x="329" d="M43 389h46l78 -143l-78 -137h-46l46 137zM167 389h46l79 -143l-79 -137h-46l46 137z" />
<glyph unicode="&#xbc;" horiz-adv-x="880" d="M335 266h-302v65h114v239q-58 -47 -115 -70v79l18 6q82 27 124 90h56v-344h105v-65zM189 0l411 667h72l-412 -667h-71zM799 0h-84v89h-186v56l188 263h82v-252h63v-67h-63v-89zM724 324l-117 -173h113v90q0 28 4 83z" />
<glyph unicode="&#xbd;" horiz-adv-x="880" d="M338 266h-302v65h114v239q-58 -47 -115 -70v79l18 6q82 27 124 90h56v-344h105v-65zM192 0l411 667h72l-412 -667h-71zM853 68v-68h-317v74q70 44 81 50q84 52 111 77q38 35 38 70q0 29 -20 47.5t-52 18.5q-69 0 -79 -83l-80 19q12 63 54.5 98t108.5 35q70 0 113 -37 t43 -98q0 -66 -65 -116q-33 -25 -146 -87h210z" />
<glyph unicode="&#xbe;" horiz-adv-x="880" d="M133 440v63h42q35 0 56 14.5t21 39.5t-17.5 38.5t-49.5 13.5q-31 0 -50 -13t-32 -44l-75 13q13 50 55.5 79t104.5 29q64 0 105 -30.5t41 -78.5q0 -65 -63 -89q40 -16 58 -38.5t18 -57.5q0 -53 -45 -86t-117 -33q-64 0 -109 29.5t-61 81.5l78 18q22 -67 91 -67 q35 0 57 16.5t22 41.5q0 27 -20.5 43.5t-54.5 16.5h-55zM225 0l412 667h72l-412 -667h-72zM789 0h-84v89h-186v56l188 263h82v-252h63v-67h-63v-89zM714 324l-117 -173h113v90q0 28 4 83z" />
<glyph unicode="&#xbf;" horiz-adv-x="502" d="M189 379v121h115v-121h-115zM209 309h95v-66q0 -33 -12.5 -51.5t-59.5 -54.5q-69 -55 -69 -114q0 -44 27 -70.5t71 -26.5q74 0 100 67q11 27 18 72l106 -19q-10 -102 -74.5 -162.5t-162.5 -60.5q-93 0 -154.5 55.5t-61.5 138.5q0 78 61 141q15 14 85 65q20 14 25 28t6 58 z" />
<glyph unicode="&#xc0;" horiz-adv-x="603" d="M596 0h-129l-53 159h-256l-53 -159h-102l221 667h148zM382 255l-97 298l-97 -298h194zM165 872l200 -93l-20 -52l-210 71z" />
<glyph unicode="&#xc1;" horiz-adv-x="603" d="M596 0h-129l-53 159h-256l-53 -159h-102l221 667h148zM382 255l-97 298l-97 -298h194zM431 872l30 -74l-210 -71l-19 52z" />
<glyph unicode="&#xc2;" horiz-adv-x="603" d="M596 0h-129l-53 159h-256l-53 -159h-102l221 667h148zM382 255l-97 298l-97 -298h194zM299 867l174 -127l-93 -10l-81 54l-80 -54l-93 10z" />
<glyph unicode="&#xc3;" horiz-adv-x="603" d="M596 0h-129l-53 159h-256l-53 -159h-102l221 667h148zM382 255l-97 298l-97 -298h194zM433 847l35 -50q-40 -57 -104 -57q-26 0 -76 23q-37 18 -48 18q-28 0 -67 -39l-36 50q50 57 103 57q27 0 68 -19q47 -21 69 -21q16 0 28 8t28 30z" />
<glyph unicode="&#xc4;" horiz-adv-x="603" d="M596 0h-129l-53 159h-256l-53 -159h-102l221 667h148zM382 255l-97 298l-97 -298h194zM213 846q23 0 38.5 -15.5t15.5 -39.5q0 -23 -15.5 -38t-39.5 -15q-22 0 -37.5 15t-15.5 38t15.5 39t38.5 16zM383 846q23 0 38.5 -15.5t15.5 -39.5q0 -23 -15.5 -38t-39.5 -15 q-22 0 -37.5 15t-15.5 38t15.5 39t38.5 16z" />
<glyph unicode="&#xc5;" horiz-adv-x="603" d="M596 0h-129l-53 159h-256l-53 -159h-102l221 667h148zM382 255l-97 298l-97 -298h194zM300 891q38 0 64 -26t26 -65q0 -38 -26.5 -64t-64.5 -26q-37 0 -63.5 26t-26.5 64t26.5 64.5t64.5 26.5zM302 840q-19 0 -30.5 -11t-11.5 -28q0 -18 11 -29t28 -11q18 0 29 11t11 28 t-10.5 28.5t-26.5 11.5z" />
<glyph unicode="&#xc6;" horiz-adv-x="846" d="M815 103v-103h-424v189h-199l-95 -189h-114l355 667h469v-97h-296v-184h235v-95h-235v-188h304zM391 282v302l-152 -302h152z" />
<glyph unicode="&#xc7;" horiz-adv-x="579" d="M310 -10l-13 -39q113 -3 113 -79q0 -37 -28 -60t-72 -23t-111 30l16 39q60 -24 83 -24q20 0 32 10t12 26q0 42 -74 42q-16 0 -28 -1l26 81q-104 13 -166 105.5t-62 236.5q0 156 73.5 249.5t197.5 93.5q102 0 165.5 -60.5t82.5 -175.5l-111 -12q-17 71 -41 104 q-34 47 -95 47q-68 0 -105 -63.5t-37 -180.5q0 -116 38.5 -181t107.5 -65q52 0 88.5 39t43.5 103l111 -13q-12 -104 -79 -166.5t-168 -62.5z" />
<glyph unicode="&#xc8;" horiz-adv-x="537" d="M506 0h-433v667h429v-99h-309v-181h248v-97h-248v-187h313v-103zM171 872l200 -93l-19 -52l-210 71z" />
<glyph unicode="&#xc9;" horiz-adv-x="537" d="M506 0h-433v667h429v-99h-309v-181h248v-97h-248v-187h313v-103zM416 872l30 -74l-210 -71l-19 52z" />
<glyph unicode="&#xca;" horiz-adv-x="537" d="M506 0h-433v667h429v-99h-309v-181h248v-97h-248v-187h313v-103zM293 867l174 -127l-93 -10l-81 54l-81 -54l-93 10z" />
<glyph unicode="&#xcb;" horiz-adv-x="537" d="M506 0h-433v667h429v-99h-309v-181h248v-97h-248v-187h313v-103zM207 846q23 0 38.5 -15.5t15.5 -39.5q0 -23 -15.5 -38t-39.5 -15q-22 0 -37.5 15t-15.5 38t15.5 39t38.5 16zM377 846q23 0 38.5 -15.5t15.5 -39.5q0 -23 -15.5 -38t-39.5 -15q-22 0 -37.5 15t-15.5 38 t15.5 39t38.5 16z" />
<glyph unicode="&#xcc;" horiz-adv-x="267" d="M193 0h-120v667h120v-667zM15 872l180 -93l-20 -52l-190 71z" />
<glyph unicode="&#xcd;" horiz-adv-x="267" d="M193 0h-120v667h120v-667zM252 872l30 -74l-191 -71l-19 52z" />
<glyph unicode="&#xce;" horiz-adv-x="267" d="M193 0h-120v667h120v-667zM133 867l157 -127l-90 -10l-67 54l-68 -54l-89 10z" />
<glyph unicode="&#xcf;" horiz-adv-x="267" d="M57 846q23 0 38.5 -15.5t15.5 -39.5q0 -23 -15.5 -38t-39.5 -15q-22 0 -37.5 15t-15.5 38t15.5 39t38.5 16zM207 846q23 0 38.5 -15.5t15.5 -39.5q0 -23 -15.5 -38t-39.5 -15q-22 0 -37.5 15t-15.5 38t15.5 39t38.5 16zM193 0h-120v667h120v-667z" />
<glyph unicode="&#xd0;" horiz-adv-x="655" d="M3 294v93h67v280h246q124 0 206 -83q95 -98 95 -248q0 -174 -115 -270q-81 -66 -213 -66h-219v294h-67zM193 294v-196h101q88 0 140.5 65t52.5 174q0 103 -50 169t-129 66h-115v-185h165v-93h-165z" />
<glyph unicode="&#xd1;" horiz-adv-x="650" d="M576 0h-110l-260 426l-18 36l-18 36v-498h-97v667h133l233 -393q0 -1 3 -6.5t8 -14.5t9 -16l22 -43v473h95v-667zM465 847l35 -50q-40 -57 -104 -57q-26 0 -76 23q-37 18 -48 18q-28 0 -67 -39l-36 50q50 57 103 57q27 0 68 -19q47 -21 69 -21q16 0 28 8t28 30z" />
<glyph unicode="&#xd2;" horiz-adv-x="643" d="M324 677q128 0 204.5 -95t76.5 -254q0 -151 -79 -244.5t-207 -93.5q-134 0 -207 99q-74 100 -74 247q0 150 80 245.5t206 95.5zM323 580q-85 0 -120 -69q-35 -67 -35 -179q0 -119 39 -182t113 -63q40 0 74 21t51 56q30 60 30 162q0 254 -152 254zM203 872l200 -93 l-19 -52l-211 71z" />
<glyph unicode="&#xd3;" horiz-adv-x="643" d="M324 677q128 0 204.5 -95t76.5 -254q0 -151 -79 -244.5t-207 -93.5q-134 0 -207 99q-74 100 -74 247q0 150 80 245.5t206 95.5zM323 580q-85 0 -120 -69q-35 -67 -35 -179q0 -119 39 -182t113 -63q40 0 74 21t51 56q30 60 30 162q0 254 -152 254zM450 872l29 -74 l-210 -71l-19 52z" />
<glyph unicode="&#xd4;" horiz-adv-x="643" d="M324 677q128 0 204.5 -95t76.5 -254q0 -151 -79 -244.5t-207 -93.5q-134 0 -207 99q-74 100 -74 247q0 150 80 245.5t206 95.5zM323 580q-85 0 -120 -69q-35 -67 -35 -179q0 -119 39 -182t113 -63q40 0 74 21t51 56q30 60 30 162q0 254 -152 254zM325 867l173 -127 l-92 -10l-81 54l-81 -54l-93 10z" />
<glyph unicode="&#xd5;" horiz-adv-x="643" d="M324 677q128 0 204.5 -95t76.5 -254q0 -151 -79 -244.5t-207 -93.5q-134 0 -207 99q-74 100 -74 247q0 150 80 245.5t206 95.5zM323 580q-85 0 -120 -69q-35 -67 -35 -179q0 -119 39 -182t113 -63q40 0 74 21t51 56q30 60 30 162q0 254 -152 254zM461 847l36 -50 q-41 -57 -104 -57q-26 0 -76 23q-37 18 -49 18q-27 0 -67 -39l-35 50q48 57 102 57q27 0 69 -19q47 -21 68 -21q30 0 56 38z" />
<glyph unicode="&#xd6;" horiz-adv-x="643" d="M324 677q128 0 204.5 -95t76.5 -254q0 -151 -79 -244.5t-207 -93.5q-134 0 -207 99q-74 100 -74 247q0 150 80 245.5t206 95.5zM323 580q-85 0 -120 -69q-35 -67 -35 -179q0 -119 39 -182t113 -63q40 0 74 21t51 56q30 60 30 162q0 254 -152 254zM239 846 q23 0 38.5 -15.5t15.5 -39.5q0 -23 -15.5 -38t-39.5 -15q-22 0 -37.5 15t-15.5 38t15.5 39t38.5 16zM409 846q23 0 38.5 -15.5t15.5 -39.5q0 -23 -15.5 -38t-39.5 -15q-22 0 -37.5 15t-15.5 38t15.5 39t38.5 16z" />
<glyph unicode="&#xd7;" d="M441 550l66 -66l-147 -147l146 -147l-65 -66l-147 147l-147 -147l-66 66l147 147l-147 147l66 66l147 -147z" />
<glyph unicode="&#xd8;" horiz-adv-x="643" d="M616 694l-82 -120q71 -96 71 -243q0 -154 -78.5 -247.5t-206.5 -93.5q-92 0 -154 47l-45 -64h-93l82 118q-71 111 -71 244q0 152 79.5 247t206.5 95q45 0 77 -9.5t77 -36.5l43 63h94zM459 469l-229 -345q40 -37 91 -37q40 0 74 21t51 56q29 61 29 167q0 68 -16 138z M187 200l228 345q-22 21 -41 28t-51 7q-39 0 -71 -18.5t-48 -50.5q-35 -70 -35 -177q0 -80 18 -134z" />
<glyph unicode="&#xd9;" horiz-adv-x="595" d="M531 667v-429q0 -75 -11.5 -113t-44.5 -71q-64 -64 -177 -64q-116 0 -178 65q-29 30 -41 69.5t-12 105.5v437h123v-429q0 -78 29 -108q33 -35 94 -35q68 0 99 41q24 32 24 102v429h95zM176 872l199 -93l-19 -52l-210 71z" />
<glyph unicode="&#xda;" horiz-adv-x="595" d="M531 667v-429q0 -75 -11.5 -113t-44.5 -71q-64 -64 -177 -64q-116 0 -178 65q-29 30 -41 69.5t-12 105.5v437h123v-429q0 -78 29 -108q33 -35 94 -35q68 0 99 41q24 32 24 102v429h95zM429 872l30 -74l-210 -71l-19 52z" />
<glyph unicode="&#xdb;" horiz-adv-x="595" d="M531 667v-429q0 -75 -11.5 -113t-44.5 -71q-64 -64 -177 -64q-116 0 -178 65q-29 30 -41 69.5t-12 105.5v437h123v-429q0 -78 29 -108q33 -35 94 -35q68 0 99 41q24 32 24 102v429h95zM302 867l174 -127l-93 -10l-81 54l-81 -54l-92 10z" />
<glyph unicode="&#xdc;" horiz-adv-x="595" d="M531 667v-429q0 -75 -11.5 -113t-44.5 -71q-64 -64 -177 -64q-116 0 -178 65q-29 30 -41 69.5t-12 105.5v437h123v-429q0 -78 29 -108q33 -35 94 -35q68 0 99 41q24 32 24 102v429h95zM216 846q23 0 38.5 -15.5t15.5 -39.5q0 -23 -15.5 -38t-39.5 -15q-23 0 -38 15 t-15 38t15.5 39t38.5 16zM386 846q23 0 38.5 -15.5t15.5 -39.5q0 -23 -15.5 -38t-39.5 -15q-23 0 -38 15t-15 38t15.5 39t38.5 16z" />
<glyph unicode="&#xdd;" horiz-adv-x="544" d="M341 0h-127v281l-227 386h145l158 -275l151 275h116l-216 -386v-281zM410 872l30 -74l-210 -71l-19 52z" />
<glyph unicode="&#xde;" horiz-adv-x="606" d="M193 0h-120v667h120v-94h153q85 0 140 -33q90 -57 90 -166q0 -89 -60.5 -146t-155.5 -57h-167v-171zM193 274h142q53 0 84 26.5t31 72.5t-30 73q-27 27 -96 27h-131v-199z" />
<glyph unicode="&#xdf;" horiz-adv-x="557" d="M181 -46h-111v406h-54v87h54q4 94 24 146q22 56 76 89t124 33q82 0 136 -44t54 -111q0 -39 -20 -72.5t-54 -50.5q-38 -18 -98 -30q-13 -12 -13 -19t8 -11.5t42 -17.5q1 0 14.5 -6l31.5 -14l27 -12q114 -51 114 -160q0 -82 -58.5 -135.5t-148.5 -53.5q-48 0 -101 19l24 75 q31 -9 68 -9q65 0 89 24q22 22 22 50q0 29 -22.5 51.5t-76.5 47.5q-68 31 -92.5 56t-24.5 64q0 27 10 48.5t37 55.5q15 6 21 8q53 19 70.5 37t17.5 51q0 36 -23 58t-60 22q-48 0 -77.5 -33.5t-29.5 -88.5v-560z" />
<glyph unicode="&#xe0;" horiz-adv-x="540" d="M489 0h-107q-13 48 -17 100q-25 -58 -65 -84t-102 -26q-72 0 -117.5 42t-45.5 109q0 118 142 153q68 17 188 17v37q0 76 -105 76q-51 0 -78 -18t-36 -58l-95 14q11 66 65 102q57 39 158 39q122 0 169 -54q19 -21 25 -46.5t6 -80.5v-222q0 -44 15 -100zM365 206v45 q-216 0 -216 -103q0 -34 23 -54t64 -20q58 0 93.5 36.5t35.5 95.5zM163 726l191 -107l-20 -52l-204 86z" />
<glyph unicode="&#xe1;" horiz-adv-x="540" d="M489 0h-107q-13 48 -17 100q-25 -58 -65 -84t-102 -26q-72 0 -117.5 42t-45.5 109q0 118 142 153q68 17 188 17v37q0 76 -105 76q-51 0 -78 -18t-36 -58l-95 14q11 66 65 102q57 39 158 39q122 0 169 -54q19 -21 25 -46.5t6 -80.5v-222q0 -44 15 -100zM365 206v45 q-216 0 -216 -103q0 -34 23 -54t64 -20q58 0 93.5 36.5t35.5 95.5zM390 726l32 -73l-203 -86l-21 52z" />
<glyph unicode="&#xe2;" horiz-adv-x="540" d="M489 0h-107q-13 48 -17 100q-25 -58 -65 -84t-102 -26q-72 0 -117.5 42t-45.5 109q0 118 142 153q68 17 188 17v37q0 76 -105 76q-51 0 -78 -18t-36 -58l-95 14q11 66 65 102q57 39 158 39q122 0 169 -54q19 -21 25 -46.5t6 -80.5v-222q0 -44 15 -100zM365 206v45 q-216 0 -216 -103q0 -34 23 -54t64 -20q58 0 93.5 36.5t35.5 95.5zM276 721l170 -141l-89 -10l-81 64l-82 -64l-88 10z" />
<glyph unicode="&#xe3;" horiz-adv-x="540" d="M489 0h-107q-13 48 -17 100q-25 -58 -65 -84t-102 -26q-72 0 -117.5 42t-45.5 109q0 118 142 153q68 17 188 17v37q0 76 -105 76q-51 0 -78 -18t-36 -58l-95 14q11 66 65 102q57 39 158 39q122 0 169 -54q19 -21 25 -46.5t6 -80.5v-222q0 -44 15 -100zM365 206v45 q-216 0 -216 -103q0 -34 23 -54t64 -20q58 0 93.5 36.5t35.5 95.5zM401 694l34 -50q-14 -24 -42.5 -40.5t-57.5 -16.5t-73 23q-34 18 -50 18q-23 0 -61 -39l-34 50q47 57 98 57q24 0 66 -19q45 -21 66 -21q28 0 54 38z" />
<glyph unicode="&#xe4;" horiz-adv-x="540" d="M489 0h-107q-13 48 -17 100q-25 -58 -65 -84t-102 -26q-72 0 -117.5 42t-45.5 109q0 118 142 153q68 17 188 17v37q0 76 -105 76q-51 0 -78 -18t-36 -58l-95 14q11 66 65 102q57 39 158 39q122 0 169 -54q19 -21 25 -46.5t6 -80.5v-222q0 -44 15 -100zM365 206v45 q-216 0 -216 -103q0 -34 23 -54t64 -20q58 0 93.5 36.5t35.5 95.5zM193 688q23 0 38.5 -15.5t15.5 -39.5q0 -23 -15.5 -38t-39.5 -15q-22 0 -37.5 15t-15.5 38t15.5 39t38.5 16zM356 688q23 0 38.5 -15.5t15.5 -39.5q0 -23 -15.5 -38t-39.5 -15q-23 0 -38 15t-15 38t15.5 39 t38.5 16z" />
<glyph unicode="&#xe5;" horiz-adv-x="540" d="M489 0h-107q-13 48 -17 100q-25 -58 -65 -84t-102 -26q-72 0 -117.5 42t-45.5 109q0 118 142 153q68 17 188 17v37q0 76 -105 76q-51 0 -78 -18t-36 -58l-95 14q11 66 65 102q57 39 158 39q122 0 169 -54q19 -21 25 -46.5t6 -80.5v-222q0 -44 15 -100zM365 206v45 q-216 0 -216 -103q0 -34 23 -54t64 -20q58 0 93.5 36.5t35.5 95.5zM274 735q39 0 65 -26t26 -65q0 -37 -26.5 -63.5t-64.5 -26.5t-64.5 26.5t-26.5 63.5q0 38 26.5 64.5t64.5 26.5zM276 684q-19 0 -30.5 -11t-11.5 -28q0 -18 11 -29t29 -11t29 11t11 28t-11 28.5t-27 11.5z " />
<glyph unicode="&#xe6;" horiz-adv-x="858" d="M823 230h-348q1 -55 17 -89q14 -30 42.5 -47t63.5 -17q82 0 113 78l103 -17q-21 -68 -81.5 -108t-142.5 -40q-64 0 -114.5 26.5t-78.5 75.5q-38 -55 -80 -78.5t-102 -23.5q-82 0 -130.5 41t-48.5 110q0 80 75 123t214 43q23 0 44 -2q-1 48 -3.5 62.5t-13.5 26.5 q-25 27 -86 27q-87 0 -109 -68l-99 12q13 53 45 82q62 56 175 56q53 0 84.5 -11t77.5 -45q68 56 155 56q105 0 166.5 -65.5t61.5 -177.5v-30zM479 305h229q-4 57 -34 88t-81 31q-48 0 -77 -30.5t-37 -88.5zM368 245q-78 0 -128 -14q-83 -21 -83 -86q0 -33 22.5 -53t60.5 -20 q42 0 75.5 24t44.5 61q8 29 8 88z" />
<glyph unicode="&#xe7;" horiz-adv-x="466" d="M251 -10l-11 -36q44 -3 64 -13q41 -22 41 -65q0 -33 -27.5 -56.5t-66.5 -23.5q-35 0 -100 29l16 39q44 -24 76 -24q16 0 27.5 10t11.5 24q0 19 -20 30.5t-55 11.5q-12 0 -21 -1l25 77q-81 13 -128.5 81.5t-47.5 172.5q0 115 61 186t159 71q96 0 147 -62q33 -39 45 -108 l-96 -13q-12 92 -90 92q-51 0 -79.5 -45t-28.5 -125q0 -73 27 -114t74 -41q74 0 97 94l96 -10q-17 -86 -67.5 -133t-128.5 -48z" />
<glyph unicode="&#xe8;" horiz-adv-x="524" d="M380 158l101 -14q-51 -154 -219 -154q-103 0 -165 69.5t-62 185.5t64 187t168 71q107 0 164 -70t58 -200h-338v-14q1 -67 31.5 -104t86.5 -37q43 0 68.5 18.5t42.5 61.5zM151 305h223q-3 47 -25 77q-32 43 -86 43q-47 0 -76 -31t-36 -89zM159 726l192 -107l-21 -52 l-203 86z" />
<glyph unicode="&#xe9;" horiz-adv-x="524" d="M380 158l101 -14q-51 -154 -219 -154q-103 0 -165 69.5t-62 185.5t64 187t168 71q107 0 164 -70t58 -200h-338v-14q1 -67 31.5 -104t86.5 -37q43 0 68.5 18.5t42.5 61.5zM151 305h223q-3 47 -25 77q-32 43 -86 43q-47 0 -76 -31t-36 -89zM392 726l32 -73l-203 -86l-21 52 z" />
<glyph unicode="&#xea;" horiz-adv-x="524" d="M380 158l101 -14q-51 -154 -219 -154q-103 0 -165 69.5t-62 185.5t64 187t168 71q107 0 164 -70t58 -200h-338v-14q1 -67 31.5 -104t86.5 -37q43 0 68.5 18.5t42.5 61.5zM151 305h223q-3 47 -25 77q-32 43 -86 43q-47 0 -76 -31t-36 -89zM276 721l169 -141l-88 -10 l-81 64l-82 -64l-88 10z" />
<glyph unicode="&#xeb;" horiz-adv-x="524" d="M380 158l101 -14q-51 -154 -219 -154q-103 0 -165 69.5t-62 185.5t64 187t168 71q107 0 164 -70t58 -200h-338v-14q1 -67 31.5 -104t86.5 -37q43 0 68.5 18.5t42.5 61.5zM151 305h223q-3 47 -25 77q-32 43 -86 43q-47 0 -76 -31t-36 -89zM193 688q23 0 38.5 -15.5 t15.5 -39.5q0 -23 -15.5 -38t-39.5 -15q-22 0 -37.5 15t-15.5 38t15.5 39t38.5 16zM356 688q23 0 38.5 -15.5t15.5 -39.5q0 -23 -15.5 -38t-39.5 -15q-23 0 -38 15t-15 38t15.5 39t38.5 16z" />
<glyph unicode="&#xec;" horiz-adv-x="245" d="M178 0h-111v493h111v-493zM20 726l168 -107l-20 -52l-184 89z" />
<glyph unicode="&#xed;" horiz-adv-x="245" d="M178 0h-111v493h111v-493zM225 726l36 -70l-183 -89l-21 52z" />
<glyph unicode="&#xee;" horiz-adv-x="245" d="M178 0h-111v493h111v-493zM122 721l147 -141l-85 -10l-62 64l-61 -64l-85 10z" />
<glyph unicode="&#xef;" horiz-adv-x="245" d="M177 0h-111v493h111v-493zM53 686q22 0 36.5 -14.5t14.5 -37.5q0 -22 -14.5 -36t-37.5 -14q-21 0 -35.5 14.5t-14.5 35.5q0 22 14.5 37t36.5 15zM190 686q22 0 36.5 -14.5t14.5 -37.5q0 -22 -14.5 -36t-37.5 -14q-21 0 -35.5 14.5t-14.5 35.5q0 22 14.5 37t36.5 15z" />
<glyph unicode="&#xf0;" horiz-adv-x="529" d="M159 571l82 44q-24 17 -90 46l21 39q64 -13 132 -54l95 47l35 -38l-86 -44q146 -151 146 -354q0 -119 -64 -192.5t-168 -73.5q-116 0 -176 87q-51 73 -51 166q0 104 61.5 177t148.5 73q35 0 60 -13t53 -45q-9 36 -30.5 75.5t-45.5 65.5l-94 -47zM265 401q-65 0 -93 -59 q-22 -44 -22 -99q0 -68 30 -119q27 -43 83 -43q52 0 81.5 42t29.5 116q0 76 -29 119t-80 43z" />
<glyph unicode="&#xf1;" horiz-adv-x="541" d="M475 0h-111v308q0 45 -21 71.5t-56 26.5q-28 0 -52.5 -16.5t-38.5 -44.5q-18 -36 -18 -92v-253h-111v493h101v-114q31 67 66 95.5t85 28.5q43 0 81 -20.5t54 -52.5q21 -41 21 -112v-318zM389 694l34 -50q-14 -24 -42 -40.5t-57 -16.5t-73 23q-34 18 -51 18q-22 0 -61 -39 l-34 50q48 57 99 57q23 0 65 -19q46 -21 66 -21q16 0 27.5 8t26.5 30z" />
<glyph unicode="&#xf2;" horiz-adv-x="529" d="M266 503q123 0 187 -101q41 -66 41 -156q0 -113 -65 -184.5t-169 -71.5q-115 0 -176 91q-49 71 -49 167q0 113 64.5 184t166.5 71zM266 412q-54 0 -83.5 -43t-29.5 -122q0 -80 29 -123t82 -43q54 0 83 43.5t29 124.5q0 79 -28.5 121t-81.5 42zM151 726l192 -107l-20 -52 l-204 86z" />
<glyph unicode="&#xf3;" horiz-adv-x="529" d="M266 503q123 0 187 -101q41 -66 41 -156q0 -113 -65 -184.5t-169 -71.5q-115 0 -176 91q-49 71 -49 167q0 113 64.5 184t166.5 71zM266 412q-54 0 -83.5 -43t-29.5 -122q0 -80 29 -123t82 -43q54 0 83 43.5t29 124.5q0 79 -28.5 121t-81.5 42zM384 726l32 -73l-203 -86 l-21 52z" />
<glyph unicode="&#xf4;" horiz-adv-x="529" d="M266 503q123 0 187 -101q41 -66 41 -156q0 -113 -65 -184.5t-169 -71.5q-115 0 -176 91q-49 71 -49 167q0 113 64.5 184t166.5 71zM266 412q-54 0 -83.5 -43t-29.5 -122q0 -80 29 -123t82 -43q54 0 83 43.5t29 124.5q0 79 -28.5 121t-81.5 42zM268 721l169 -141l-88 -10 l-81 64l-82 -64l-88 10z" />
<glyph unicode="&#xf5;" horiz-adv-x="529" d="M266 503q123 0 187 -101q41 -66 41 -156q0 -113 -65 -184.5t-169 -71.5q-115 0 -176 91q-49 71 -49 167q0 113 64.5 184t166.5 71zM266 412q-54 0 -83.5 -43t-29.5 -122q0 -80 29 -123t82 -43q54 0 83 43.5t29 124.5q0 79 -28.5 121t-81.5 42zM399 694l34 -50 q-14 -24 -42 -40.5t-57 -16.5t-73 23q-34 18 -51 18q-22 0 -61 -39l-34 50q48 57 99 57q23 0 65 -19q46 -21 66 -21q16 0 27.5 8t26.5 30z" />
<glyph unicode="&#xf6;" horiz-adv-x="529" d="M266 503q123 0 187 -101q41 -66 41 -156q0 -113 -65 -184.5t-169 -71.5q-115 0 -176 91q-49 71 -49 167q0 113 64.5 184t166.5 71zM266 412q-54 0 -83.5 -43t-29.5 -122q0 -80 29 -123t82 -43q54 0 83 43.5t29 124.5q0 79 -28.5 121t-81.5 42zM185 688q23 0 38.5 -15.5 t15.5 -39.5q0 -23 -15.5 -38t-39.5 -15q-22 0 -37.5 15t-15.5 38t15.5 39t38.5 16zM348 688q23 0 38.5 -15.5t15.5 -39.5q0 -23 -15.5 -38t-39.5 -15q-23 0 -38 15t-15 38t15.5 39t38.5 16z" />
<glyph unicode="&#xf7;" d="M293 226q24 0 41.5 -17.5t17.5 -42.5t-17.5 -42.5t-42.5 -17.5t-42.5 17.5t-17.5 42.5t17.5 42.5t43.5 17.5zM294 566q24 0 41.5 -17.5t17.5 -42.5t-17.5 -42.5t-42.5 -17.5t-42.5 17.5t-17.5 42.5t17.5 42.5t43.5 17.5zM540 383v-93h-494v93h494z" />
<glyph unicode="&#xf8;" horiz-adv-x="529" d="M494 517l-63 -86q36 -47 49.5 -86t13.5 -96q0 -117 -64.5 -188t-171.5 -71q-60 0 -115 31l-39 -53h-69l65 91q-65 83 -65 189q0 114 65 184.5t169 70.5q61 0 120 -34l35 48h70zM361 338l-158 -236q30 -21 61 -21q112 0 112 173q0 48 -15 84zM166 151l164 239 q-28 22 -66 22q-53 0 -82 -43t-29 -121q0 -45 13 -97z" />
<glyph unicode="&#xf9;" horiz-adv-x="539" d="M473 0h-104v107q-10 -31 -21 -48t-31 -33q-43 -36 -104 -36q-79 0 -121 60q-25 38 -25 98v345h114v-321q0 -35 10 -54q20 -33 60 -33q29 0 56.5 19.5t39.5 49.5q15 34 15 102v237h111v-493zM157 726l192 -107l-21 -52l-203 86z" />
<glyph unicode="&#xfa;" horiz-adv-x="539" d="M473 0h-104v107q-10 -31 -21 -48t-31 -33q-43 -36 -104 -36q-79 0 -121 60q-25 38 -25 98v345h114v-321q0 -35 10 -54q20 -33 60 -33q29 0 56.5 19.5t39.5 49.5q15 34 15 102v237h111v-493zM390 726l32 -73l-203 -86l-21 52z" />
<glyph unicode="&#xfb;" horiz-adv-x="539" d="M473 0h-104v107q-10 -31 -21 -48t-31 -33q-43 -36 -104 -36q-79 0 -121 60q-25 38 -25 98v345h114v-321q0 -35 10 -54q20 -33 60 -33q29 0 56.5 19.5t39.5 49.5q15 34 15 102v237h111v-493zM270 721l170 -141l-88 -10l-82 64l-82 -64l-88 10z" />
<glyph unicode="&#xfc;" horiz-adv-x="539" d="M473 0h-104v107q-10 -31 -21 -48t-31 -33q-43 -36 -104 -36q-79 0 -121 60q-25 38 -25 98v345h114v-321q0 -35 10 -54q20 -33 60 -33q29 0 56.5 19.5t39.5 49.5q15 34 15 102v237h111v-493zM187 688q23 0 38.5 -15.5t15.5 -39.5q0 -23 -15.5 -38t-39.5 -15 q-22 0 -37.5 15t-15.5 38t15.5 39t38.5 16zM351 688q23 0 38.5 -15.5t15.5 -39.5q0 -23 -15.5 -38t-39.5 -15q-22 0 -37.5 15t-15.5 38t15.5 39t38.5 16z" />
<glyph unicode="&#xfd;" horiz-adv-x="442" d="M435 493l-192 -562q-20 -57 -51.5 -83t-82.5 -26q-16 0 -64 4v88q20 -1 55 -1q49 0 65 28q6 10 13.5 31t7.5 27q0 4 -10 31l-169 463h116l120 -326l103 326h89zM351 726l32 -73l-203 -86l-21 52z" />
<glyph unicode="&#xfe;" horiz-adv-x="536" d="M178 -167h-111v834h111v-250q46 86 144 86q80 0 126 -65q53 -76 53 -188q0 -121 -58 -199q-45 -61 -129 -61q-90 0 -136 79v-236zM178 272v-70q0 -54 30 -89t77 -35q46 0 72 43.5t26 120.5q0 81 -26 125.5t-73 44.5q-46 0 -76 -39.5t-30 -100.5z" />
<glyph unicode="&#xff;" horiz-adv-x="442" d="M435 493l-192 -562q-20 -57 -51.5 -83t-82.5 -26q-16 0 -64 4v88q20 -1 55 -1q49 0 65 28q6 10 13.5 31t7.5 27q0 4 -10 31l-169 463h116l120 -326l103 326h89zM149 688q23 0 38.5 -15.5t15.5 -39.5q0 -23 -15.5 -38t-39.5 -15q-22 0 -37.5 15t-15.5 38t15.5 39t38.5 16z M312 688q23 0 38.5 -15.5t15.5 -39.5q0 -23 -15.5 -38t-39.5 -15q-23 0 -38 15t-15 38t15.5 39t38.5 16z" />
<glyph unicode="&#x100;" horiz-adv-x="603" d="M596 0h-129l-53 159h-256l-53 -159h-102l221 667h148zM382 255l-97 298l-97 -298h194zM456 820v-63h-314v63h314z" />
<glyph unicode="&#x101;" horiz-adv-x="540" d="M489 0h-107q-13 48 -17 100q-25 -58 -65 -84t-102 -26q-72 0 -117.5 42t-45.5 109q0 118 142 153q68 17 188 17v37q0 76 -105 76q-51 0 -78 -18t-36 -58l-95 14q11 66 65 102q57 39 158 39q122 0 169 -54q19 -21 25 -46.5t6 -80.5v-222q0 -44 15 -100zM365 206v45 q-216 0 -216 -103q0 -34 23 -54t64 -20q58 0 93.5 36.5t35.5 95.5zM423 660v-63h-294v63h294z" />
<glyph unicode="&#x102;" horiz-adv-x="603" d="M596 0h-129l-53 159h-256l-53 -159h-102l221 667h148zM382 255l-97 298l-97 -298h194zM145 859h67q10 -31 30.5 -44.5t58.5 -13.5q37 0 56.5 13.5t29.5 44.5h67q-8 -59 -49.5 -93t-105.5 -34q-65 0 -106.5 34t-47.5 93z" />
<glyph unicode="&#x103;" horiz-adv-x="540" d="M489 0h-107q-13 48 -17 100q-25 -58 -65 -84t-102 -26q-72 0 -117.5 42t-45.5 109q0 118 142 153q68 17 188 17v37q0 76 -105 76q-51 0 -78 -18t-36 -58l-95 14q11 66 65 102q57 39 158 39q122 0 169 -54q19 -21 25 -46.5t6 -80.5v-222q0 -44 15 -100zM365 206v45 q-216 0 -216 -103q0 -34 23 -54t64 -20q58 0 93.5 36.5t35.5 95.5zM128 711h64q6 -34 26 -49.5t59 -15.5q37 0 56.5 15t26.5 50h64q-5 -61 -45 -97.5t-103 -36.5q-66 0 -105.5 36t-42.5 98z" />
<glyph unicode="&#x104;" horiz-adv-x="603" d="M414 159h-256l-53 -159h-102l221 667h148l224 -667q-40 -22 -56.5 -39.5t-16.5 -40.5q0 -47 60 -47q21 0 46 8l10 -39q-42 -17 -81 -17q-49 0 -77 21t-28 58q0 64 86 96h-72zM382 255l-97 298l-97 -298h194z" />
<glyph unicode="&#x105;" horiz-adv-x="540" d="M435 0h-53q-13 48 -17 100q-25 -58 -65 -84t-102 -26q-72 0 -117.5 42t-45.5 109q0 117 142 153q67 17 188 17v37q0 76 -105 76q-51 0 -78 -18t-36 -58l-95 14q11 66 65 102q57 39 158 39q122 0 169 -54q19 -21 25 -46.5t6 -80.5v-222q0 -47 15 -100q-70 -37 -70 -79 q0 -20 14.5 -32.5t38.5 -12.5q19 0 43 9l10 -36q-38 -17 -78 -17q-44 0 -70.5 20.5t-26.5 54.5q0 30 19.5 51.5t65.5 41.5zM365 206v45q-216 0 -216 -103q0 -34 23 -54t64 -20q58 0 93.5 36.5t35.5 95.5z" />
<glyph unicode="&#x106;" horiz-adv-x="579" d="M446 232l111 -13q-8 -54 -22 -86.5t-43 -64.5q-71 -78 -187 -78q-121 0 -186 83q-81 101 -81 261q0 156 73.5 249.5t197.5 93.5q102 0 165.5 -60.5t82.5 -175.5l-111 -12q-17 71 -41 104q-34 47 -95 47q-68 0 -105 -63.5t-37 -179.5q0 -117 38.5 -181.5t107.5 -64.5 q52 0 88 39t44 102zM441 872l30 -74l-210 -71l-20 52z" />
<glyph unicode="&#x107;" horiz-adv-x="466" d="M351 181l96 -10q-15 -69 -46 -109q-55 -72 -156 -72q-94 0 -152 70.5t-58 185.5t61 186t159 71q96 0 147 -62q33 -39 45 -108l-96 -13q-12 92 -90 92q-51 0 -79.5 -45t-28.5 -125q0 -73 27 -114t74 -41q74 0 97 94zM377 726l33 -73l-204 -86l-20 52z" />
<glyph unicode="&#x108;" horiz-adv-x="579" d="M446 232l111 -13q-8 -54 -22 -86.5t-43 -64.5q-71 -78 -187 -78q-121 0 -186 83q-81 101 -81 261q0 156 73.5 249.5t197.5 93.5q102 0 165.5 -60.5t82.5 -175.5l-111 -12q-17 71 -41 104q-34 47 -95 47q-68 0 -105 -63.5t-37 -179.5q0 -117 38.5 -181.5t107.5 -64.5 q52 0 88 39t44 102zM314 867l174 -127l-93 -10l-81 54l-81 -54l-92 10z" />
<glyph unicode="&#x109;" horiz-adv-x="466" d="M258 721l170 -141l-89 -10l-81 64l-82 -64l-88 10zM351 181l96 -10q-15 -69 -46 -109q-55 -72 -156 -72q-94 0 -152 70.5t-58 185.5t61 186t159 71q96 0 147 -62q33 -39 45 -108l-96 -13q-12 92 -90 92q-51 0 -79.5 -45t-28.5 -125q0 -73 27 -114t74 -41q74 0 97 94z" />
<glyph unicode="&#x10a;" horiz-adv-x="579" d="M446 232l111 -13q-8 -54 -22 -86.5t-43 -64.5q-71 -78 -187 -78q-121 0 -186 83q-81 101 -81 261q0 156 73.5 249.5t197.5 93.5q102 0 165.5 -60.5t82.5 -175.5l-111 -12q-17 71 -41 104q-34 47 -95 47q-68 0 -105 -63.5t-37 -179.5q0 -117 38.5 -181.5t107.5 -64.5 q52 0 88 39t44 102zM313 846q23 0 38.5 -15.5t15.5 -39.5q0 -23 -15.5 -38t-39.5 -15q-22 0 -37.5 15t-15.5 38t15.5 39t38.5 16z" />
<glyph unicode="&#x10b;" horiz-adv-x="466" d="M351 181l96 -10q-15 -69 -46 -109q-55 -72 -156 -72q-94 0 -152 70.5t-58 185.5t61 186t159 71q96 0 147 -62q33 -39 45 -108l-96 -13q-12 92 -90 92q-51 0 -79.5 -45t-28.5 -125q0 -73 27 -114t74 -41q74 0 97 94zM260 688q23 0 38.5 -15.5t15.5 -39.5q0 -23 -15.5 -38 t-39.5 -15q-23 0 -38 15t-15 38t15.5 39t38.5 16z" />
<glyph unicode="&#x10c;" horiz-adv-x="579" d="M446 232l111 -13q-8 -54 -22 -86.5t-43 -64.5q-71 -78 -187 -78q-121 0 -186 83q-81 101 -81 261q0 156 73.5 249.5t197.5 93.5q102 0 165.5 -60.5t82.5 -175.5l-111 -12q-17 71 -41 104q-34 47 -95 47q-68 0 -105 -63.5t-37 -179.5q0 -117 38.5 -181.5t107.5 -64.5 q52 0 88 39t44 102zM314 723l-173 128l92 10l81 -55l81 55l93 -10z" />
<glyph unicode="&#x10d;" horiz-adv-x="466" d="M351 181l96 -10q-15 -69 -46 -109q-55 -72 -156 -72q-94 0 -152 70.5t-58 185.5t61 186t159 71q96 0 147 -62q33 -39 45 -108l-96 -13q-12 92 -90 92q-51 0 -79.5 -45t-28.5 -125q0 -73 27 -114t74 -41q74 0 97 94zM261 563l-170 141l89 10l81 -64l82 64l88 -10z" />
<glyph unicode="&#x10e;" horiz-adv-x="655" d="M70 0v667h245q126 0 206 -83q95 -98 95 -249q0 -174 -115 -269q-79 -66 -213 -66h-218zM193 98h100q88 0 140.5 65t52.5 174q0 103 -50 169t-129 66h-114v-474zM295 723l-173 128l92 10l81 -55l81 55l93 -10z" />
<glyph unicode="&#x10f;" horiz-adv-x="645" d="M472 0h-104v99q-23 -57 -58 -83t-87 -26q-83 0 -132 63q-25 33 -40.5 88t-15.5 112q0 128 69 206q46 54 125 54q92 0 132 -87v241h111v-667zM361 207v84q0 59 -26 90q-31 37 -76 37q-51 0 -78.5 -44.5t-27.5 -126.5q0 -166 103 -166q44 0 74.5 36.5t30.5 89.5zM645 667 l-86 -194h-44l30 194h100z" />
<glyph unicode="&#x110;" horiz-adv-x="655" d="M3 294v93h67v280h246q124 0 206 -83q95 -98 95 -248q0 -174 -115 -270q-81 -66 -213 -66h-219v294h-67zM193 294v-196h101q88 0 140.5 65t52.5 174q0 103 -50 169t-129 66h-115v-185h165v-93h-165z" />
<glyph unicode="&#x111;" horiz-adv-x="538" d="M361 667h111v-57h66v-60h-66v-550h-104v99q-45 -109 -146 -109q-82 0 -131 63q-25 32 -40.5 87.5t-15.5 112.5q0 126 69 206q45 54 125 54q92 0 132 -87v124h-134v60h134v57zM361 207v84q0 59 -26 90q-31 37 -77 37q-50 0 -77.5 -44.5t-27.5 -126.5q0 -166 103 -166 q44 0 74.5 36.5t30.5 89.5z" />
<glyph unicode="&#x112;" horiz-adv-x="537" d="M506 0h-433v667h429v-99h-309v-181h248v-97h-248v-187h313v-103zM450 820v-63h-314v63h314z" />
<glyph unicode="&#x113;" horiz-adv-x="524" d="M380 158l101 -14q-51 -154 -219 -154q-103 0 -165 69.5t-62 185.5t64 187t168 71q107 0 164 -70t58 -200h-338v-14q1 -67 31.5 -104t86.5 -37q43 0 68.5 18.5t42.5 61.5zM151 305h223q-3 47 -25 77q-32 43 -86 43q-47 0 -76 -31t-36 -89zM423 660v-63h-294v63h294z" />
<glyph unicode="&#x114;" horiz-adv-x="537" d="M506 0h-433v667h429v-99h-309v-181h248v-97h-248v-187h313v-103zM139 859h66q10 -31 30.5 -44.5t58.5 -13.5q37 0 56.5 13.5t30.5 44.5h66q-8 -59 -49 -93t-105 -34q-65 0 -106.5 34t-47.5 93z" />
<glyph unicode="&#x115;" horiz-adv-x="524" d="M380 158l101 -14q-51 -154 -219 -154q-103 0 -165 69.5t-62 185.5t64 187t168 71q107 0 164 -70t58 -200h-338v-14q1 -67 31.5 -104t86.5 -37q43 0 68.5 18.5t42.5 61.5zM151 305h223q-3 47 -25 77q-32 43 -86 43q-47 0 -76 -31t-36 -89zM127 711h64q7 -35 27 -50t59 -15 q37 0 56.5 15t26.5 50h64q-5 -61 -45 -97.5t-103 -36.5q-66 0 -105.5 36t-43.5 98z" />
<glyph unicode="&#x116;" horiz-adv-x="537" d="M506 0h-433v667h429v-99h-309v-181h248v-97h-248v-187h313v-103zM292 846q23 0 38.5 -15.5t15.5 -39.5q0 -23 -15.5 -38t-39.5 -15q-23 0 -38 15t-15 38t15.5 39t38.5 16z" />
<glyph unicode="&#x117;" horiz-adv-x="524" d="M380 158l101 -14q-51 -154 -219 -154q-103 0 -165 69.5t-62 185.5t64 187t168 71q107 0 164 -70t58 -200h-338v-14q1 -67 31.5 -104t86.5 -37q43 0 68.5 18.5t42.5 61.5zM151 305h223q-3 47 -25 77q-32 43 -86 43q-47 0 -76 -31t-36 -89zM275 688q23 0 38.5 -15.5 t15.5 -39.5q0 -23 -15.5 -38t-39.5 -15q-22 0 -37.5 15t-15.5 38t15.5 39t38.5 16z" />
<glyph unicode="&#x118;" horiz-adv-x="537" d="M73 0v667h429v-99h-309v-181h248v-97h-248v-187h313v-103q-42 -24 -57 -40.5t-15 -39.5q0 -47 60 -47q20 0 45 8l10 -39q-42 -17 -80 -17q-49 0 -77 21t-28 58q0 64 85 96h-376z" />
<glyph unicode="&#x119;" horiz-adv-x="524" d="M416 -112l10 -36q-37 -17 -78 -17q-43 0 -70 20.5t-27 53.5q0 27 15.5 46.5t52.5 39.5q-35 -5 -58 -5q-103 0 -164.5 69.5t-61.5 185.5t64 187t168 71q107 0 164 -70t58 -200h-338v-14q1 -68 31.5 -105t86.5 -37q43 0 68.5 18.5t42.5 62.5l101 -14q-12 -40 -35.5 -69.5 t-74.5 -69.5q-51 -41 -51 -82q0 -20 14.5 -32t38.5 -12q19 0 43 9zM151 305h223q-3 47 -25 77q-32 43 -86 43q-47 0 -76 -31t-36 -89z" />
<glyph unicode="&#x11a;" horiz-adv-x="537" d="M506 0h-433v667h429v-99h-309v-181h248v-97h-248v-187h313v-103zM293 723l-174 128l93 10l81 -55l81 55l93 -10z" />
<glyph unicode="&#x11b;" horiz-adv-x="524" d="M380 158l101 -14q-51 -154 -219 -154q-103 0 -165 69.5t-62 185.5t64 187t168 71q107 0 164 -70t58 -200h-338v-14q1 -67 31.5 -104t86.5 -37q43 0 68.5 18.5t42.5 61.5zM151 305h223q-3 47 -25 77q-32 43 -86 43q-47 0 -76 -31t-36 -89zM276 563l-170 141l88 10l82 -64 l81 64l88 -10z" />
<glyph unicode="&#x11c;" horiz-adv-x="642" d="M579 341v-341h-53l-37 90q-62 -100 -180 -100q-134 0 -203 102q-68 100 -68 243q0 142 73 240q75 102 212 102q119 0 191 -85q39 -44 57 -119l-105 -18q-12 48 -30 71q-41 51 -110 51q-72 0 -114 -55q-47 -61 -47 -181q0 -252 158 -252q92 0 130 85q13 28 13 70h-138v97 h251zM332 867l173 -127l-92 -10l-81 54l-81 -54l-93 10z" />
<glyph unicode="&#x11d;" horiz-adv-x="518" d="M266 744l157 -141l-88 -10l-69 65l-68 -65l-88 10zM210 120h147q71 0 115.5 -37.5t44.5 -97.5q0 -75 -68.5 -118.5t-187.5 -43.5q-239 0 -239 134q0 35 16 57t56 43q-26 23 -36 40.5t-10 40.5q0 34 18.5 57.5t60.5 45.5q-38 25 -53.5 50.5t-15.5 62.5q0 59 42 99 q53 50 165 50q73 0 123 -27q19 35 42 50t57 15q17 0 33 -3l41 -9l-18 -83l-33 7q-15 3 -29 3q-22 0 -43 -20q31 -37 31 -81q0 -66 -56 -108.5t-144 -42.5q-36 0 -92 13q-34 -18 -34 -47q0 -23 18 -36.5t49 -13.5zM266 433q-42 0 -67.5 -22.5t-25.5 -59.5t25 -59t66 -22 q42 0 66.5 21t24.5 57q0 41 -23 63t-66 22zM340 15h-118q-37 0 -80 12q-24 -23 -24 -43q0 -39 45 -62t122 -23q128 0 128 66q0 23 -20 36.5t-53 13.5z" />
<glyph unicode="&#x11e;" horiz-adv-x="642" d="M579 341v-341h-53l-37 90q-62 -100 -180 -100q-134 0 -203 102q-68 100 -68 243q0 142 73 240q75 102 212 102q119 0 191 -85q39 -44 57 -119l-105 -18q-12 48 -30 71q-41 51 -110 51q-72 0 -114 -55q-47 -61 -47 -181q0 -252 158 -252q92 0 130 85q13 28 13 70h-138v97 h251zM174 859h67q10 -31 30.5 -44.5t58.5 -13.5q36 0 56 13.5t30 44.5h67q-8 -59 -49.5 -93t-105.5 -34q-65 0 -106.5 34t-47.5 93z" />
<glyph unicode="&#x11f;" horiz-adv-x="518" d="M121 711h64q7 -35 27 -50t59 -15q37 0 56.5 15t26.5 50h64q-5 -61 -45 -97.5t-103 -36.5q-66 0 -105.5 36t-43.5 98zM210 120h147q71 0 115.5 -37.5t44.5 -97.5q0 -75 -68.5 -118.5t-187.5 -43.5q-239 0 -239 134q0 35 16 57t56 43q-26 23 -36 40.5t-10 40.5 q0 34 18.5 57.5t60.5 45.5q-38 25 -53.5 50.5t-15.5 62.5q0 59 42 99q53 50 165 50q73 0 123 -27q19 35 42 50t57 15q17 0 33 -3l41 -9l-18 -83l-33 7q-15 3 -29 3q-22 0 -43 -20q31 -37 31 -81q0 -66 -56 -108.5t-144 -42.5q-36 0 -92 13q-34 -18 -34 -47q0 -23 18 -36.5 t49 -13.5zM266 433q-42 0 -67.5 -22.5t-25.5 -59.5t25 -59t66 -22q42 0 66.5 21t24.5 57q0 41 -23 63t-66 22zM340 15h-118q-37 0 -80 12q-24 -23 -24 -43q0 -39 45 -62t122 -23q128 0 128 66q0 23 -20 36.5t-53 13.5z" />
<glyph unicode="&#x120;" horiz-adv-x="642" d="M579 341v-341h-53l-37 90q-62 -100 -180 -100q-134 0 -203 102q-68 100 -68 243q0 142 73 240q75 102 212 102q119 0 191 -85q39 -44 57 -119l-105 -18q-12 48 -30 71q-41 51 -110 51q-72 0 -114 -55q-47 -61 -47 -181q0 -252 158 -252q92 0 130 85q13 28 13 70h-138v97 h251zM329 846q23 0 38.5 -15.5t15.5 -39.5q0 -23 -15.5 -38t-39.5 -15q-22 0 -37.5 15t-15.5 38t15.5 39t38.5 16z" />
<glyph unicode="&#x121;" horiz-adv-x="518" d="M269 688q23 0 38.5 -15.5t15.5 -39.5q0 -23 -15.5 -38t-39.5 -15q-22 0 -37.5 15t-15.5 38t15.5 39t38.5 16zM210 120h147q71 0 115.5 -37.5t44.5 -97.5q0 -75 -68.5 -118.5t-187.5 -43.5q-239 0 -239 134q0 35 16 57t56 43q-26 23 -36 40.5t-10 40.5q0 34 18.5 57.5 t60.5 45.5q-38 25 -53.5 50.5t-15.5 62.5q0 59 42 99q53 50 165 50q73 0 123 -27q19 35 42 50t57 15q17 0 33 -3l41 -9l-18 -83l-33 7q-15 3 -29 3q-22 0 -43 -20q31 -37 31 -81q0 -66 -56 -108.5t-144 -42.5q-36 0 -92 13q-34 -18 -34 -47q0 -23 18 -36.5t49 -13.5z M266 433q-42 0 -67.5 -22.5t-25.5 -59.5t25 -59t66 -22q42 0 66.5 21t24.5 57q0 41 -23 63t-66 22zM340 15h-118q-37 0 -80 12q-24 -23 -24 -43q0 -39 45 -62t122 -23q128 0 128 66q0 23 -20 36.5t-53 13.5z" />
<glyph unicode="&#x122;" horiz-adv-x="642" d="M579 341v-341h-53l-37 90q-62 -100 -180 -100q-134 0 -203 102q-68 100 -68 243q0 142 73 240q75 102 212 102q119 0 191 -85q39 -44 57 -119l-105 -18q-12 48 -30 71q-41 51 -110 51q-72 0 -114 -55q-47 -61 -47 -181q0 -252 158 -252q92 0 130 85q13 28 13 70h-138v97 h251zM380 -53l-86 -181h-44l30 181h100z" />
<glyph unicode="&#x123;" horiz-adv-x="518" d="M218 579l86 181h44l-30 -181h-100zM210 120h147q71 0 115.5 -37.5t44.5 -97.5q0 -75 -68.5 -118.5t-187.5 -43.5q-239 0 -239 134q0 35 16 57t56 43q-26 23 -36 40.5t-10 40.5q0 34 18.5 57.5t60.5 45.5q-38 25 -53.5 50.5t-15.5 62.5q0 59 42 99q53 50 165 50 q73 0 123 -27q19 35 42 50t57 15q17 0 33 -3l41 -9l-18 -83l-33 7q-15 3 -29 3q-22 0 -43 -20q31 -37 31 -81q0 -66 -56 -108.5t-144 -42.5q-36 0 -92 13q-34 -18 -34 -47q0 -23 18 -36.5t49 -13.5zM266 433q-42 0 -67.5 -22.5t-25.5 -59.5t25 -59t66 -22q42 0 66.5 21 t24.5 57q0 41 -23 63t-66 22zM340 15h-118q-37 0 -80 12q-24 -23 -24 -43q0 -39 45 -62t122 -23q128 0 128 66q0 23 -20 36.5t-53 13.5z" />
<glyph unicode="&#x124;" horiz-adv-x="641" d="M568 0h-120v290h-255v-290h-120v667h120v-274h255v274h120v-667zM320 867l174 -127l-93 -10l-81 54l-81 -54l-92 10z" />
<glyph unicode="&#x125;" horiz-adv-x="542" d="M475 0h-111v323q0 95 -76 95q-28 0 -52.5 -15t-37.5 -39q-21 -39 -21 -108v-256h-111v667h111v-260q23 56 58.5 81.5t88.5 25.5q89 0 127 -63q24 -43 24 -112v-339zM131 867l173 -127l-93 -10l-80 54l-81 -54l-93 10z" />
<glyph unicode="&#x126;" horiz-adv-x="641" d="M7 482v93h67v92h120v-92h254v92h120v-92h67v-93h-67v-482h-120v290h-254v-290h-120v482h-67zM194 482v-89h254v89h-254z" />
<glyph unicode="&#x127;" horiz-adv-x="542" d="M0 550v60h67v57h111v-57h140v-60h-140v-143q45 106 146 106q89 0 127 -63q24 -41 24 -111v-339h-111v323q0 94 -75 94q-28 0 -52.5 -15t-37.5 -39q-21 -39 -21 -107v-256h-111v550h-67z" />
<glyph unicode="&#x128;" horiz-adv-x="267" d="M193 0h-120v667h120v-667zM264 847l35 -50q-41 -57 -104 -57q-26 0 -76 23q-37 18 -49 18q-27 0 -67 -39l-35 50q48 57 102 57q27 0 69 -19q47 -21 68 -21q17 0 29 8t28 30z" />
<glyph unicode="&#x129;" horiz-adv-x="245" d="M247 694l34 -50q-14 -24 -42.5 -40.5t-57.5 -16.5t-73 23q-34 18 -50 18q-23 0 -61 -39l-34 50q47 57 98 57q24 0 66 -19q45 -21 66 -21q28 0 54 38zM177 0h-111v493h111v-493z" />
<glyph unicode="&#x12a;" horiz-adv-x="267" d="M193 0h-120v667h120v-667zM254 820v-63h-241v63h241z" />
<glyph unicode="&#x12b;" horiz-adv-x="245" d="M177 0h-111v493h111v-493zM239 660v-63h-234v63h234z" />
<glyph unicode="&#x12c;" horiz-adv-x="267" d="M193 0h-120v667h120v-667zM-21 859h67q10 -31 30 -44.5t58 -13.5q37 0 56.5 13.5t30.5 44.5h67q-8 -59 -49.5 -93t-105.5 -34q-65 0 -106.5 34t-47.5 93z" />
<glyph unicode="&#x12d;" horiz-adv-x="245" d="M178 0h-111v493h111v-493zM-9 711h64q13 -64 67 -64q29 0 45 15t23 49h64q-4 -58 -41.5 -95.5t-90.5 -37.5q-56 0 -92 36.5t-39 96.5z" />
<glyph unicode="&#x12e;" horiz-adv-x="267" d="M193 667v-667q-63 -41 -63 -80q0 -20 15 -33.5t37 -13.5q12 0 37 8l10 -39q-41 -17 -70 -17q-44 0 -71.5 21.5t-27.5 56.5q0 57 76 97h-63v667h120z" />
<glyph unicode="&#x12f;" horiz-adv-x="245" d="M177 493v-493q-56 -44 -56 -80q0 -19 11.5 -31t29.5 -12q13 0 34 8l11 -36q-41 -17 -67 -17q-37 0 -62.5 22t-25.5 53q0 28 16.5 48t58.5 45h-61v493h111zM177 551h-111v116h111v-116z" />
<glyph unicode="&#x130;" horiz-adv-x="267" d="M193 0h-120v667h120v-667zM132 846q23 0 38.5 -15.5t15.5 -39.5q0 -23 -15.5 -38t-39.5 -15q-23 0 -38 15t-15 38t15.5 39t38.5 16z" />
<glyph unicode="&#x131;" horiz-adv-x="245" d="M178 0h-111v493h111v-493z" />
<glyph unicode="&#x132;" horiz-adv-x="631" d="M193 0h-120v667h120v-667zM564 667v-460q0 -100 -34 -147q-51 -70 -173 -70q-56 0 -97 10v97q52 -4 78 -4q56 0 81 24q22 18 22 90v460h123z" />
<glyph unicode="&#x133;" horiz-adv-x="486" d="M420 493v-507q0 -184 -170 -184q-27 0 -57 6v94q18 -2 37 -2q47 0 63 17.5t16 68.5v507h111zM420 551h-111v116h111v-116zM178 0h-111v493h111v-493zM178 551h-111v116h111v-116z" />
<glyph unicode="&#x134;" horiz-adv-x="371" d="M304 667v-460q0 -100 -34 -147q-28 -38 -68 -54t-107 -16q-55 0 -95 10v97q65 -4 77 -4q65 0 89 30q15 20 15 84v460h123zM242 867l174 -127l-93 -10l-81 54l-81 -54l-92 10z" />
<glyph unicode="&#x135;" horiz-adv-x="245" d="M177 493v-507q0 -184 -169 -184q-27 0 -57 6v94q18 -2 37 -2q46 0 62 17.5t16 68.5v507h111zM124 721l170 -141l-88 -10l-82 64l-81 -64l-88 10z" />
<glyph unicode="&#x136;" horiz-adv-x="614" d="M597 0h-134l-141 340l-129 -171v-169h-120v667h120v-351l33 50l222 301h121l-158 -219zM374 -53l-86 -181h-45l30 181h101z" />
<glyph unicode="&#x137;" horiz-adv-x="532" d="M526 0h-117l-126 258l-109 -125v-133h-107v667h107v-409q11 16 22 28l195 217h120l-148 -166zM342 -53l-86 -181h-45l30 181h101z" />
<glyph unicode="&#x138;" horiz-adv-x="532" d="M526 0h-117l-126 253l-109 -123v-130h-107v493h107v-240q6 8 13.5 17.5t8.5 10.5l195 212h120l-148 -163z" />
<glyph unicode="&#x139;" horiz-adv-x="498" d="M483 0h-410v667h127v-558h283v-109zM270 872l30 -74l-211 -71l-19 52z" />
<glyph unicode="&#x13a;" horiz-adv-x="245" d="M178 0h-111v667h111v-667zM238 872l30 -74l-191 -71l-19 52z" />
<glyph unicode="&#x13b;" horiz-adv-x="498" d="M483 0h-410v667h127v-558h283v-109zM340 -53l-86 -181h-45l30 181h101z" />
<glyph unicode="&#x13c;" horiz-adv-x="245" d="M178 0h-111v667h111v-667zM177 -53l-86 -181h-44l30 181h100z" />
<glyph unicode="&#x13d;" horiz-adv-x="498" d="M483 0h-410v667h127v-558h283v-109zM413 667l-86 -194h-44l30 194h100z" />
<glyph unicode="&#x13e;" horiz-adv-x="352" d="M178 0h-111v667h111v-667zM352 667l-86 -194h-44l30 194h100z" />
<glyph unicode="&#x13f;" horiz-adv-x="498" d="M483 0h-410v667h127v-558h283v-109zM446 406v-128h-121v128h121z" />
<glyph unicode="&#x140;" horiz-adv-x="359" d="M178 0h-111v667h111v-667zM360 403v-122h-115v122h115z" />
<glyph unicode="&#x141;" horiz-adv-x="498" d="M484 109v-109h-410v222l-67 -68v115l67 68v330h127v-244l135 137v-115l-135 -137v-199h283z" />
<glyph unicode="&#x142;" horiz-adv-x="251" d="M181 0h-111v282l-63 -67v82l63 67v303h111v-225l64 67v-82l-64 -67v-360z" />
<glyph unicode="&#x143;" horiz-adv-x="650" d="M576 0h-110l-260 426l-18 36l-18 36v-498h-97v667h133l233 -393q0 -1 3 -6.5t8 -14.5t9 -16l22 -43v473h95v-667zM458 872l30 -74l-211 -71l-19 52z" />
<glyph unicode="&#x144;" horiz-adv-x="541" d="M475 0h-111v308q0 45 -21 71.5t-56 26.5q-28 0 -52.5 -16.5t-38.5 -44.5q-18 -36 -18 -92v-253h-111v493h101v-114q31 67 66 95.5t85 28.5q43 0 81 -20.5t54 -52.5q21 -41 21 -112v-318zM385 726l32 -73l-204 -86l-20 52z" />
<glyph unicode="&#x145;" horiz-adv-x="650" d="M576 0h-110l-260 426l-18 36l-18 36v-498h-97v667h133l233 -393q0 -1 3 -6.5t8 -14.5t9 -16l22 -43v473h95v-667zM377 -53l-86 -181h-45l30 181h101z" />
<glyph unicode="&#x146;" horiz-adv-x="541" d="M475 0h-111v308q0 45 -21 71.5t-56 26.5q-28 0 -52.5 -16.5t-38.5 -44.5q-18 -36 -18 -92v-253h-111v493h101v-114q31 67 66 95.5t85 28.5q43 0 81 -20.5t54 -52.5q21 -41 21 -112v-318zM330 -53l-86 -181h-45l30 181h101z" />
<glyph unicode="&#x147;" horiz-adv-x="650" d="M576 0h-110l-260 426l-18 36l-18 36v-498h-97v667h133l233 -393q0 -1 3 -6.5t8 -14.5t9 -16l22 -43v473h95v-667zM328 723l-174 128l93 10l81 -55l81 55l93 -10z" />
<glyph unicode="&#x148;" horiz-adv-x="541" d="M475 0h-111v308q0 45 -21 71.5t-56 26.5q-28 0 -52.5 -16.5t-38.5 -44.5q-18 -36 -18 -92v-253h-111v493h101v-114q31 67 66 95.5t85 28.5q43 0 81 -20.5t54 -52.5q21 -41 21 -112v-318zM264 563l-169 141l88 10l81 -64l82 64l88 -10z" />
<glyph unicode="&#x149;" horiz-adv-x="692" d="M625 0h-111v308q0 45 -21 71.5t-56 26.5q-28 0 -52.5 -16.5t-38.5 -44.5q-18 -36 -18 -92v-253h-111v493h101v-114q31 67 66 95.5t85 28.5q43 0 81 -20.5t54 -52.5q21 -41 21 -112v-318zM174 667v-110l-75 -131h-36l54 131h-54v110h111z" />
<glyph unicode="&#x14a;" horiz-adv-x="641" d="M73 0v667h106v-114q40 66 83.5 95t104.5 29q56 0 104.5 -27t70.5 -71q26 -55 26 -149v-380q0 -73 -13.5 -116.5t-45.5 -74.5q-55 -54 -154 -54q-34 0 -67 9v91q29 -6 52 -6q63 0 85.5 26t22.5 99v424q0 61 -28.5 96.5t-77.5 35.5q-38 0 -71.5 -22.5t-52.5 -60.5 q-25 -47 -25 -123v-374h-120z" />
<glyph unicode="&#x14b;" horiz-adv-x="541" d="M67 0v493h101v-114q31 67 66 95.5t85 28.5q43 0 81 -20.5t54 -52.5q21 -41 21 -112v-331q0 -185 -170 -185q-27 0 -57 6v95q27 -3 37 -3q47 0 63 17.5t16 69.5v321q0 45 -21 71.5t-57 26.5q-49 0 -78.5 -41.5t-29.5 -111.5v-253h-111z" />
<glyph unicode="&#x14c;" horiz-adv-x="643" d="M324 677q128 0 204.5 -95t76.5 -254q0 -151 -79 -244.5t-207 -93.5q-134 0 -207 99q-74 100 -74 247q0 150 80 245.5t206 95.5zM323 580q-85 0 -120 -69q-35 -67 -35 -179q0 -119 39 -182t113 -63q40 0 74 21t51 56q30 60 30 162q0 254 -152 254zM478 820v-63h-314v63 h314z" />
<glyph unicode="&#x14d;" horiz-adv-x="529" d="M266 503q123 0 187 -101q41 -66 41 -156q0 -113 -65 -184.5t-169 -71.5q-115 0 -176 91q-49 71 -49 167q0 113 64.5 184t166.5 71zM266 412q-54 0 -83.5 -43t-29.5 -122q0 -80 29 -123t82 -43q54 0 83 43.5t29 124.5q0 79 -28.5 121t-81.5 42zM415 660v-63h-294v63h294z " />
<glyph unicode="&#x14e;" horiz-adv-x="643" d="M324 677q128 0 204.5 -95t76.5 -254q0 -151 -79 -244.5t-207 -93.5q-134 0 -207 99q-74 100 -74 247q0 150 80 245.5t206 95.5zM323 580q-85 0 -120 -69q-35 -67 -35 -179q0 -119 39 -182t113 -63q40 0 74 21t51 56q30 60 30 162q0 254 -152 254zM167 859h67 q10 -31 30 -44.5t58 -13.5q37 0 56.5 13.5t30.5 44.5h67q-8 -59 -49.5 -93t-105.5 -34q-65 0 -106.5 34t-47.5 93z" />
<glyph unicode="&#x14f;" horiz-adv-x="529" d="M266 503q123 0 187 -101q41 -66 41 -156q0 -113 -65 -184.5t-169 -71.5q-115 0 -176 91q-49 71 -49 167q0 113 64.5 184t166.5 71zM266 412q-54 0 -83.5 -43t-29.5 -122q0 -80 29 -123t82 -43q54 0 83 43.5t29 124.5q0 79 -28.5 121t-81.5 42zM116 711h64q7 -34 27 -49.5 t58 -15.5t57.5 15t25.5 50h65q-4 -61 -45 -97.5t-104 -36.5q-65 0 -104.5 36t-43.5 98z" />
<glyph unicode="&#x150;" horiz-adv-x="643" d="M324 677q128 0 204.5 -95t76.5 -254q0 -151 -79 -244.5t-207 -93.5q-134 0 -207 99q-74 100 -74 247q0 150 80 245.5t206 95.5zM323 580q-85 0 -120 -69q-35 -67 -35 -179q0 -119 39 -182t113 -63q40 0 74 21t51 56q30 60 30 162q0 254 -152 254zM333 872l43 -64 l-160 -81l-29 42zM520 872l43 -64l-160 -81l-30 42z" />
<glyph unicode="&#x151;" horiz-adv-x="529" d="M266 503q123 0 187 -101q41 -66 41 -156q0 -113 -65 -184.5t-169 -71.5q-115 0 -176 91q-49 71 -49 167q0 113 64.5 184t166.5 71zM266 412q-54 0 -83.5 -43t-29.5 -122q0 -80 29 -123t82 -43q54 0 83 43.5t29 124.5q0 79 -28.5 121t-81.5 42zM293 726l46 -57l-161 -102 l-35 42zM459 726l46 -57l-160 -102l-29 42z" />
<glyph unicode="&#x152;" horiz-adv-x="940" d="M465 667h444v-97h-324v-183h258v-95h-258v-189h324v-103h-444v33q-66 -43 -147 -43q-125 0 -202.5 96.5t-77.5 250.5q0 153 75.5 247t199.5 94q84 0 152 -41v30zM465 214v234q-4 58 -34 88q-41 44 -104 44q-70 0 -114 -55q-45 -56 -45 -182q0 -252 154 -252q64 0 112 43 q17 15 23.5 32t7.5 48z" />
<glyph unicode="&#x153;" horiz-adv-x="844" d="M809 234h-337q0 -74 30.5 -113.5t88.5 -39.5q83 0 109 76l102 -16q-11 -38 -43 -75q-36 -41 -76 -58.5t-97 -17.5q-59 0 -97.5 17t-66.5 57q-35 -41 -71 -57.5t-91 -16.5q-104 0 -163 72q-62 74 -62 185q0 114 63.5 185t165.5 71q101 0 158 -74q32 40 70 57t96 17 q104 0 162.5 -67t58.5 -185v-17zM473 303h222q-2 55 -31.5 86.5t-78.5 31.5q-101 0 -112 -118zM260 412q-52 0 -81 -44.5t-29 -124.5q0 -77 28.5 -119.5t80.5 -42.5q54 0 83 44.5t29 128.5q0 73 -22 109q-28 49 -89 49z" />
<glyph unicode="&#x154;" horiz-adv-x="643" d="M593 0h-127l-104 274h-169v-274h-120v667h289q114 0 174 -52t60 -144q0 -125 -120 -177zM193 370h150q62 0 95 27t33 76q0 45 -31.5 71.5t-86.5 26.5h-160v-201zM439 872l30 -74l-210 -71l-19 52z" />
<glyph unicode="&#x155;" horiz-adv-x="331" d="M178 0h-111v493h101v-118q17 64 57.5 100t92.5 32v-120h-7l-19 -1q-48 -2 -81 -47t-33 -111v-228zM319 726l32 -73l-203 -86l-21 52z" />
<glyph unicode="&#x156;" horiz-adv-x="643" d="M593 0h-127l-104 274h-169v-274h-120v667h289q114 0 174 -52t60 -144q0 -125 -120 -177zM193 370h150q62 0 95 27t33 76q0 45 -31.5 71.5t-86.5 26.5h-160v-201zM376 -53l-86 -181h-44l30 181h100z" />
<glyph unicode="&#x157;" horiz-adv-x="331" d="M178 0h-111v493h101v-118q17 64 57.5 100t92.5 32v-120h-7l-19 -1q-48 -2 -81 -47t-33 -111v-228zM177 -53l-86 -181h-44l30 181h100z" />
<glyph unicode="&#x158;" horiz-adv-x="643" d="M593 0h-127l-104 274h-169v-274h-120v667h289q114 0 174 -52t60 -144q0 -125 -120 -177zM193 370h150q62 0 95 27t33 76q0 45 -31.5 71.5t-86.5 26.5h-160v-201zM312 723l-173 128l92 10l81 -55l81 55l93 -10z" />
<glyph unicode="&#x159;" horiz-adv-x="331" d="M193 563l-170 141l88 10l82 -64l81 64l89 -10zM178 0h-111v493h101v-118q17 64 57.5 100t92.5 32v-120h-7l-19 -1q-48 -2 -81 -47t-33 -111v-228z" />
<glyph unicode="&#x15a;" horiz-adv-x="571" d="M3 161l116 25q13 -44 38 -64q43 -35 125 -35q61 0 96.5 25.5t35.5 68.5q0 59 -83 81l-128 33q-94 25 -126 68q-39 49 -39 115q0 89 65 144t171 55q111 0 184 -58q41 -34 56 -86l-114 -28q-26 75 -125 75q-52 0 -83 -22.5t-31 -59.5q0 -57 93 -81l114 -28q105 -28 141 -82 q32 -47 32 -108q0 -95 -72.5 -152t-193.5 -57q-125 0 -205 63q-44 36 -67 108zM407 872l30 -74l-210 -71l-20 52z" />
<glyph unicode="&#x15b;" horiz-adv-x="454" d="M7 113l104 20q16 -33 40 -46.5t69 -13.5q47 0 73.5 16t26.5 45q0 18 -14.5 31t-39.5 18l-90 18q-76 14 -112.5 49.5t-36.5 95.5q0 61 39 103q50 54 151 54q155 0 190 -114l-100 -21q-10 30 -31 43t-59 13q-40 0 -63.5 -14.5t-23.5 -38.5q0 -42 71 -56l106 -22 q124 -24 124 -143q0 -73 -58.5 -116.5t-156.5 -43.5q-95 0 -158 46q-35 27 -51 77zM345 726l33 -73l-204 -86l-20 52z" />
<glyph unicode="&#x15c;" horiz-adv-x="571" d="M3 161l116 25q13 -44 38 -64q43 -35 125 -35q61 0 96.5 25.5t35.5 68.5q0 59 -83 81l-128 33q-94 25 -126 68q-39 49 -39 115q0 89 65 144t171 55q111 0 184 -58q41 -34 56 -86l-114 -28q-26 75 -125 75q-52 0 -83 -22.5t-31 -59.5q0 -57 93 -81l114 -28q105 -28 141 -82 q32 -47 32 -108q0 -95 -72.5 -152t-193.5 -57q-125 0 -205 63q-44 36 -67 108zM282 867l174 -127l-93 -10l-81 54l-81 -54l-93 10z" />
<glyph unicode="&#x15d;" horiz-adv-x="454" d="M7 113l104 20q16 -33 40 -46.5t69 -13.5q47 0 73.5 16t26.5 45q0 18 -14.5 31t-39.5 18l-90 18q-76 14 -112.5 49.5t-36.5 95.5q0 61 39 103q50 54 151 54q155 0 190 -114l-100 -21q-10 30 -31 43t-59 13q-40 0 -63.5 -14.5t-23.5 -38.5q0 -42 71 -56l106 -22 q124 -24 124 -143q0 -73 -58.5 -116.5t-156.5 -43.5q-95 0 -158 46q-35 27 -51 77zM226 721l169 -141l-88 -10l-81 64l-82 -64l-88 10z" />
<glyph unicode="&#x15e;" horiz-adv-x="571" d="M267 -10l-12 -39q112 -3 112 -79q0 -37 -28 -60t-72 -23q-43 0 -110 30l16 39q59 -24 82 -24q20 0 32 10t12 26q0 43 -73 43q-8 0 -28 -2l26 81q-182 26 -221 169l116 25q13 -44 38 -64q43 -35 125 -35q61 0 96.5 25.5t35.5 68.5q0 59 -83 81l-128 33q-94 25 -126 68 q-39 49 -39 115q0 89 65 144t171 55q111 0 184 -58q40 -32 56 -86l-114 -29q-26 76 -125 76q-52 0 -83 -22.5t-31 -59.5q0 -57 93 -81l114 -28q105 -28 141 -82q32 -47 32 -108q0 -126 -121 -181q-60 -28 -153 -28z" />
<glyph unicode="&#x15f;" horiz-adv-x="454" d="M215 -10l-10 -36q43 -3 63 -13q41 -22 41 -65q0 -34 -27 -57t-67 -23q-34 0 -99 29l16 39q42 -24 75 -24q16 0 27.5 10t11.5 24q0 19 -20 30.5t-54 11.5q-12 0 -22 -1l25 77q-140 19 -168 121l104 20q16 -33 40 -46.5t69 -13.5q47 0 73.5 16t26.5 45q0 18 -14.5 31 t-39.5 18l-90 17q-77 15 -113 50.5t-36 95.5q0 59 39 103q50 54 151 54q155 0 190 -115l-100 -20q-10 30 -31 43t-59 13q-39 0 -63 -14.5t-24 -38.5q0 -42 71 -56l106 -22q124 -26 124 -143q0 -74 -58 -117t-158 -43z" />
<glyph unicode="&#x160;" horiz-adv-x="571" d="M3 161l116 25q13 -44 38 -64q43 -35 125 -35q61 0 96.5 25.5t35.5 68.5q0 59 -83 81l-128 33q-94 25 -126 68q-39 49 -39 115q0 89 65 144t171 55q111 0 184 -58q41 -34 56 -86l-114 -28q-26 75 -125 75q-52 0 -83 -22.5t-31 -59.5q0 -57 93 -81l114 -28q105 -28 141 -82 q32 -47 32 -108q0 -95 -72.5 -152t-193.5 -57q-125 0 -205 63q-44 36 -67 108zM282 723l-174 128l93 10l81 -55l81 55l93 -10z" />
<glyph unicode="&#x161;" horiz-adv-x="454" d="M7 113l104 20q16 -33 40 -46.5t69 -13.5q47 0 73.5 16t26.5 45q0 18 -14.5 31t-39.5 18l-90 18q-76 14 -112.5 49.5t-36.5 95.5q0 61 39 103q50 54 151 54q155 0 190 -114l-100 -21q-10 30 -31 43t-59 13q-40 0 -63.5 -14.5t-23.5 -38.5q0 -42 71 -56l106 -22 q124 -24 124 -143q0 -73 -58.5 -116.5t-156.5 -43.5q-95 0 -158 46q-35 27 -51 77zM226 563l-170 141l88 10l82 -64l81 64l88 -10z" />
<glyph unicode="&#x162;" horiz-adv-x="483" d="M306 0h-129v564h-177v103h483v-103h-177v-564zM297 -53l-86 -181h-45l30 181h101z" />
<glyph unicode="&#x163;" horiz-adv-x="322" d="M295 87v-87q-49 -11 -78 -11q-66 0 -105 39q-19 19 -26.5 46t-7.5 77v255h-61v87h68l10 128l91 8v-136h100v-87h-100v-240q0 -47 17 -63.5t64 -16.5q16 0 28 1zM238 -53l-86 -181h-45l30 181h101z" />
<glyph unicode="&#x164;" horiz-adv-x="483" d="M306 0h-129v564h-177v103h483v-103h-177v-564zM242 723l-174 128l93 10l81 -55l81 55l92 -10z" />
<glyph unicode="&#x165;" horiz-adv-x="351" d="M295 87v-87q-49 -11 -78 -11q-66 0 -105 39q-19 19 -26.5 46t-7.5 77v255h-61v87h68l10 128l91 8v-136h100v-87h-100v-240q0 -47 17 -63.5t64 -16.5q16 0 28 1zM370 741l-86 -194h-44l30 194h100z" />
<glyph unicode="&#x166;" horiz-adv-x="483" d="M44 342v93h133v129h-177v103h483v-103h-177v-129h133v-93h-133v-342h-129v342h-133z" />
<glyph unicode="&#x167;" horiz-adv-x="322" d="M20 277v60h58v69h-61v87h68l10 128l91 8v-136h100v-87h-100v-69h93v-60h-93v-111q0 -47 17 -63.5t64 -16.5q16 0 28 1v-87q-49 -11 -78 -11q-66 0 -105 39q-19 19 -26.5 46t-7.5 77v126h-58z" />
<glyph unicode="&#x168;" horiz-adv-x="595" d="M531 667v-429q0 -75 -11.5 -113t-44.5 -71q-64 -64 -177 -64q-116 0 -178 65q-29 30 -41 69.5t-12 105.5v437h123v-429q0 -78 29 -108q33 -35 94 -35q68 0 99 41q24 32 24 102v429h95zM449 847l35 -50q-40 -57 -103 -57q-26 0 -76 23q-37 18 -49 18q-28 0 -67 -39l-35 50 q48 57 102 57q27 0 68 -19q47 -21 69 -21q16 0 28 8t28 30z" />
<glyph unicode="&#x169;" horiz-adv-x="539" d="M473 0h-104v107q-10 -31 -21 -48t-31 -33q-43 -36 -104 -36q-79 0 -121 60q-25 38 -25 98v345h114v-321q0 -35 10 -54q20 -33 60 -33q29 0 56.5 19.5t39.5 49.5q15 34 15 102v237h111v-493zM398 694l34 -50q-14 -24 -42 -40.5t-57 -16.5t-73 23q-34 18 -51 18 q-22 0 -61 -39l-34 50q48 57 99 57q23 0 65 -19q46 -21 66 -21q16 0 27.5 8t26.5 30z" />
<glyph unicode="&#x16a;" horiz-adv-x="595" d="M531 667v-429q0 -75 -11.5 -113t-44.5 -71q-64 -64 -177 -64q-116 0 -178 65q-29 30 -41 69.5t-12 105.5v437h123v-429q0 -78 29 -108q33 -35 94 -35q68 0 99 41q24 32 24 102v429h95zM459 820v-63h-314v63h314z" />
<glyph unicode="&#x16b;" horiz-adv-x="539" d="M473 0h-104v107q-10 -31 -21 -48t-31 -33q-43 -36 -104 -36q-79 0 -121 60q-25 38 -25 98v345h114v-321q0 -35 10 -54q20 -33 60 -33q29 0 56.5 19.5t39.5 49.5q15 34 15 102v237h111v-493zM417 660v-63h-294v63h294z" />
<glyph unicode="&#x16c;" horiz-adv-x="595" d="M531 667v-429q0 -75 -11.5 -113t-44.5 -71q-64 -64 -177 -64q-116 0 -178 65q-29 30 -41 69.5t-12 105.5v437h123v-429q0 -78 29 -108q33 -35 94 -35q68 0 99 41q24 32 24 102v429h95zM158 859h67q10 -31 30 -44.5t58 -13.5q37 0 57 13.5t30 44.5h67q-8 -59 -49.5 -93 t-105.5 -34q-65 0 -106.5 34t-47.5 93z" />
<glyph unicode="&#x16d;" horiz-adv-x="539" d="M473 0h-104v107q-10 -31 -21 -48t-31 -33q-43 -36 -104 -36q-79 0 -121 60q-25 38 -25 98v345h114v-321q0 -35 10 -54q20 -33 60 -33q29 0 56.5 19.5t39.5 49.5q15 34 15 102v237h111v-493zM122 711h64q7 -34 27 -49.5t58 -15.5q37 0 56.5 15t26.5 50h64 q-4 -61 -44.5 -97.5t-103.5 -36.5q-66 0 -105.5 36t-42.5 98z" />
<glyph unicode="&#x16e;" horiz-adv-x="595" d="M531 667v-429q0 -75 -11.5 -113t-44.5 -71q-64 -64 -177 -64q-116 0 -178 65q-29 30 -41 69.5t-12 105.5v437h123v-429q0 -78 29 -108q33 -35 94 -35q68 0 99 41q24 32 24 102v429h95zM303 891q38 0 64 -26t26 -65q0 -38 -26.5 -64t-64.5 -26t-64 26t-26 64t26.5 64.5 t64.5 26.5zM305 840q-19 0 -30.5 -11t-11.5 -28q0 -18 11 -29t28 -11q18 0 29 11t11 28t-10.5 28.5t-26.5 11.5z" />
<glyph unicode="&#x16f;" horiz-adv-x="539" d="M473 0h-104v107q-10 -31 -21 -48t-31 -33q-43 -36 -104 -36q-79 0 -121 60q-25 38 -25 98v345h114v-321q0 -35 10 -54q20 -33 60 -33q29 0 56.5 19.5t39.5 49.5q15 34 15 102v237h111v-493zM270 735q39 0 65 -26t26 -65q0 -37 -26.5 -63.5t-64.5 -26.5t-64.5 26.5 t-26.5 63.5q0 38 26.5 64.5t64.5 26.5zM272 684q-19 0 -30.5 -11t-11.5 -28q0 -18 11 -29t29 -11t29 11t11 28t-11 28.5t-27 11.5z" />
<glyph unicode="&#x170;" horiz-adv-x="595" d="M531 667v-429q0 -75 -11.5 -113t-44.5 -71q-64 -64 -177 -64q-116 0 -178 65q-29 30 -41 69.5t-12 105.5v437h123v-429q0 -78 29 -108q33 -35 94 -35q68 0 99 41q24 32 24 102v429h95zM312 872l43 -64l-160 -81l-29 42zM499 872l43 -64l-160 -81l-29 42z" />
<glyph unicode="&#x171;" horiz-adv-x="539" d="M473 0h-104v107q-10 -31 -21 -48t-31 -33q-43 -36 -104 -36q-79 0 -121 60q-25 38 -25 98v345h114v-321q0 -35 10 -54q20 -33 60 -33q29 0 56.5 19.5t39.5 49.5q15 34 15 102v237h111v-493zM293 726l45 -57l-160 -102l-35 42zM459 726l46 -57l-160 -102l-29 42z" />
<glyph unicode="&#x172;" horiz-adv-x="595" d="M472 -115l10 -40q-42 -17 -81 -17q-49 0 -77 21t-28 58q0 28 15.5 48t54.5 42q-37 -7 -69 -7q-115 0 -177 65q-29 30 -41 69.5t-12 105.5v437h123v-429q0 -78 29 -108q33 -35 94 -35q68 0 99 41q24 32 24 102v429h95v-429q0 -66 -8 -100.5t-30 -62.5q-11 -15 -21 -24 t-52 -43q-54 -45 -54 -85q0 -47 60 -47q22 0 46 9z" />
<glyph unicode="&#x173;" horiz-adv-x="539" d="M369 0v107q-18 -54 -52 -81q-43 -36 -104 -36q-79 0 -121 60q-25 38 -25 98v345h114v-321q0 -35 10 -54q20 -33 60 -33q29 0 56.5 19.5t39.5 49.5q15 34 15 102v237h111v-493q-71 -37 -71 -79q0 -20 14.5 -32.5t39.5 -12.5q19 0 43 9l10 -36q-38 -17 -78 -17 q-44 0 -70.5 20.5t-26.5 54.5q0 30 19.5 51.5t65.5 41.5h-50z" />
<glyph unicode="&#x174;" horiz-adv-x="883" d="M873 667l-178 -667h-126l-133 490l-121 -490h-123l-182 667h128l128 -486l120 486h122l133 -486l126 486h106zM445 867l173 -127l-92 -10l-81 54l-81 -54l-93 10z" />
<glyph unicode="&#x175;" horiz-adv-x="697" d="M687 493l-145 -493h-100l-89 346l-88 -346h-103l-152 493h118l98 -332l84 332h101l87 -332l95 332h94zM362 721l169 -141l-88 -10l-81 64l-82 -64l-88 10z" />
<glyph unicode="&#x176;" horiz-adv-x="544" d="M341 0h-127v281l-227 386h145l158 -275l151 275h116l-216 -386v-281zM282 867l174 -127l-93 -10l-81 54l-81 -54l-92 10z" />
<glyph unicode="&#x177;" horiz-adv-x="442" d="M435 493l-192 -562q-20 -57 -51.5 -83t-82.5 -26q-16 0 -64 4v88q20 -1 55 -1q49 0 65 28q6 10 13.5 31t7.5 27q0 4 -10 31l-169 463h116l120 -326l103 326h89zM231 721l170 -141l-88 -10l-82 64l-81 -64l-89 10z" />
<glyph unicode="&#x178;" horiz-adv-x="544" d="M341 0h-127v281l-227 386h145l158 -275l151 275h116l-216 -386v-281zM196 846q23 0 38.5 -15.5t15.5 -39.5q0 -23 -15.5 -38t-39.5 -15q-23 0 -38 15t-15 38t15.5 39t38.5 16zM366 846q23 0 38.5 -15.5t15.5 -39.5q0 -23 -15.5 -38t-39.5 -15q-23 0 -38 15t-15 38 t15.5 39t38.5 16z" />
<glyph unicode="&#x179;" horiz-adv-x="533" d="M513 103v-103h-493v94l342 478h-318v95h459v-95l-337 -469h347zM408 872l30 -74l-210 -71l-20 52z" />
<glyph unicode="&#x17a;" horiz-adv-x="419" d="M395 87v-87h-372v87l243 319h-220v87h349v-79l-240 -327h240zM345 726l33 -73l-204 -86l-20 52z" />
<glyph unicode="&#x17b;" horiz-adv-x="533" d="M513 103v-103h-493v94l342 478h-318v95h459v-95l-337 -469h347zM275 846q23 0 38.5 -15.5t15.5 -39.5q0 -23 -15.5 -38t-39.5 -15q-22 0 -37.5 15t-15.5 38t15.5 39t38.5 16z" />
<glyph unicode="&#x17c;" horiz-adv-x="419" d="M395 87v-87h-372v87l243 319h-220v87h349v-79l-240 -327h240zM221 688q23 0 38.5 -15.5t15.5 -39.5q0 -23 -15.5 -38t-39.5 -15q-22 0 -37.5 15t-15.5 38t15.5 39t38.5 16z" />
<glyph unicode="&#x17d;" horiz-adv-x="533" d="M513 103v-103h-493v94l342 478h-318v95h459v-95l-337 -469h347zM276 723l-173 128l92 10l81 -55l81 55l93 -10z" />
<glyph unicode="&#x17e;" horiz-adv-x="419" d="M395 87v-87h-372v87l243 319h-220v87h349v-79l-240 -327h240zM222 563l-169 141l88 10l81 -64l82 64l88 -10z" />
<glyph unicode="&#x18f;" horiz-adv-x="643" d="M171 433l-110 24q21 72 43 107q70 113 216 113q126 0 199 -87q84 -99 84 -255q0 -153 -79 -249t-206 -96q-124 0 -203.5 94t-79.5 241v30h446q-5 60 -15 91q-19 63 -57 97t-90 34q-85 0 -124 -79q-8 -15 -24 -65zM473 250h-309q10 -49 24 -76q44 -84 131 -84 q119 0 154 160z" />
<glyph unicode="&#x192;" d="M472 465h-104l-65 -365q-13 -70 -18.5 -91.5t-18.5 -46.5q-37 -73 -105 -89q-33 -7 -77 -7q-23 0 -44 5l17 89h27q54 0 74 21q11 11 16.5 26.5t12.5 61.5l72 396h-72l14 89h74q14 96 49 137q49 55 149 55q18 0 58 -4l-16 -94q-13 1 -28 1q-56 0 -75.5 -18t-27.5 -77h105z " />
<glyph unicode="&#x1fa;" horiz-adv-x="603" d="M224 667h2q-17 25 -17 54q0 38 26.5 64.5t63.5 26.5q38 0 64.5 -26t26.5 -63q0 -32 -18 -56l224 -667h-129l-53 159h-256l-53 -159h-102zM382 255l-97 298l-97 -298h194zM302 761q-19 0 -30.5 -11t-11.5 -29t11 -29t28 -11q18 0 29 11t11 28q0 18 -10.5 29.5t-26.5 11.5z M374 952l30 -74l-210 -71l-19 52z" />
<glyph unicode="&#x1fb;" horiz-adv-x="540" d="M489 0h-107q-13 48 -17 100q-25 -58 -65 -84t-102 -26q-72 0 -117.5 42t-45.5 109q0 118 142 153q68 17 188 17v37q0 76 -105 76q-51 0 -78 -18t-36 -58l-95 14q11 66 65 102q57 39 158 39q122 0 169 -54q19 -21 25 -46.5t6 -80.5v-222q0 -44 15 -100zM365 206v45 q-216 0 -216 -103q0 -34 23 -54t64 -20q58 0 93.5 36.5t35.5 95.5zM281 722q38 0 64 -26.5t26 -64.5t-26.5 -64.5t-64.5 -26.5t-64 26t-26 64t26.5 65t64.5 27zM283 671q-19 0 -30.5 -11t-11.5 -29t11 -29t28 -11q18 0 29 11t11 28q0 18 -10.5 29.5t-26.5 11.5zM339 880 l33 -74l-204 -86l-20 53z" />
<glyph unicode="&#x1fc;" horiz-adv-x="846" d="M815 103v-103h-424v189h-199l-95 -189h-114l355 667h469v-97h-296v-184h235v-95h-235v-188h304zM391 282v302l-152 -302h152zM674 872l30 -74l-210 -71l-20 52z" />
<glyph unicode="&#x1fd;" horiz-adv-x="858" d="M823 230h-348q1 -55 17 -89q14 -30 42.5 -47t63.5 -17q82 0 113 78l103 -17q-21 -68 -81.5 -108t-142.5 -40q-64 0 -114.5 26.5t-78.5 75.5q-38 -55 -80 -78.5t-102 -23.5q-82 0 -130.5 41t-48.5 110q0 80 75 123t214 43q23 0 44 -2q-1 48 -3.5 62.5t-13.5 26.5 q-25 27 -86 27q-87 0 -109 -68l-99 12q13 53 45 82q62 56 175 56q53 0 84.5 -11t77.5 -45q68 56 155 56q105 0 166.5 -65.5t61.5 -177.5v-30zM479 305h229q-4 57 -34 88t-81 31q-48 0 -77 -30.5t-37 -88.5zM368 245q-78 0 -128 -14q-83 -21 -83 -86q0 -33 22.5 -53t60.5 -20 q42 0 75.5 24t44.5 61q8 29 8 88zM540 726l33 -73l-204 -86l-21 52z" />
<glyph unicode="&#x1fe;" horiz-adv-x="643" d="M616 694l-82 -120q71 -96 71 -243q0 -154 -78.5 -247.5t-206.5 -93.5q-92 0 -154 47l-45 -64h-93l82 118q-71 111 -71 244q0 152 79.5 247t206.5 95q45 0 77 -9.5t77 -36.5l43 63h94zM459 469l-229 -345q40 -37 91 -37q40 0 74 21t51 56q29 61 29 167q0 68 -16 138z M187 200l228 345q-22 21 -41 28t-51 7q-39 0 -71 -18.5t-48 -50.5q-35 -70 -35 -177q0 -80 18 -134zM417 872l30 -74l-211 -71l-19 52z" />
<glyph unicode="&#x1ff;" horiz-adv-x="529" d="M494 517l-63 -86q36 -47 49.5 -86t13.5 -96q0 -117 -64.5 -188t-171.5 -71q-60 0 -115 31l-39 -53h-69l65 91q-65 83 -65 189q0 114 65 184.5t169 70.5q61 0 120 -34l35 48h70zM361 338l-158 -236q30 -21 61 -21q112 0 112 173q0 48 -15 84zM166 151l164 239 q-28 22 -66 22q-53 0 -82 -43t-29 -121q0 -45 13 -97zM348 726l33 -73l-204 -86l-21 52z" />
<glyph unicode="&#x218;" horiz-adv-x="571" d="M3 161l116 25q13 -44 38 -64q43 -35 125 -35q61 0 96.5 25.5t35.5 68.5q0 59 -83 81l-128 33q-94 25 -126 68q-39 49 -39 115q0 89 65 144t171 55q111 0 184 -58q41 -34 56 -86l-114 -28q-26 75 -125 75q-52 0 -83 -22.5t-31 -59.5q0 -57 93 -81l114 -28q105 -28 141 -82 q32 -47 32 -108q0 -95 -72.5 -152t-193.5 -57q-125 0 -205 63q-44 36 -67 108zM315 -53l-86 -181h-45l30 181h101z" />
<glyph unicode="&#x219;" horiz-adv-x="454" d="M7 113l104 20q16 -33 40 -46.5t69 -13.5q47 0 73.5 16t26.5 45q0 18 -14.5 31t-39.5 18l-90 18q-76 14 -112.5 49.5t-36.5 95.5q0 61 39 103q50 54 151 54q155 0 190 -114l-100 -21q-10 30 -31 43t-59 13q-40 0 -63.5 -14.5t-23.5 -38.5q0 -42 71 -56l106 -22 q124 -24 124 -143q0 -73 -58.5 -116.5t-156.5 -43.5q-95 0 -158 46q-35 27 -51 77zM263 -53l-86 -181h-45l30 181h101z" />
<glyph unicode="&#x21a;" horiz-adv-x="483" d="M306 0h-129v564h-177v103h483v-103h-177v-564zM297 -53l-86 -181h-45l30 181h101z" />
<glyph unicode="&#x21b;" horiz-adv-x="322" d="M295 87v-87q-49 -11 -78 -11q-66 0 -105 39q-19 19 -26.5 46t-7.5 77v255h-61v87h68l10 128l91 8v-136h100v-87h-100v-240q0 -47 17 -63.5t64 -16.5q16 0 28 1zM238 -53l-86 -181h-45l30 181h101z" />
<glyph unicode="&#x259;" horiz-adv-x="524" d="M144 336l-100 14q24 74 80 113.5t138 39.5q104 0 165.5 -69t61.5 -185t-64 -187.5t-168 -71.5q-98 0 -155 61q-67 72 -67 195v15h339q-1 6 -1 14l-1 22q-1 52 -34 85.5t-83 33.5q-42 0 -68 -18.5t-43 -61.5zM374 189h-223q3 -49 24 -78q34 -43 86 -43q98 0 113 121z" />
<glyph unicode="&#x2bc;" horiz-adv-x="241" d="M176 667v-110l-75 -131h-36l54 131h-54v110h111z" />
<glyph unicode="&#x2c6;" horiz-adv-x="500" d="M250 721l170 -141l-89 -10l-81 64l-82 -64l-88 10z" />
<glyph unicode="&#x2c7;" horiz-adv-x="500" d="M250 563l-170 141l88 10l82 -64l81 64l89 -10z" />
<glyph unicode="&#x2c9;" horiz-adv-x="500" d="M397 660v-63h-294v63h294z" />
<glyph unicode="&#x2d8;" horiz-adv-x="500" d="M102 711h64q7 -34 27 -49.5t58 -15.5q72 0 83 65h64q-4 -61 -44.5 -97.5t-103.5 -36.5q-66 0 -105.5 36t-42.5 98z" />
<glyph unicode="&#x2d9;" horiz-adv-x="500" d="M249 688q23 0 38.5 -15.5t15.5 -39.5q0 -23 -15.5 -38t-39.5 -15q-22 0 -37.5 15t-15.5 38t15.5 39t38.5 16z" />
<glyph unicode="&#x2da;" horiz-adv-x="500" d="M250 735q38 0 64 -26t26 -65q0 -38 -26.5 -64t-64.5 -26q-37 0 -63.5 26t-26.5 64t26.5 64.5t64.5 26.5zM252 684q-19 0 -30.5 -11t-11.5 -28q0 -18 11 -29t28 -11q18 0 29 11t11 28t-10.5 28.5t-26.5 11.5z" />
<glyph unicode="&#x2db;" horiz-adv-x="500" d="M382 0h54q-70 -37 -70 -79q0 -20 14.5 -32.5t38.5 -12.5q19 0 43 9l10 -36q-38 -17 -78 -17q-44 0 -70.5 20.5t-26.5 54.5q0 30 19.5 51.5t65.5 41.5z" />
<glyph unicode="&#x2dc;" horiz-adv-x="500" d="M375 694l34 -50q-14 -24 -42.5 -40.5t-57.5 -16.5t-73 23q-34 18 -50 18q-23 0 -61 -39l-34 50q47 57 98 57q24 0 66 -19q45 -21 66 -21q28 0 54 38z" />
<glyph unicode="&#x2dd;" horiz-adv-x="500" d="M298 726l46 -57l-160 -102l-35 42zM465 726l46 -57l-160 -102l-30 42z" />
<glyph unicode="&#x387;" horiz-adv-x="121" d="M121 318v-128h-121v128h121z" />
<glyph unicode="&#x1e84;" horiz-adv-x="883" d="M873 667l-178 -667h-126l-133 490l-121 -490h-123l-182 667h128l128 -486l120 486h122l133 -486l126 486h106zM359 846q23 0 38.5 -15.5t15.5 -39.5q0 -23 -15.5 -38t-39.5 -15q-22 0 -37.5 15t-15.5 38t15.5 39t38.5 16zM529 846q23 0 38.5 -15.5t15.5 -39.5 q0 -23 -15.5 -38t-39.5 -15q-22 0 -37.5 15t-15.5 38t15.5 39t38.5 16z" />
<glyph unicode="&#x2000;" horiz-adv-x="476" />
<glyph unicode="&#x2001;" horiz-adv-x="952" />
<glyph unicode="&#x2002;" horiz-adv-x="500" />
<glyph unicode="&#x2003;" horiz-adv-x="952" />
<glyph unicode="&#x2004;" horiz-adv-x="293" />
<glyph unicode="&#x2005;" horiz-adv-x="238" />
<glyph unicode="&#x2006;" horiz-adv-x="158" />
<glyph unicode="&#x2007;" />
<glyph unicode="&#x2008;" horiz-adv-x="119" />
<glyph unicode="&#x2009;" horiz-adv-x="190" />
<glyph unicode="&#x200a;" horiz-adv-x="52" />
<glyph unicode="&#x2010;" horiz-adv-x="241" d="M243 299v-91h-245v91h245z" />
<glyph unicode="&#x2011;" horiz-adv-x="241" d="M243 299v-91h-245v91h245z" />
<glyph unicode="&#x2012;" d="M496 299v-92h-405v92h405z" />
<glyph unicode="&#x2013;" d="M496 299v-92h-405v92h405z" />
<glyph unicode="&#x2014;" horiz-adv-x="667" d="M701 300v-91h-736v91h736z" />
<glyph unicode="&#x2015;" horiz-adv-x="667" d="M701 300v-91h-736v91h736z" />
<glyph unicode="&#x2017;" horiz-adv-x="500" d="M0 -49h500v-71h-500v71zM0 -166h500v-71h-500v71z" />
<glyph unicode="&#x2018;" horiz-adv-x="241" d="M65 426v110l75 131h36l-54 -131h54v-110h-111z" />
<glyph unicode="&#x2019;" horiz-adv-x="241" d="M176 667v-110l-75 -131h-36l54 131h-54v110h111z" />
<glyph unicode="&#x201a;" horiz-adv-x="241" d="M176 110v-110l-75 -131h-36l54 131h-54v110h111z" />
<glyph unicode="&#x201c;" horiz-adv-x="375" d="M63 425v110l73 132h42l-56 -132h47v-110h-106zM204 425v110l73 132h35l-52 -132h52v-110h-108z" />
<glyph unicode="&#x201d;" horiz-adv-x="375" d="M312 667v-111l-73 -131h-41l56 131h-47v111h105zM171 667v-111l-73 -131h-35l52 131h-52v111h108z" />
<glyph unicode="&#x201e;" horiz-adv-x="375" d="M312 111v-111l-73 -131h-41l56 131h-47v111h105zM171 111v-111l-73 -131h-35l52 131h-52v111h108z" />
<glyph unicode="&#x2020;" d="M61 391v92h179v184h106v-184h179v-92h-179v-558h-106v558h-179z" />
<glyph unicode="&#x2021;" d="M61 391v92h179v184h106v-184h179v-92h-179v-272h179v-92h-179v-194h-106v194h-179v92h179v272h-179z" />
<glyph unicode="&#x2022;" horiz-adv-x="667" d="M336 477q56 0 96.5 -41t40.5 -97q0 -58 -40.5 -98.5t-97.5 -40.5q-58 0 -98.5 40.5t-40.5 97.5q0 58 40.5 98.5t99.5 40.5z" />
<glyph unicode="&#x2026;" horiz-adv-x="741" d="M184 128v-128h-121v128h121zM430 128v-128h-120v128h120zM678 128v-128h-121v128h121z" />
<glyph unicode="&#x202f;" horiz-adv-x="190" />
<glyph unicode="&#x2030;" horiz-adv-x="1125" d="M587 366q74 0 119 -64q34 -47 34 -124q0 -82 -44 -133t-115 -51q-67 0 -109.5 50.5t-42.5 129.5q0 83 45 137.5t113 54.5zM589 293q-33 0 -51 -29.5t-18 -84.5q0 -114 66 -114q31 0 48 31t17 88q0 109 -62 109zM630 667l-413 -667h-74l414 667h73zM188 673q67 0 107 -40 q50 -53 50 -149q0 -78 -45 -130t-113 -52t-111.5 53t-43.5 136q0 80 43.5 131t112.5 51zM190 602q-66 0 -66 -111q0 -117 63 -117q32 0 50 28t18 80q0 120 -65 120zM940 366q74 0 119 -64q34 -47 34 -124q0 -82 -44 -133t-115 -51q-67 0 -109.5 50.5t-42.5 129.5 q0 83 45 137.5t113 54.5zM941 293q-33 0 -51 -29.5t-18 -84.5q0 -114 66 -114q32 0 49 31t17 88q0 109 -63 109z" />
<glyph unicode="&#x2032;" horiz-adv-x="214" d="M104 399h-77l77 268h109z" />
<glyph unicode="&#x2033;" horiz-adv-x="378" d="M97 399h-77l77 268h109zM294 399h-76l77 268h109z" />
<glyph unicode="&#x2039;" horiz-adv-x="204" d="M161 399l-46 -143l46 -137h-46l-78 137l78 143h46z" />
<glyph unicode="&#x203a;" horiz-adv-x="204" d="M43 399h46l78 -143l-78 -137h-46l46 137z" />
<glyph unicode="&#x203c;" horiz-adv-x="500" d="M188 667v-178l-31 -291h-60l-31 289v180h122zM190 135v-135h-126v135h126zM435 667v-178l-31 -291h-60l-31 289v180h122zM437 135v-135h-126v135h126z" />
<glyph unicode="&#x203e;" horiz-adv-x="500" d="M0 884h500v-102h-500v102z" />
<glyph unicode="&#x2044;" horiz-adv-x="550" d="M33 0l412 667h71l-411 -667h-72z" />
<glyph unicode="&#x205f;" horiz-adv-x="238" />
<glyph unicode="&#x20a3;" d="M182 0h-123v667h421v-103h-298v-183h202v-100h-202v-281zM500 0h-80v298h73l2 -43q1 0 3 2l3 5l2 6q7 14 28.5 26.5t40.5 12.5q7 0 15 -1v-77h-5q-42 0 -62 -25q-20 -27 -20 -66v-138z" />
<glyph unicode="&#x20a4;" d="M69 218v73h78q-3 34 -6 61h-72v73h63q-4 28 -4 49q0 90 56 146.5t145 56.5q79 0 131 -42q32 -27 60 -80l-94 -43q-26 74 -92 74q-40 0 -63 -26.5t-23 -71.5q0 -12 6 -63h131v-73h-122q2 -42 2 -49v-12h120v-73h-129q-8 -36 -20.5 -56t-46.5 -51h128q90 0 124 21 q20 12 29 27.5t14 45.5l105 -53q-24 -64 -65 -101q-31 -29 -66 -40t-97 -11h-373v111q55 1 78.5 7.5t45.5 26.5q35 33 39 73h-82z" />
<glyph unicode="&#x20a7;" horiz-adv-x="1023" d="M193 0h-120v667h240q85 0 139 -33q90 -57 90 -167q0 -89 -60.5 -146t-155.5 -57h-133v-264zM193 367h109q53 0 83.5 26.5t30.5 72.5q0 47 -29 74q-30 27 -96 27h-98v-200zM698 58v-57q-28 -7 -53 -7q-54 0 -77 33q-15 20 -15 66v147h-38v58h42l7 75l67 6v-81h62v-58h-62 v-139q0 -26 9 -34.5t36 -8.5h22zM728 73l74 13q10 -22 23 -29t42 -7q56 0 56 32q0 21 -28 26l-56 10q-98 18 -98 90q0 44 33.5 70t90.5 26q100 0 124 -74l-72 -13q-7 20 -18 27t-34 7q-49 0 -49 -29q0 -22 39 -29l67 -13q81 -17 81 -88q0 -45 -37.5 -71.5t-101.5 -26.5 q-85 0 -120 46q-9 10 -16 33z" />
<glyph unicode="&#x20ac;" d="M69 246h-63l23 59h34q-1 11 -1 26q0 14 1 33h-57l23 59h40q23 124 91.5 189t174.5 65q80 0 141 -32q25 -12 58 -46l-42 -111q-43 52 -76.5 72.5t-76.5 20.5q-114 0 -141 -158h269l-23 -59h-252v-26q0 -14 1 -33h229l-23 -59h-200q28 -155 147 -155q42 0 82 20.5t65 55.5 v-139q-44 -23 -73.5 -30.5t-83.5 -7.5q-88 0 -144 37t-93 118q-22 49 -30 101z" />
<glyph unicode="&#x2105;" horiz-adv-x="293" d="M148 401q25 0 43.5 -18.5t18.5 -44.5t-18.5 -44.5t-44.5 -18.5t-44.5 18.5t-18.5 45.5q0 25 19 43.5t45 18.5z" />
<glyph unicode="&#x2113;" d="M304 267q-4 -15 -14 -70q-15 -81 -15 -119q0 -29 16 -29q21 0 44 49q9 20 20 20q17 0 17 -19q0 -40 -35 -76.5t-73 -36.5q-75 0 -75 119q0 32 4 81q-32 -30 -39 -30q-6 0 -11.5 7t-5.5 16q0 12 16 28q25 25 47 52q33 180 81 296q51 123 124 123q34 0 54 -24.5t20 -65.5 q0 -85 -66 -190q-27 -42 -109 -131zM317 351q51 56 80 117t29 111q0 41 -20 41q-19 0 -34 -41q-29 -85 -55 -228z" />
<glyph unicode="&#x2122;" horiz-adv-x="777" d="M195 287h-88v315h-106v65h301v-65h-107v-315zM738 287h-84v298l-102 -298h-46l-102 299v-299h-69v380h122l80 -228l78 228h123v-380z" />
<glyph unicode="&#x2126;" d="M10 0v103h154q-61 34 -92 81q-51 78 -51 190q0 136 75.5 219.5t197.5 83.5t197 -83.5t75 -219.5q0 -112 -51 -190q-31 -47 -92 -81h154v-103h-255v103q53 38 75 79q39 72 39 178q0 103 -38 161.5t-105 58.5q-66 0 -104 -58.5t-38 -161.5q0 -106 39 -178q22 -41 75 -79 v-103h-255z" />
<glyph unicode="&#x215b;" horiz-adv-x="880" d="M331 266h-302v65h114v239q-58 -47 -115 -70v79l18 6q82 27 124 90h56v-344h105v-65zM185 0l411 667h72l-412 -667h-71zM605 198q-69 34 -69 94q0 52 43 83t114 31q69 0 110.5 -28.5t41.5 -76.5q0 -55 -69 -86q46 -20 66 -44t20 -59q0 -53 -48 -85.5t-126 -32.5 q-77 0 -122 29.5t-45 79.5q0 65 84 95zM665 171q-65 -24 -65 -64q0 -23 26 -38.5t66 -15.5q39 0 62.5 13.5t23.5 35.5q0 21 -23 35.5t-90 33.5zM715 239q55 23 55 59q0 23 -21 37.5t-55 14.5t-54.5 -13t-20.5 -34t19 -33.5t77 -30.5z" />
<glyph unicode="&#x215c;" horiz-adv-x="880" d="M133 440v63h42q35 0 56 14.5t21 39.5t-17.5 38.5t-49.5 13.5q-31 0 -50 -13t-32 -44l-75 13q13 50 55.5 79t104.5 29q64 0 105 -30.5t41 -78.5q0 -65 -63 -89q40 -16 58 -38.5t18 -57.5q0 -53 -45 -86t-117 -33q-64 0 -109 29.5t-61 81.5l78 18q22 -67 91 -67 q35 0 57 16.5t22 41.5q0 27 -20.5 43.5t-54.5 16.5h-55zM199 0l411 667h72l-411 -667h-72zM606 198q-69 35 -69 94q0 52 43 83t114 31q69 0 110.5 -28.5t41.5 -76.5q0 -57 -70 -86q46 -20 66 -44t20 -59q0 -53 -48 -85.5t-126 -32.5q-76 0 -121 29.5t-45 79.5q0 63 84 95z M666 171q-65 -24 -65 -64q0 -24 25.5 -39t65.5 -15q39 0 62.5 13.5t23.5 35.5q0 21 -22.5 35t-89.5 34zM715 239q56 23 56 59q0 23 -21 37.5t-55 14.5t-54.5 -13t-20.5 -34t19 -33.5t76 -30.5z" />
<glyph unicode="&#x215d;" horiz-adv-x="880" d="M54 667h268l-7 -68h-199l-11 -101q37 39 94 39q62 0 105 -40t43 -97q0 -61 -47 -100.5t-120 -39.5q-139 0 -169 114l79 11q20 -61 87 -61q36 0 58.5 21.5t22.5 55.5q0 32 -21.5 53.5t-54.5 21.5q-52 0 -79 -46l-73 13zM199 0l411 667h72l-411 -667h-72zM602 198 q-68 34 -68 94q0 52 43 83t114 31q69 0 110.5 -28.5t41.5 -76.5q0 -29 -16.5 -49.5t-53.5 -36.5q46 -20 66 -44t20 -59q0 -53 -48 -85.5t-126 -32.5q-76 0 -121 29.5t-45 79.5q0 64 83 95zM663 171q-65 -24 -65 -64q0 -24 25.5 -39t65.5 -15q39 0 62.5 13.5t23.5 35.5 q0 21 -22.5 35t-89.5 34zM712 239q56 23 56 59q0 23 -21 37.5t-55 14.5t-54.5 -13t-20.5 -34t19 -33.5t76 -30.5z" />
<glyph unicode="&#x215e;" horiz-adv-x="880" d="M32 667h304v-55q-75 -91 -101 -158.5t-33 -186.5h-93q7 100 42.5 178.5t108.5 153.5h-235zM151 0l412 667h72l-412 -667h-72zM591 198q-68 34 -68 94q0 52 43 83t114 31q69 0 110.5 -28.5t41.5 -76.5q0 -29 -16.5 -49.5t-53.5 -36.5q46 -20 66 -44t20 -59 q0 -53 -48 -85.5t-126 -32.5q-76 0 -121 29.5t-45 79.5q0 64 83 95zM652 171q-65 -24 -65 -64q0 -24 25.5 -39t65.5 -15q39 0 62.5 13.5t23.5 35.5q0 21 -22.5 35t-89.5 34zM701 239q56 23 56 59q0 23 -21 37.5t-55 14.5t-54.5 -13t-20.5 -34t19 -33.5t76 -30.5z" />
<glyph unicode="&#x2190;" horiz-adv-x="667" d="M654 310h-500q52 -77 52 -104q0 -14 -15 -14q-8 0 -23 17q-46 56 -132 103q-16 9 -19.5 13t-3.5 11t4.5 11t26.5 16q78 43 124 99q16 17 24 17q14 0 14 -14q0 -27 -52 -104h500v-51z" />
<glyph unicode="&#x2191;" horiz-adv-x="667" d="M308 0v499q-78 -52 -104 -52q-14 0 -14 15q0 8 17 23q55 47 103 132q9 16 13 19.5t11 3.5t11 -4.5t16 -26.5q43 -78 99 -124q17 -16 17 -24q0 -14 -14 -14q-24 0 -104 52v-499h-51z" />
<glyph unicode="&#x2192;" horiz-adv-x="667" d="M13 361h500q-52 77 -52 104q0 14 15 14q8 0 23 -17q48 -57 132 -103q16 -9 19.5 -13t3.5 -11t-4.5 -11t-26.5 -16q-78 -43 -124 -99q-16 -17 -24 -17q-14 0 -14 14q0 27 52 104h-500v51z" />
<glyph unicode="&#x2193;" horiz-adv-x="667" d="M360 630v-499q78 52 104 52q14 0 14 -15q0 -8 -17 -23q-55 -47 -103 -132q-9 -16 -13 -19.5t-11 -3.5t-11 4.5t-16 26.5q-43 78 -99 124q-17 16 -17 24q0 14 14 14q24 0 104 -52v499h51z" />
<glyph unicode="&#x2194;" horiz-adv-x="667" d="M514 310h-360q52 -78 52 -104q0 -14 -15 -14q-8 0 -23 17q-46 56 -132 103q-16 9 -19.5 13t-3.5 11t4.5 11t26.5 16q78 43 124 99q16 17 24 17q14 0 14 -14q0 -24 -52 -104h360q-53 76 -53 104q0 14 15 14q8 0 23 -17q48 -57 132 -103q16 -9 19.5 -13t3.5 -11t-4.5 -11 t-26.5 -16q-78 -43 -124 -99q-16 -17 -24 -17q-14 0 -14 14q0 25 53 104z" />
<glyph unicode="&#x2195;" horiz-adv-x="667" d="M308 131v368q-78 -52 -104 -52q-14 0 -14 15q0 8 17 23q55 46 103 132q9 16 12.5 19.5t10.5 3.5q8 0 12 -4.5t16 -26.5q42 -77 98 -124q17 -15 17 -24q0 -14 -14 -14q-25 0 -103 52v-368q78 52 104 52q14 0 14 -15q0 -8 -17 -23q-55 -46 -103 -132q-9 -16 -12.5 -19.5 t-10.5 -3.5q-8 0 -12 4.5t-16 26.5q-42 77 -98 124q-17 15 -17 24q0 14 14 14q25 0 103 -52z" />
<glyph unicode="&#x21a8;" horiz-adv-x="667" d="M200 -68h266v-43h-266v43zM308 131v368q-78 -52 -104 -52q-14 0 -14 15q0 8 17 23q55 46 103 132q9 16 12.5 19.5t10.5 3.5q8 0 12 -4.5t16 -26.5q42 -77 98 -124q17 -15 17 -24q0 -14 -14 -14q-25 0 -103 52v-368q78 52 104 52q14 0 14 -15q0 -8 -17 -23 q-55 -46 -103 -132q-9 -16 -12.5 -19.5t-10.5 -3.5q-8 0 -12 4.5t-16 26.5q-42 77 -98 124q-17 15 -17 24q0 14 14 14q25 0 103 -52z" />
<glyph unicode="&#x2202;" d="M464 667v-87h-202l74 -51q48 -33 69.5 -51t45.5 -45q72 -83 72 -196t-61.5 -180t-167.5 -67q-107 0 -169 65.5t-62 178.5q0 101 56.5 163t149.5 63h12l-163 126v81h346zM295 397q-114 0 -114 -154q0 -162 112 -162t112 159q0 157 -110 157z" />
<glyph unicode="&#x2206;" d="M-13 0l222 667h154l230 -667h-606zM126 103h297l-142 463h-14z" />
<glyph unicode="&#x220f;" horiz-adv-x="667" d="M11 750h645v-102h-81v-796h81v-102h-276v102h80v796h-253v-796h79v-102h-275v102h82v796h-82v102z" />
<glyph unicode="&#x2211;" horiz-adv-x="667" d="M614 750v-241h-102l-11 139h-350l250 -381l-250 -415h359l7 141h106v-243h-600v114l245 403l-245 369v114h591z" />
<glyph unicode="&#x2212;" d="M540 383v-93h-494v93h494z" />
<glyph unicode="&#x2218;" horiz-adv-x="500" d="M252 479q56 0 96 -41t40 -98q0 -58 -40 -99t-97 -41t-97.5 40.5t-40.5 98.5q0 59 40 99.5t99 40.5zM252 431q-39 0 -65.5 -27t-26.5 -65q0 -37 27 -64t64 -27t63.5 27t26.5 65q0 37 -26.5 64t-62.5 27z" />
<glyph unicode="&#x221a;" d="M667 840v-102h-183l-180 -738h-149l-64 279h-91v102h185l23 -97q10 -49 18 -144h9q20 161 56 306l94 394h282z" />
<glyph unicode="&#x221e;" horiz-adv-x="667" d="M336 265q-71 -86 -159 -86q-71 0 -115.5 45t-44.5 116q0 69 45 114t115 45q86 0 154 -85q66 85 158 85q71 0 115.5 -44.5t44.5 -115.5q0 -70 -44.5 -115t-113.5 -45q-89 0 -155 86zM389 339q41 -58 83 -58q26 0 43 16.5t17 41.5t-17 41.5t-43 16.5q-42 0 -83 -58z M277 339q-40 58 -83 58q-26 0 -43 -16.5t-17 -41.5t17 -41.5t43 -16.5q42 0 83 58z" />
<glyph unicode="&#x2229;" d="M560 0h-113v292q0 88 -5.5 129t-19.5 65q-19 32 -54 51t-75 19q-43 0 -80 -22t-54 -58q-20 -41 -20 -184v-292h-113v289q0 128 8.5 176.5t38.5 88.5q76 104 220 104q76 0 137 -32t96 -91q21 -35 27.5 -82.5t6.5 -163.5v-289z" />
<glyph unicode="&#x222b;" d="M104 -240l21 101q29 -11 53 -11q50 0 56 54q1 10 1 77v516q0 119 10 156q13 46 53.5 72t99.5 26q30 0 84 -11l-21 -101q-33 11 -53 11q-50 0 -56 -54q-1 -9 -1 -134v-460q0 -101 -5.5 -135.5t-25.5 -60.5q-44 -56 -134 -56q-45 0 -82 10z" />
<glyph unicode="&#x2243;" d="M77 292h433v-102h-433v102zM114 341l-63 41q31 73 64 102.5t84 29.5q34 0 105 -28q66 -26 89 -26q26 0 42 11.5t36 44.5l65 -38q-36 -74 -68 -97q-39 -30 -88 -30q-28 0 -144 44q-29 9 -46 9q-24 0 -40.5 -14t-35.5 -49z" />
<glyph unicode="&#x2248;" d="M114 341l-63 41q31 73 64 102.5t84 29.5q34 0 105 -28q66 -26 89 -26q26 0 42 11.5t36 44.5l65 -38q-36 -74 -68 -97q-39 -30 -88 -30q-28 0 -144 44q-29 9 -46 9q-24 0 -40.5 -14t-35.5 -49zM114 148l-63 42q31 73 64 102.5t84 29.5q35 0 105 -28q66 -26 90 -26 q26 0 42 12t35 44l65 -38q-35 -73 -68 -97q-39 -30 -88 -30q-28 0 -144 44q-29 9 -46 9q-24 0 -40.5 -14t-35.5 -50z" />
<glyph unicode="&#x2260;" d="M308 462l55 109l72 -36l-36 -73h111v-102h-157l-37 -74h195v-102h-241l-51 -101l-72 36l32 65h-102v102h148l37 74h-185v102h231z" />
<glyph unicode="&#x2261;" d="M77 543h433v-102h-433v102zM77 387h433v-102h-433v102zM77 231h433v-102h-433v102z" />
<glyph unicode="&#x2264;" d="M500 651v-106l-313 -146l313 -146v-106l-433 204v96zM500 118v-102h-433v102h433z" />
<glyph unicode="&#x2265;" d="M87 147v106l313 146l-313 146v106l433 -204v-96zM87 16v102h433v-102h-433z" />
<glyph unicode="&#x22c5;" horiz-adv-x="121" d="M121 318v-128h-121v128h121z" />
<glyph unicode="&#x2302;" horiz-adv-x="667" d="M42 0v401l291 328l292 -328v-401h-583zM105 60h457v322l-229 264l-228 -264v-322z" />
<glyph unicode="&#x2310;" d="M190 0h-113v267h433v-102h-320v-165z" />
<glyph unicode="&#x2320;" d="M351 -250h-116v756q0 107 10 146q13 46 53.5 72t98.5 26q35 0 85 -10l-21 -101q-31 10 -53 10q-50 0 -56 -53q-1 -9 -1 -76v-770z" />
<glyph unicode="&#x2321;" d="M235 750h116v-756q0 -107 -10 -146q-13 -46 -53.5 -72t-98.5 -26q-35 0 -85 10l21 101q31 -10 53 -10q50 0 56 53q1 10 1 76v770z" />
<glyph unicode="&#x25a0;" horiz-adv-x="667" d="M580 0h-493v667h493v-667z" />
<glyph unicode="&#x25a1;" horiz-adv-x="667" d="M580 0h-493v667h493v-667zM533 47v573h-399v-573h399z" />
<glyph unicode="&#x25ac;" horiz-adv-x="667" d="M667 433v-180h-667v180h667z" />
<glyph unicode="&#x25b4;" horiz-adv-x="500" d="M466 147h-433l217 405z" />
<glyph unicode="&#x25b8;" horiz-adv-x="500" d="M71 119v433l405 -217z" />
<glyph unicode="&#x25be;" horiz-adv-x="500" d="M33 520h433l-216 -405z" />
<glyph unicode="&#x25c2;" horiz-adv-x="500" d="M428 119l-405 216l405 217v-433z" />
<glyph unicode="&#x25ca;" horiz-adv-x="667" d="M334 693l259 -360l-259 -359l-260 359zM334 604l-197 -271l197 -270l197 270z" />
<glyph unicode="&#x25cb;" horiz-adv-x="667" d="M333 596q109 0 185 -75.5t76 -183.5q0 -103 -77 -178t-184 -75t-183.5 75t-76.5 181q0 105 76.5 180.5t183.5 75.5zM333 550q-88 0 -150.5 -61.5t-62.5 -148.5t62.5 -148.5t150.5 -61.5t151 61t63 146q0 90 -62 151.5t-152 61.5z" />
<glyph unicode="&#x25cf;" horiz-adv-x="667" d="M333 589q109 0 185 -75.5t76 -183.5q0 -103 -77 -178t-184 -75t-183.5 75t-76.5 181q0 105 76.5 180.5t183.5 75.5z" />
<glyph unicode="&#x25d8;" horiz-adv-x="667" d="M580 0h-493v667h493v-667zM335 473q-59 0 -99 -40.5t-40 -99.5q0 -58 40.5 -98.5t97.5 -40.5t97 41t40 99q0 57 -40 98t-96 41z" />
<glyph unicode="&#x25d9;" horiz-adv-x="667" d="M332 521q78 0 132 -54.5t54 -133.5q0 -76 -54.5 -130t-131.5 -54t-131.5 54.5t-54.5 131.5t54.5 131.5t131.5 54.5zM667 0h-667v667h667v-667zM333 569q-98 0 -168.5 -69t-70.5 -166t70.5 -166.5t168.5 -69.5t169 69t71 164q0 99 -70 168.5t-170 69.5z" />
<glyph unicode="&#x25e6;" horiz-adv-x="500" d="M252 479q56 0 96 -41t40 -98q0 -58 -40 -99t-97 -41t-97.5 40.5t-40.5 98.5q0 59 40 99.5t99 40.5zM252 431q-39 0 -65.5 -27t-26.5 -65q0 -37 27 -64t64 -27t63.5 27t26.5 65q0 37 -26.5 64t-62.5 27z" />
<glyph unicode="&#x25fc;" horiz-adv-x="495" d="M0 495h495v-495h-495v495z" />
<glyph unicode="&#x263a;" horiz-adv-x="667" d="M241 466q17 0 30 -13t13 -31t-13 -31t-31 -13t-31 13t-13 31q0 19 13 31.5t32 12.5zM429 466q17 0 30 -13t13 -31t-13 -31t-31 -13t-31 13t-13 31q0 19 13 31.5t32 12.5zM128 372q18 -76 71.5 -117.5t134.5 -41.5q82 0 135.5 41.5t70.5 117.5q-8 -110 -50 -161 q-57 -70 -156 -70q-109 0 -165 82q-33 49 -41 149zM337 650q128 0 220.5 -93.5t92.5 -223.5q0 -131 -93 -223.5t-223 -92.5q-131 0 -224 92.5t-93 223.5q0 133 93 225t227 92zM337 609q-117 0 -198 -80t-81 -196q0 -114 81 -194.5t195 -80.5t194.5 80.5t80.5 194.5 q0 113 -80.5 194.5t-191.5 81.5z" />
<glyph unicode="&#x263b;" horiz-adv-x="667" d="M337 650q128 0 220.5 -93.5t92.5 -223.5q0 -131 -93 -223.5t-223 -92.5q-131 0 -224 92.5t-93 223.5q0 133 93 225t227 92zM241 466q-19 0 -32 -12.5t-13 -31.5q0 -18 13 -31t31 -13t31 13t13 31t-13 31t-30 13zM428 466q-19 0 -31.5 -12.5t-12.5 -31.5q0 -18 12.5 -31 t31.5 -13q18 0 30.5 13t12.5 31t-13 31t-30 13zM128 372q8 -110 51 -161q57 -70 155 -70q110 0 165 82q34 49 41 149q-17 -76 -70.5 -117.5t-135.5 -41.5q-81 0 -134.5 41.5t-71.5 117.5z" />
<glyph unicode="&#x263c;" horiz-adv-x="667" d="M159 472l-75 75l35 35l75 -75q49 40 114 48v105h50v-105q67 -8 113 -48l75 75l35 -35l-74 -74q38 -48 47 -114h105v-51h-105q-9 -64 -47 -114l74 -74l-35 -35l-75 74q-50 -40 -113 -47v-105h-50v105q-60 6 -114 47l-75 -74l-35 35l74 74q-40 51 -46 114h-105v51h105 q7 61 47 113zM336 493q-68 0 -115.5 -46t-47.5 -112q0 -67 46.5 -114t113.5 -47q66 0 112.5 47t46.5 113q0 65 -46 112t-110 47z" />
<glyph unicode="&#x2640;" horiz-adv-x="667" d="M357 0h-48v166h-162v43h162v106q-68 11 -112 61.5t-44 119.5q0 76 53 129.5t127 53.5t127 -53.5t53 -129.5q0 -69 -44 -119.5t-112 -61.5v-106h162v-43h-162v-166zM333 625q-52 0 -89 -37.5t-37 -89.5q0 -55 36.5 -93t89.5 -38q52 0 89 38t37 91t-37 91t-89 38z" />
<glyph unicode="&#x2642;" horiz-adv-x="667" d="M385 382l151 151q-36 8 -94 34q-33 15 -33 28t13 13q3 0 21 -3q40 -9 83 -9q54 0 105 14l10 1q10 0 10 -11q0 -3 -4 -22q-12 -43 -12 -87q0 -47 9 -84q4 -16 4 -19q0 -14 -13 -14q-15 0 -35.5 39t-30.5 86l-151 -151q35 -51 35 -109q0 -76 -53 -129.5t-127 -53.5 t-127 53.5t-53 129.5q0 75 53 128.5t127 53.5q60 0 112 -39zM273 367q-52 0 -89 -37.5t-37 -89.5q0 -55 36.5 -92.5t89.5 -37.5q52 0 89 38t37 91t-37 90.5t-89 37.5z" />
<glyph unicode="&#x2660;" horiz-adv-x="667" d="M561 0h-455v18q81 14 122 39.5t72 81.5q26 48 27 116q-21 -49 -57.5 -75.5t-82.5 -26.5q-51 0 -87 37t-36 89q0 46 27 86t99 100q121 101 144 221q21 -120 143 -221q72 -60 99 -100t27 -86q0 -52 -36 -89t-87 -37q-46 0 -82.5 26.5t-57.5 75.5q1 -75 35 -131 q32 -49 70.5 -70.5t115.5 -35.5v-18z" />
<glyph unicode="&#x2663;" horiz-adv-x="667" d="M561 0h-455v18q113 16 167 78.5t54 177.5q-73 -127 -177 -127q-62 0 -104.5 44t-42.5 108q0 62 38.5 104.5t93.5 42.5q19 0 33 -4.5t53 -24.5q-35 53 -35 100q0 59 43.5 101t104.5 42t104 -42t43 -101q0 -47 -35 -100q38 20 52 24.5t34 4.5q55 0 93.5 -42.5t38.5 -104.5 q0 -64 -42.5 -108t-104.5 -44q-104 0 -177 127q0 -115 54 -177.5t167 -78.5v-18z" />
<glyph unicode="&#x2665;" horiz-adv-x="667" d="M333 -11q-17 66 -53 128.5t-133 192.5q-54 73 -72.5 112t-18.5 82q0 57 37 96t92 39q106 0 148 -130q18 64 55.5 97.5t90.5 33.5q56 0 94 -39.5t38 -97.5q0 -75 -68 -168q-16 -23 -94 -124q-95 -127 -116 -222z" />
<glyph unicode="&#x2666;" horiz-adv-x="667" d="M80 333q54 60 130 167t124 193q49 -87 124 -194t129 -166q-54 -58 -129 -165t-124 -194q-50 88 -125.5 194.5t-128.5 164.5z" />
<glyph unicode="&#x266a;" horiz-adv-x="667" d="M306 667h46v-61q2 -2 5.5 -6.5t6 -7.5t3.5 -4l52 -63q91 -109 91 -224q0 -94 -57 -163h-28q33 77 33 145t-31 119.5t-75 57.5v-297q0 -68 -29 -108q-45 -64 -121 -64q-33 0 -52 16.5t-19 44.5q0 46 36.5 80.5t85.5 34.5q28 0 53 -11v511z" />
<glyph unicode="&#x266c;" horiz-adv-x="667" d="M195 587l421 107v-495q0 -68 -29 -108q-45 -64 -121 -64q-33 0 -52 16.5t-19 44.5q0 46 36.5 80.5t85.5 34.5q28 0 53 -11v270l-329 -90v-229q0 -68 -29 -108q-45 -64 -121 -64q-33 0 -52 16.5t-19 44.5q0 46 36.5 80.5t85.5 34.5q28 0 53 -11v451zM241 448l329 90v70 l-329 -90v-70z" />
<glyph unicode="&#xf6c3;" horiz-adv-x="500" d="M315 -53l-86 -181h-44l30 181h100z" />
<glyph unicode="&#xfb01;" horiz-adv-x="540" d="M473 667v-117h-115v117h115zM473 493v-493h-115v493h115zM198 0h-115v406h-73v87h73q1 90 32 129q41 55 124 55q24 0 68 -5v-88h-15q-59 0 -76.5 -14.5t-17.5 -64.5v-12h109v-87h-109v-406z" />
<glyph unicode="&#xfb02;" horiz-adv-x="540" d="M473 667v-667h-115v667h115zM199 0h-115v406h-74v87h74q2 54 8 80t24 49q40 55 124 55q30 0 67 -5v-89q-12 1 -29 1q-53 0 -71 -29q-8 -14 -8 -62h108v-87h-108v-406z" />
<glyph horiz-adv-x="500" d="M185 579l86 181h44l-30 -181h-100z" />
</font>
</defs>
</svg>
